<svg viewBox="0 0 675 368" fill="none" xmlns="http://www.w3.org/2000/svg">
<g style="mix-blend-mode:overlay">
<path d="M35 -51H1V-17M35 -51V-17M35 -51H69M35 -17H1M35 -17V17M35 -17H69M1 -17V17M35 17H1M35 17V51M35 17H69M1 17V51M35 51H1M35 51V85M35 51H69M1 51V85M35 85H1M35 85V119M35 85H69M1 85V119M35 119H1M35 119V153M35 119H69M1 119V153M35 153H1M35 153V187M35 153H69M1 153V187M35 187H1M35 187V221M35 187H69M1 187V221M35 221H1M35 221V255M35 221H69M1 221V255M35 255H1M35 255V289M35 255H69M1 255V289M35 289H1M35 289V323M35 289H69M1 289V323M35 323H1M35 323V357M35 323H69M1 323V357M35 357H1M35 357V391M35 357H69M1 357V391M35 391H1M35 391V425M35 391H69M1 391V425M35 425H1M35 425V459M35 425H69M1 425V459M35 459H1M35 459V493M35 459H69M1 459V493M35 493H1M35 493V527M35 493H69M1 493V527M35 527H1M35 527V561M35 527H69M1 527V561M35 561H1M35 561V595M35 561H69M1 561V595H35M35 595H69M69 -51V-17M69 -51H103M69 -17V17M69 -17H103M69 17V51M69 17H103M69 51V85M69 51H103M69 85V119M69 85H103M69 119V153M69 119H103M69 153V187M69 153H103M69 187V221M69 187H103M69 221V255M69 221H103M69 255V289M69 255H103M69 289V323M69 289H103M69 323V357M69 323H103M69 357V391M69 357H103M69 391V425M69 391H103M69 425V459M69 425H103M69 459V493M69 459H103M69 493V527M69 493H103M69 527V561M69 527H103M69 561V595M69 561H103M69 595H103M103 -51V-17M103 -51H137M103 -17V17M103 -17H137M103 17V51M103 17H137M103 51V85M103 51H137M103 85V119M103 85H137M103 119V153M103 119H137M103 153V187M103 153H137M103 187V221M103 187H137M103 221V255M103 221H137M103 255V289M103 255H137M103 289V323M103 289H137M103 323V357M103 323H137M103 357V391M103 357H137M103 391V425M103 391H137M103 425V459M103 425H137M103 459V493M103 459H137M103 493V527M103 493H137M103 527V561M103 527H137M103 561V595M103 561H137M103 595H137M137 -51V-17M137 -51H171M137 -17V17M137 -17H171M137 17V51M137 17H171M137 51V85M137 51H171M137 85V119M137 85H171M137 119V153M137 119H171M137 153V187M137 153H171M137 187V221M137 187H171M137 221V255M137 221H171M137 255V289M137 255H171M137 289V323M137 289H171M137 323V357M137 323H171M137 357V391M137 357H171M137 391V425M137 391H171M137 425V459M137 425H171M137 459V493M137 459H171M137 493V527M137 493H171M137 527V561M137 527H171M137 561V595M137 561H171M137 595H171M171 -51V-17M171 -51H205M171 -17V17M171 -17H205M171 17V51M171 17H205M171 51V85M171 51H205M171 85V119M171 85H205M171 119V153M171 119H205M171 153V187M171 153H205M171 187V221M171 187H205M171 221V255M171 221H205M171 255V289M171 255H205M171 289V323M171 289H205M171 323V357M171 323H205M171 357V391M171 357H205M171 391V425M171 391H205M171 425V459M171 425H205M171 459V493M171 459H205M171 493V527M171 493H205M171 527V561M171 527H205M171 561V595M171 561H205M171 595H205M205 -51V-17M205 -51H239M205 -17V17M205 -17H239M205 17V51M205 17H239M205 51V85M205 51H239M205 85V119M205 85H239M205 119V153M205 119H239M205 153V187M205 153H239M205 187V221M205 187H239M205 221V255M205 221H239M205 255V289M205 255H239M205 289V323M205 289H239M205 323V357M205 323H239M205 357V391M205 357H239M205 391V425M205 391H239M205 425V459M205 425H239M205 459V493M205 459H239M205 493V527M205 493H239M205 527V561M205 527H239M205 561V595M205 561H239M205 595H239M239 -51V-17M239 -51H273M239 -17V17M239 -17H273M239 17V51M239 17H273M239 51V85M239 51H273M239 85V119M239 85H273M239 119V153M239 119H273M239 153V187M239 153H273M239 187V221M239 187H273M239 221V255M239 221H273M239 255V289M239 255H273M239 289V323M239 289H273M239 323V357M239 323H273M239 357V391M239 357H273M239 391V425M239 391H273M239 425V459M239 425H273M239 459V493M239 459H273M239 493V527M239 493H273M239 527V561M239 527H273M239 561V595M239 561H273M239 595H273M273 -51V-17M273 -51H307M273 -17V17M273 -17H307M273 17V51M273 17H307M273 51V85M273 51H307M273 85V119M273 85H307M273 119V153M273 119H307M273 153V187M273 153H307M273 187V221M273 187H307M273 221V255M273 221H307M273 255V289M273 255H307M273 289V323M273 289H307M273 323V357M273 323H307M273 357V391M273 357H307M273 391V425M273 391H307M273 425V459M273 425H307M273 459V493M273 459H307M273 493V527M273 493H307M273 527V561M273 527H307M273 561V595M273 561H307M273 595H307M307 -51V-17M307 -51H341M307 -17V17M307 -17H341M307 17V51M307 17H341M307 51V85M307 51H341M307 85V119M307 85H341M307 119V153M307 119H341M307 153V187M307 153H341M307 187V221M307 187H341M307 221V255M307 221H341M307 255V289M307 255H341M307 289V323M307 289H341M307 323V357M307 323H341M307 357V391M307 357H341M307 391V425M307 391H341M307 425V459M307 425H341M307 459V493M307 459H341M307 493V527M307 493H341M307 527V561M307 527H341M307 561V595M307 561H341M307 595H341M341 -51V-17M341 -51H375M341 -17V17M341 -17H375M341 17V51M341 17H375M341 51V85M341 51H375M341 85V119M341 85H375M341 119V153M341 119H375M341 153V187M341 153H375M341 187V221M341 187H375M341 221V255M341 221H375M341 255V289M341 255H375M341 289V323M341 289H375M341 323V357M341 323H375M341 357V391M341 357H375M341 391V425M341 391H375M341 425V459M341 425H375M341 459V493M341 459H375M341 493V527M341 493H375M341 527V561M341 527H375M341 561V595M341 561H375M341 595H375M375 -51V-17M375 -51H409M375 -17V17M375 -17H409M375 17V51M375 17H409M375 51V85M375 51H409M375 85V119M375 85H409M375 119V153M375 119H409M375 153V187M375 153H409M375 187V221M375 187H409M375 221V255M375 221H409M375 255V289M375 255H409M375 289V323M375 289H409M375 323V357M375 323H409M375 357V391M375 357H409M375 391V425M375 391H409M375 425V459M375 425H409M375 459V493M375 459H409M375 493V527M375 493H409M375 527V561M375 527H409M375 561V595M375 561H409M375 595H409M409 -51V-17M409 -51H443M409 -17V17M409 -17H443M409 17V51M409 17H443M409 51V85M409 51H443M409 85V119M409 85H443M409 119V153M409 119H443M409 153V187M409 153H443M409 187V221M409 187H443M409 221V255M409 221H443M409 255V289M409 255H443M409 289V323M409 289H443M409 323V357M409 323H443M409 357V391M409 357H443M409 391V425M409 391H443M409 425V459M409 425H443M409 459V493M409 459H443M409 493V527M409 493H443M409 527V561M409 527H443M409 561V595M409 561H443M409 595H443M443 -51V-17M443 -51H477M443 -17V17M443 -17H477M443 17V51M443 17H477M443 51V85M443 51H477M443 85V119M443 85H477M443 119V153M443 119H477M443 153V187M443 153H477M443 187V221M443 187H477M443 221V255M443 221H477M443 255V289M443 255H477M443 289V323M443 289H477M443 323V357M443 323H477M443 357V391M443 357H477M443 391V425M443 391H477M443 425V459M443 425H477M443 459V493M443 459H477M443 493V527M443 493H477M443 527V561M443 527H477M443 561V595M443 561H477M443 595H477M477 -51V-17M477 -51H511M477 -17V17M477 -17H511M477 17V51M477 17H511M477 51V85M477 51H511M477 85V119M477 85H511M477 119V153M477 119H511M477 153V187M477 153H511M477 187V221M477 187H511M477 221V255M477 221H511M477 255V289M477 255H511M477 289V323M477 289H511M477 323V357M477 323H511M477 357V391M477 357H511M477 391V425M477 391H511M477 425V459M477 425H511M477 459V493M477 459H511M477 493V527M477 493H511M477 527V561M477 527H511M477 561V595M477 561H511M477 595H511M511 -51V-17M511 -51H545M511 -17V17M511 -17H545M511 17V51M511 17H545M511 51V85M511 51H545M511 85V119M511 85H545M511 119V153M511 119H545M511 153V187M511 153H545M511 187V221M511 187H545M511 221V255M511 221H545M511 255V289M511 255H545M511 289V323M511 289H545M511 323V357M511 323H545M511 357V391M511 357H545M511 391V425M511 391H545M511 425V459M511 425H545M511 459V493M511 459H545M511 493V527M511 493H545M511 527V561M511 527H545M511 561V595M511 561H545M511 595H545M545 -51V-17M545 -51H579M545 -17V17M545 -17H579M545 17V51M545 17H579M545 51V85M545 51H579M545 85V119M545 85H579M545 119V153M545 119H579M545 153V187M545 153H579M545 187V221M545 187H579M545 221V255M545 221H579M545 255V289M545 255H579M545 289V323M545 289H579M545 323V357M545 323H579M545 357V391M545 357H579M545 391V425M545 391H579M545 425V459M545 425H579M545 459V493M545 459H579M545 493V527M545 493H579M545 527V561M545 527H579M545 561V595M545 561H579M545 595H579M579 -51V-17M579 -51H613M579 -17V17M579 -17H613M579 17V51M579 17H613M579 51V85M579 51H613M579 85V119M579 85H613M579 119V153M579 119H613M579 153V187M579 153H613M579 187V221M579 187H613M579 221V255M579 221H613M579 255V289M579 255H613M579 289V323M579 289H613M579 323V357M579 323H613M579 357V391M579 357H613M579 391V425M579 391H613M579 425V459M579 425H613M579 459V493M579 459H613M579 493V527M579 493H613M579 527V561M579 527H613M579 561V595M579 561H613M579 595H613M613 -51V-17M613 -51H647M613 -17V17M613 -17H647M613 17V51M613 17H647M613 51V85M613 51H647M613 85V119M613 85H647M613 119V153M613 119H647M613 153V187M613 153H647M613 187V221M613 187H647M613 221V255M613 221H647M613 255V289M613 255H647M613 289V323M613 289H647M613 323V357M613 323H647M613 357V391M613 357H647M613 391V425M613 391H647M613 425V459M613 425H647M613 459V493M613 459H647M613 493V527M613 493H647M613 527V561M613 527H647M613 561V595M613 561H647M613 595H647M647 -51V-17M647 -51H681M647 -17V17M647 -17H681M647 17V51M647 17H681M647 51V85M647 51H681M647 85V119M647 85H681M647 119V153M647 119H681M647 153V187M647 153H681M647 187V221M647 187H681M647 221V255M647 221H681M647 255V289M647 255H681M647 289V323M647 289H681M647 323V357M647 323H681M647 357V391M647 357H681M647 391V425M647 391H681M647 425V459M647 425H681M647 459V493M647 459H681M647 493V527M647 493H681M647 527V561M647 527H681M647 561V595M647 561H681M647 595H681M681 -51V-17M681 -51H715M681 -17V17M681 -17H715M681 17V51M681 17H715M681 51V85M681 51H715M681 85V119M681 85H715M681 119V153M681 119H715M681 153V187M681 153H715M681 187V221M681 187H715M681 221V255M681 221H715M681 255V289M681 255H715M681 289V323M681 289H715M681 323V357M681 323H715M681 357V391M681 357H715M681 391V425M681 391H715M681 425V459M681 425H715M681 459V493M681 459H715M681 493V527M681 493H715M681 527V561M681 527H715M681 561V595M681 561H715M681 595H715M715 -51V-17M715 -51H749M715 -17V17M715 -17H749M715 17V51M715 17H749M715 51V85M715 51H749M715 85V119M715 85H749M715 119V153M715 119H749M715 153V187M715 153H749M715 187V221M715 187H749M715 221V255M715 221H749M715 255V289M715 255H749M715 289V323M715 289H749M715 323V357M715 323H749M715 357V391M715 357H749M715 391V425M715 391H749M715 425V459M715 425H749M715 459V493M715 459H749M715 493V527M715 493H749M715 527V561M715 527H749M715 561V595M715 561H749M715 595H749M749 -51V-17M749 -51H783M749 -17V17M749 -17H783M749 17V51M749 17H783M749 51V85M749 51H783M749 85V119M749 85H783M749 119V153M749 119H783M749 153V187M749 153H783M749 187V221M749 187H783M749 221V255M749 221H783M749 255V289M749 255H783M749 289V323M749 289H783M749 323V357M749 323H783M749 357V391M749 357H783M749 391V425M749 391H783M749 425V459M749 425H783M749 459V493M749 459H783M749 493V527M749 493H783M749 527V561M749 527H783M749 561V595M749 561H783M749 595H783M783 -51V-17M783 -51H817M783 -17V17M783 -17H817M783 17V51M783 17H817M783 51V85M783 51H817M783 85V119M783 85H817M783 119V153M783 119H817M783 153V187M783 153H817M783 187V221M783 187H817M783 221V255M783 221H817M783 255V289M783 255H817M783 289V323M783 289H817M783 323V357M783 323H817M783 357V391M783 357H817M783 391V425M783 391H817M783 425V459M783 425H817M783 459V493M783 459H817M783 493V527M783 493H817M783 527V561M783 527H817M783 561V595M783 561H817M783 595H817M817 -51V-17M817 -51H851M817 -17V17M817 -17H851M817 17V51M817 17H851M817 51V85M817 51H851M817 85V119M817 85H851M817 119V153M817 119H851M817 153V187M817 153H851M817 187V221M817 187H851M817 221V255M817 221H851M817 255V289M817 255H851M817 289V323M817 289H851M817 323V357M817 323H851M817 357V391M817 357H851M817 391V425M817 391H851M817 425V459M817 425H851M817 459V493M817 459H851M817 493V527M817 493H851M817 527V561M817 527H851M817 561V595M817 561H851M817 595H851M851 -51V-17M851 -51H885M851 -17V17M851 -17H885M851 17V51M851 17H885M851 51V85M851 51H885M851 85V119M851 85H885M851 119V153M851 119H885M851 153V187M851 153H885M851 187V221M851 187H885M851 221V255M851 221H885M851 255V289M851 255H885M851 289V323M851 289H885M851 323V357M851 323H885M851 357V391M851 357H885M851 391V425M851 391H885M851 425V459M851 425H885M851 459V493M851 459H885M851 493V527M851 493H885M851 527V561M851 527H885M851 561V595M851 561H885M851 595H885M885 -51V-17M885 -51H919M885 -17V17M885 -17H919M885 17V51M885 17H919M885 51V85M885 51H919M885 85V119M885 85H919M885 119V153M885 119H919M885 153V187M885 153H919M885 187V221M885 187H919M885 221V255M885 221H919M885 255V289M885 255H919M885 289V323M885 289H919M885 323V357M885 323H919M885 357V391M885 357H919M885 391V425M885 391H919M885 425V459M885 425H919M885 459V493M885 459H919M885 493V527M885 493H919M885 527V561M885 527H919M885 561V595M885 561H919M885 595H919M919 -51V-17M919 -51H953M919 -17V17M919 -17H953M919 17V51M919 17H953M919 51V85M919 51H953M919 85V119M919 85H953M919 119V153M919 119H953M919 153V187M919 153H953M919 187V221M919 187H953M919 221V255M919 221H953M919 255V289M919 255H953M919 289V323M919 289H953M919 323V357M919 323H953M919 357V391M919 357H953M919 391V425M919 391H953M919 425V459M919 425H953M919 459V493M919 459H953M919 493V527M919 493H953M919 527V561M919 527H953M919 561V595M919 561H953M919 595H953M953 -51V-17M953 -51H987M953 -17V17M953 -17H987M953 17V51M953 17H987M953 51V85M953 51H987M953 85V119M953 85H987M953 119V153M953 119H987M953 153V187M953 153H987M953 187V221M953 187H987M953 221V255M953 221H987M953 255V289M953 255H987M953 289V323M953 289H987M953 323V357M953 323H987M953 357V391M953 357H987M953 391V425M953 391H987M953 425V459M953 425H987M953 459V493M953 459H987M953 493V527M953 493H987M953 527V561M953 527H987M953 561V595M953 561H987M953 595H987M987 -51V-17M987 -51H1021M987 -17V17M987 -17H1021M987 17V51M987 17H1021M987 51V85M987 51H1021M987 85V119M987 85H1021M987 119V153M987 119H1021M987 153V187M987 153H1021M987 187V221M987 187H1021M987 221V255M987 221H1021M987 255V289M987 255H1021M987 289V323M987 289H1021M987 323V357M987 323H1021M987 357V391M987 357H1021M987 391V425M987 391H1021M987 425V459M987 425H1021M987 459V493M987 459H1021M987 493V527M987 493H1021M987 527V561M987 527H1021M987 561V595M987 561H1021M987 595H1021M1021 -51V-17M1021 -51H1055M1021 -17V17M1021 -17H1055M1021 17V51M1021 17H1055M1021 51V85M1021 51H1055M1021 85V119M1021 85H1055M1021 119V153M1021 119H1055M1021 153V187M1021 153H1055M1021 187V221M1021 187H1055M1021 221V255M1021 221H1055M1021 255V289M1021 255H1055M1021 289V323M1021 289H1055M1021 323V357M1021 323H1055M1021 357V391M1021 357H1055M1021 391V425M1021 391H1055M1021 425V459M1021 425H1055M1021 459V493M1021 459H1055M1021 493V527M1021 493H1055M1021 527V561M1021 527H1055M1021 561V595M1021 561H1055M1021 595H1055M1055 -51V-17M1055 -51H1089M1055 -17V17M1055 -17H1089M1055 17V51M1055 17H1089M1055 51V85M1055 51H1089M1055 85V119M1055 85H1089M1055 119V153M1055 119H1089M1055 153V187M1055 153H1089M1055 187V221M1055 187H1089M1055 221V255M1055 221H1089M1055 255V289M1055 255H1089M1055 289V323M1055 289H1089M1055 323V357M1055 323H1089M1055 357V391M1055 357H1089M1055 391V425M1055 391H1089M1055 425V459M1055 425H1089M1055 459V493M1055 459H1089M1055 493V527M1055 493H1089M1055 527V561M1055 527H1089M1055 561V595M1055 561H1089M1055 595H1089M1089 -51V-17M1089 -51H1123M1089 -17V17M1089 -17H1123M1089 17V51M1089 17H1123M1089 51V85M1089 51H1123M1089 85V119M1089 85H1123M1089 119V153M1089 119H1123M1089 153V187M1089 153H1123M1089 187V221M1089 187H1123M1089 221V255M1089 221H1123M1089 255V289M1089 255H1123M1089 289V323M1089 289H1123M1089 323V357M1089 323H1123M1089 357V391M1089 357H1123M1089 391V425M1089 391H1123M1089 425V459M1089 425H1123M1089 459V493M1089 459H1123M1089 493V527M1089 493H1123M1089 527V561M1089 527H1123M1089 561V595M1089 561H1123M1089 595H1123M1123 -51V-17M1123 -51H1157M1123 -17V17M1123 -17H1157M1123 17V51M1123 17H1157M1123 51V85M1123 51H1157M1123 85V119M1123 85H1157M1123 119V153M1123 119H1157M1123 153V187M1123 153H1157M1123 187V221M1123 187H1157M1123 221V255M1123 221H1157M1123 255V289M1123 255H1157M1123 289V323M1123 289H1157M1123 323V357M1123 323H1157M1123 357V391M1123 357H1157M1123 391V425M1123 391H1157M1123 425V459M1123 425H1157M1123 459V493M1123 459H1157M1123 493V527M1123 493H1157M1123 527V561M1123 527H1157M1123 561V595M1123 561H1157M1123 595H1157M1157 -51V-17M1157 -51H1191M1157 -17V17M1157 -17H1191M1157 17V51M1157 17H1191M1157 51V85M1157 51H1191M1157 85V119M1157 85H1191M1157 119V153M1157 119H1191M1157 153V187M1157 153H1191M1157 187V221M1157 187H1191M1157 221V255M1157 221H1191M1157 255V289M1157 255H1191M1157 289V323M1157 289H1191M1157 323V357M1157 323H1191M1157 357V391M1157 357H1191M1157 391V425M1157 391H1191M1157 425V459M1157 425H1191M1157 459V493M1157 459H1191M1157 493V527M1157 493H1191M1157 527V561M1157 527H1191M1157 561V595M1157 561H1191M1157 595H1191M1191 -51V-17M1191 -51H1225M1191 -17V17M1191 -17H1225M1191 17V51M1191 17H1225M1191 51V85M1191 51H1225M1191 85V119M1191 85H1225M1191 119V153M1191 119H1225M1191 153V187M1191 153H1225M1191 187V221M1191 187H1225M1191 221V255M1191 221H1225M1191 255V289M1191 255H1225M1191 289V323M1191 289H1225M1191 323V357M1191 323H1225M1191 357V391M1191 357H1225M1191 391V425M1191 391H1225M1191 425V459M1191 425H1225M1191 459V493M1191 459H1225M1191 493V527M1191 493H1225M1191 527V561M1191 527H1225M1191 561V595M1191 561H1225M1191 595H1225M1225 -51V-17M1225 -51H1259M1225 -17V17M1225 -17H1259M1225 17V51M1225 17H1259M1225 51V85M1225 51H1259M1225 85V119M1225 85H1259M1225 119V153M1225 119H1259M1225 153V187M1225 153H1259M1225 187V221M1225 187H1259M1225 221V255M1225 221H1259M1225 255V289M1225 255H1259M1225 289V323M1225 289H1259M1225 323V357M1225 323H1259M1225 357V391M1225 357H1259M1225 391V425M1225 391H1259M1225 425V459M1225 425H1259M1225 459V493M1225 459H1259M1225 493V527M1225 493H1259M1225 527V561M1225 527H1259M1225 561V595M1225 561H1259M1225 595H1259M1259 -51V-17M1259 -51H1293M1259 -17V17M1259 -17H1293M1259 17V51M1259 17H1293M1259 51V85M1259 51H1293M1259 85V119M1259 85H1293M1259 119V153M1259 119H1293M1259 153V187M1259 153H1293M1259 187V221M1259 187H1293M1259 221V255M1259 221H1293M1259 255V289M1259 255H1293M1259 289V323M1259 289H1293M1259 323V357M1259 323H1293M1259 357V391M1259 357H1293M1259 391V425M1259 391H1293M1259 425V459M1259 425H1293M1259 459V493M1259 459H1293M1259 493V527M1259 493H1293M1259 527V561M1259 527H1293M1259 561V595M1259 561H1293M1259 595H1293M1293 -51V-17M1293 -51H1327M1293 -17V17M1293 -17H1327M1293 17V51M1293 17H1327M1293 51V85M1293 51H1327M1293 85V119M1293 85H1327M1293 119V153M1293 119H1327M1293 153V187M1293 153H1327M1293 187V221M1293 187H1327M1293 221V255M1293 221H1327M1293 255V289M1293 255H1327M1293 289V323M1293 289H1327M1293 323V357M1293 323H1327M1293 357V391M1293 357H1327M1293 391V425M1293 391H1327M1293 425V459M1293 425H1327M1293 459V493M1293 459H1327M1293 493V527M1293 493H1327M1293 527V561M1293 527H1327M1293 561V595M1293 561H1327M1293 595H1327M1327 -51V-17M1327 -51H1361M1327 -17V17M1327 -17H1361M1327 17V51M1327 17H1361M1327 51V85M1327 51H1361M1327 85V119M1327 85H1361M1327 119V153M1327 119H1361M1327 153V187M1327 153H1361M1327 187V221M1327 187H1361M1327 221V255M1327 221H1361M1327 255V289M1327 255H1361M1327 289V323M1327 289H1361M1327 323V357M1327 323H1361M1327 357V391M1327 357H1361M1327 391V425M1327 391H1361M1327 425V459M1327 425H1361M1327 459V493M1327 459H1361M1327 493V527M1327 493H1361M1327 527V561M1327 527H1361M1327 561V595M1327 561H1361M1327 595H1361M1361 -51V-17M1361 -51H1395M1361 -17V17M1361 -17H1395M1361 17V51M1361 17H1395M1361 51V85M1361 51H1395M1361 85V119M1361 85H1395M1361 119V153M1361 119H1395M1361 153V187M1361 153H1395M1361 187V221M1361 187H1395M1361 221V255M1361 221H1395M1361 255V289M1361 255H1395M1361 289V323M1361 289H1395M1361 323V357M1361 323H1395M1361 357V391M1361 357H1395M1361 391V425M1361 391H1395M1361 425V459M1361 425H1395M1361 459V493M1361 459H1395M1361 493V527M1361 493H1395M1361 527V561M1361 527H1395M1361 561V595M1361 561H1395M1361 595H1395M1395 -51V-17M1395 -51H1429M1395 -17V17M1395 -17H1429M1395 17V51M1395 17H1429M1395 51V85M1395 51H1429M1395 85V119M1395 85H1429M1395 119V153M1395 119H1429M1395 153V187M1395 153H1429M1395 187V221M1395 187H1429M1395 221V255M1395 221H1429M1395 255V289M1395 255H1429M1395 289V323M1395 289H1429M1395 323V357M1395 323H1429M1395 357V391M1395 357H1429M1395 391V425M1395 391H1429M1395 425V459M1395 425H1429M1395 459V493M1395 459H1429M1395 493V527M1395 493H1429M1395 527V561M1395 527H1429M1395 561V595M1395 561H1429M1395 595H1429M1429 -51V-17M1429 -51H1463M1429 -17V17M1429 -17H1463M1429 17V51M1429 17H1463M1429 51V85M1429 51H1463M1429 85V119M1429 85H1463M1429 119V153M1429 119H1463M1429 153V187M1429 153H1463M1429 187V221M1429 187H1463M1429 221V255M1429 221H1463M1429 255V289M1429 255H1463M1429 289V323M1429 289H1463M1429 323V357M1429 323H1463M1429 357V391M1429 357H1463M1429 391V425M1429 391H1463M1429 425V459M1429 425H1463M1429 459V493M1429 459H1463M1429 493V527M1429 493H1463M1429 527V561M1429 527H1463M1429 561V595M1429 561H1463M1429 595H1463M1463 -51V-17M1463 -51H1497V-17M1463 -17V17M1463 -17H1497M1463 17V51M1463 17H1497M1463 51V85M1463 51H1497M1463 85V119M1463 85H1497M1463 119V153M1463 119H1497M1463 153V187M1463 153H1497M1463 187V221M1463 187H1497M1463 221V255M1463 221H1497M1463 255V289M1463 255H1497M1463 289V323M1463 289H1497M1463 323V357M1463 323H1497M1463 357V391M1463 357H1497M1463 391V425M1463 391H1497M1463 425V459M1463 425H1497M1463 459V493M1463 459H1497M1463 493V527M1463 493H1497M1463 527V561M1463 527H1497M1463 561V595M1463 561H1497M1463 595H1497V561M1497 -17V17M1497 17V51M1497 51V85M1497 85V119M1497 119V153M1497 153V187M1497 187V221M1497 221V255M1497 255V289M1497 289V323M1497 323V357M1497 357V391M1497 391V425M1497 425V459M1497 459V493M1497 493V527M1497 527V561" stroke="url(#paint0_radial_373_2052)" stroke-opacity="0.5"/>
</g>
<defs>
<radialGradient id="paint0_radial_373_2052" cx="0" cy="0" r="1" gradientUnits="userSpaceOnUse" gradientTransform="translate(1 126) rotate(-6.9551) scale(648.27 1212.29)">
<stop stop-color="white" stop-opacity="0"/>
<stop offset="1" stop-color="white" stop-opacity="0.7"/>
</radialGradient>
</defs>
</svg>
