<svg width="99" height="42" viewBox="0 0 99 42" fill="none" xmlns="http://www.w3.org/2000/svg">
<path d="M11.1006 8.40003C11.0192 8.36563 10.9785 8.34843 10.9374 8.34849C10.8963 8.34854 10.8548 8.36623 10.7718 8.4016C0.248508 12.8838 9.34317 8.95498 0.153511 12.9248C0.153511 12.9248 -0.071282 13.2506 0.0231765 14.8796C0.477966 22.7226 3.15084 28.0743 9.24323 32.3749C9.24323 32.3749 9.65783 32.7204 10.4483 33.1209C10.6766 33.2365 10.7907 33.2944 10.9371 33.2936C11.0834 33.2929 11.197 33.2339 11.4243 33.1159C12.161 32.7334 12.6315 32.3749 12.6315 32.3749C18.4959 27.716 21.6574 23.2851 21.9819 14.847C22.0145 13.9999 22.0145 13.218 21.8842 12.9574C19.1277 11.887 21.8566 12.9467 11.1006 8.40003Z" fill="white"/>
<path d="M11.0809 10.4084C11.0127 10.3795 10.9786 10.3651 10.9442 10.3652C10.9098 10.3652 10.875 10.38 10.8054 10.4097C1.99039 14.1643 9.60874 10.8732 1.91082 14.1986C1.91082 14.1986 1.72252 14.4715 1.80164 15.8361C2.18261 22.406 4.4216 26.889 9.52503 30.4914C9.52503 30.4914 9.87232 30.7808 10.5345 31.1163C10.7257 31.2132 10.8213 31.2617 10.9439 31.2611C11.0665 31.2605 11.1617 31.211 11.352 31.1122C11.9691 30.7918 12.3633 30.4914 12.3633 30.4914C17.2757 26.5888 19.924 22.8772 20.1959 15.8088C20.2232 15.0992 20.2232 14.4443 20.114 14.2259C17.805 13.3293 20.0909 14.217 11.0809 10.4084Z" fill="#0F0F10"/>
<path d="M11.0113 12.0934C10.9541 12.0692 10.9255 12.0571 10.8967 12.0572C10.8678 12.0572 10.8387 12.0696 10.7804 12.0945C3.39034 15.2421 9.77712 12.4831 3.32362 15.2709C3.32362 15.2709 3.16576 15.4997 3.2321 16.6437C3.55147 22.1515 5.42852 25.9098 9.70694 28.9298C9.70694 28.9298 9.99809 29.1725 10.5532 29.4537C10.7135 29.5349 10.7937 29.5756 10.8965 29.575C10.9992 29.5745 11.079 29.5331 11.2386 29.4503C11.7559 29.1816 12.0864 28.9298 12.0864 28.9298C16.2047 25.6581 18.4248 22.5465 18.6527 16.6208C18.6756 16.0259 18.6756 15.4768 18.5841 15.2938C16.6484 14.5421 18.5647 15.2863 11.0113 12.0934Z" fill="white"/>
<path d="M14.1632 18.1045L9.77719 22.3602L7.84277 20.4258" stroke="#0F0F10" stroke-width="1.56383" stroke-linecap="round" stroke-linejoin="round"/>
<path d="M39.488 26.0338C38.848 26.0338 38.24 25.9698 37.664 25.8418C37.088 25.7138 36.576 25.5111 36.128 25.2338C35.6907 24.9458 35.344 24.5885 35.088 24.1618C34.8427 23.7245 34.72 23.1965 34.72 22.5778C34.72 22.5245 34.72 22.4711 34.72 22.4178C34.72 22.3538 34.7253 22.3058 34.736 22.2738H37.104C37.0933 22.3058 37.088 22.3485 37.088 22.4018C37.088 22.4551 37.088 22.5031 37.088 22.5458C37.088 22.8871 37.1787 23.1751 37.36 23.4098C37.552 23.6445 37.8293 23.8205 38.192 23.9378C38.5547 24.0551 38.976 24.1138 39.456 24.1138C39.7653 24.1138 40.0373 24.0978 40.272 24.0658C40.5173 24.0231 40.7307 23.9698 40.912 23.9058C41.104 23.8311 41.2587 23.7458 41.376 23.6498C41.504 23.5538 41.5947 23.4418 41.648 23.3138C41.712 23.1858 41.744 23.0418 41.744 22.8818C41.744 22.5938 41.648 22.3591 41.456 22.1778C41.2747 21.9965 41.0187 21.8418 40.688 21.7138C40.368 21.5858 40.0053 21.4685 39.6 21.3618C39.1947 21.2551 38.7787 21.1485 38.352 21.0418C37.9253 20.9245 37.5093 20.7858 37.104 20.6258C36.6987 20.4551 36.336 20.2525 36.016 20.0178C35.696 19.7831 35.44 19.4845 35.248 19.1218C35.056 18.7591 34.96 18.3218 34.96 17.8098C34.96 17.2658 35.072 16.7965 35.296 16.4018C35.5307 16.0071 35.856 15.6818 36.272 15.4258C36.688 15.1698 37.168 14.9831 37.712 14.8658C38.256 14.7378 38.848 14.6738 39.488 14.6738C40.0853 14.6738 40.6507 14.7378 41.184 14.8658C41.7173 14.9831 42.1867 15.1751 42.592 15.4418C42.9973 15.7085 43.312 16.0445 43.536 16.4498C43.7707 16.8551 43.888 17.3351 43.888 17.8898V18.0818H41.568V17.9538C41.568 17.6658 41.4827 17.4205 41.312 17.2178C41.1413 17.0151 40.9013 16.8551 40.592 16.7378C40.2827 16.6205 39.92 16.5618 39.504 16.5618C39.056 16.5618 38.672 16.6045 38.352 16.6898C38.0427 16.7751 37.8027 16.9031 37.632 17.0738C37.472 17.2338 37.392 17.4258 37.392 17.6498C37.392 17.9058 37.4827 18.1191 37.664 18.2898C37.856 18.4498 38.112 18.5938 38.432 18.7218C38.7627 18.8391 39.1307 18.9458 39.536 19.0418C39.9413 19.1378 40.3573 19.2445 40.784 19.3618C41.2107 19.4791 41.6267 19.6178 42.032 19.7778C42.4373 19.9378 42.8 20.1405 43.12 20.3858C43.44 20.6205 43.696 20.9138 43.888 21.2658C44.08 21.6178 44.176 22.0391 44.176 22.5298C44.176 23.3725 43.9733 24.0498 43.568 24.5618C43.1627 25.0738 42.608 25.4471 41.904 25.6818C41.2 25.9165 40.3947 26.0338 39.488 26.0338ZM44.9554 25.8418L49.1794 14.8658H52.1234L56.3474 25.8418H53.7714L52.9874 23.6818H48.2034L47.4194 25.8418H44.9554ZM48.8914 21.7618H52.2994L51.3234 19.0578C51.2807 18.9405 51.2274 18.8018 51.1634 18.6418C51.11 18.4711 51.0514 18.2845 50.9874 18.0818C50.9234 17.8791 50.8594 17.6818 50.7954 17.4898C50.742 17.2871 50.6887 17.1058 50.6354 16.9458H50.5394C50.486 17.1485 50.4167 17.3885 50.3314 17.6658C50.246 17.9325 50.1607 18.1938 50.0754 18.4498C49.99 18.6951 49.9207 18.8978 49.8674 19.0578L48.8914 21.7618ZM57.6535 25.8418V14.8658H65.7495V16.8178H60.0375V19.5378H65.1415V21.4738H60.0375V25.8418H57.6535ZM67.6066 25.8418V14.8658H76.3746V16.8178H70.0066V19.2658H75.6386V21.2018H70.0066V23.8738H76.4706V25.8418H67.6066ZM81.2325 25.8418V16.8658H77.7125V14.8658H87.1685V16.8658H83.6325V25.8418H81.2325ZM91.65 25.8418V21.4258L87.394 14.8658H90.162L92.882 19.2818H92.962L95.666 14.8658H98.274L94.05 21.4258V25.8418H91.65Z" fill="white"/>
</svg>
