<svg width="27" height="27" viewBox="0 0 27 27" fill="none" xmlns="http://www.w3.org/2000/svg">
<path d="M19.451 4.65736L19.3723 8.9211C19.361 9.5061 19.7323 10.2824 20.2048 10.6311L22.9948 12.7461C24.7836 14.0961 24.4911 15.7499 22.3536 16.4249L18.7198 17.5611C18.1123 17.7524 17.4711 18.4161 17.3136 19.0349L16.4473 22.3424C15.7611 24.9524 14.051 25.2111 12.6335 22.9161L10.6535 19.7099C10.2935 19.1249 9.43854 18.6861 8.76354 18.7199L5.00607 18.9111C2.31732 19.0461 1.55231 17.4936 3.30731 15.4461L5.53479 12.8586C5.95104 12.3749 6.14229 11.4749 5.95104 10.8674L4.81484 7.2336C4.15109 5.0961 5.34358 3.91487 7.46983 4.61237L10.7886 5.70362C11.3511 5.88362 12.1948 5.75986 12.6673 5.41111L16.1323 2.9136C17.9998 1.5636 19.496 2.35111 19.451 4.65736Z" fill="#292D32"/>
<path d="M19.451 4.65736L19.3723 8.9211C19.361 9.5061 19.7323 10.2824 20.2048 10.6311L22.9948 12.7461C24.7836 14.0961 24.4911 15.7499 22.3536 16.4249L18.7198 17.5611C18.1123 17.7524 17.4711 18.4161 17.3136 19.0349L16.4473 22.3424C15.7611 24.9524 14.051 25.2111 12.6335 22.9161L10.6535 19.7099C10.2935 19.1249 9.43854 18.6861 8.76354 18.7199L5.00607 18.9111C2.31732 19.0461 1.55231 17.4936 3.30731 15.4461L5.53479 12.8586C5.95104 12.3749 6.14229 11.4749 5.95104 10.8674L4.81484 7.2336C4.15109 5.0961 5.34358 3.91487 7.46983 4.61237L10.7886 5.70362C11.3511 5.88362 12.1948 5.75986 12.6673 5.41111L16.1323 2.9136C17.9998 1.5636 19.496 2.35111 19.451 4.65736Z" fill="url(#paint0_linear_1305_1613)" fill-opacity="0.7"/>
<g opacity="0.4">
<path d="M24.1199 23.0287L20.7111 19.6199C20.3849 19.2937 19.8449 19.2937 19.5186 19.6199C19.1924 19.9462 19.1924 20.4862 19.5186 20.8124L22.9274 24.2212C23.0961 24.3899 23.3099 24.4687 23.5236 24.4687C23.7374 24.4687 23.9511 24.3899 24.1199 24.2212C24.4461 23.8949 24.4461 23.3549 24.1199 23.0287Z" fill="#292D32"/>
<path d="M24.1199 23.0287L20.7111 19.6199C20.3849 19.2937 19.8449 19.2937 19.5186 19.6199C19.1924 19.9462 19.1924 20.4862 19.5186 20.8124L22.9274 24.2212C23.0961 24.3899 23.3099 24.4687 23.5236 24.4687C23.7374 24.4687 23.9511 24.3899 24.1199 24.2212C24.4461 23.8949 24.4461 23.3549 24.1199 23.0287Z" fill="url(#paint1_linear_1305_1613)" fill-opacity="0.7"/>
</g>
<defs>
<linearGradient id="paint0_linear_1305_1613" x1="13.2655" y1="2.25317" x2="13.2655" y2="24.4818" gradientUnits="userSpaceOnUse">
<stop stop-color="#3C63C6"/>
<stop offset="1" stop-color="#172C62"/>
</linearGradient>
<linearGradient id="paint1_linear_1305_1613" x1="21.8193" y1="19.3752" x2="21.8193" y2="24.4687" gradientUnits="userSpaceOnUse">
<stop stop-color="#3C63C6"/>
<stop offset="1" stop-color="#172C62"/>
</linearGradient>
</defs>
</svg>
