<svg width="29" height="29" viewBox="0 0 29 29" fill="none" xmlns="http://www.w3.org/2000/svg">
<path d="M26.5833 10.2709C26.5833 14.6088 23.0671 18.1251 18.7292 18.1251C18.5237 18.1251 18.3063 18.113 18.1008 18.1009C17.7988 14.2705 14.7296 11.2013 10.8992 10.8993C10.8871 10.6938 10.875 10.4763 10.875 10.2709C10.875 5.933 14.3912 2.41675 18.7292 2.41675C23.0671 2.41675 26.5833 5.933 26.5833 10.2709Z" fill="#292D32"/>
<path d="M26.5833 10.2709C26.5833 14.6088 23.0671 18.1251 18.7292 18.1251C18.5237 18.1251 18.3063 18.113 18.1008 18.1009C17.7988 14.2705 14.7296 11.2013 10.8992 10.8993C10.8871 10.6938 10.875 10.4763 10.875 10.2709C10.875 5.933 14.3912 2.41675 18.7292 2.41675C23.0671 2.41675 26.5833 5.933 26.5833 10.2709Z" fill="url(#paint0_linear_1305_2867)" fill-opacity="0.7"/>
<g opacity="0.4">
<path d="M18.1248 18.7292C18.1248 23.0671 14.6086 26.5833 10.2707 26.5833C5.93275 26.5833 2.4165 23.0671 2.4165 18.7292C2.4165 14.3912 5.93275 10.875 10.2707 10.875C10.4761 10.875 10.6936 10.8871 10.899 10.8992C14.7294 11.2013 17.7986 14.2704 18.1007 18.1008C18.1128 18.3062 18.1248 18.5237 18.1248 18.7292Z" fill="#292D32"/>
<path d="M18.1248 18.7292C18.1248 23.0671 14.6086 26.5833 10.2707 26.5833C5.93275 26.5833 2.4165 23.0671 2.4165 18.7292C2.4165 14.3912 5.93275 10.875 10.2707 10.875C10.4761 10.875 10.6936 10.8871 10.899 10.8992C14.7294 11.2013 17.7986 14.2704 18.1007 18.1008C18.1128 18.3062 18.1248 18.5237 18.1248 18.7292Z" fill="url(#paint1_linear_1305_2867)" fill-opacity="0.7"/>
</g>
<path d="M9.20749 17.6657L10.2708 15.7083L11.3342 17.6657L13.2917 18.7291L11.3342 19.7924L10.2708 21.7499L9.20749 19.7924L7.25 18.7291L9.20749 17.6657Z" fill="#292D32"/>
<path d="M9.20749 17.6657L10.2708 15.7083L11.3342 17.6657L13.2917 18.7291L11.3342 19.7924L10.2708 21.7499L9.20749 19.7924L7.25 18.7291L9.20749 17.6657Z" fill="url(#paint2_linear_1305_2867)" fill-opacity="0.7"/>
<defs>
<linearGradient id="paint0_linear_1305_2867" x1="18.7292" y1="2.41675" x2="18.7292" y2="18.1251" gradientUnits="userSpaceOnUse">
<stop stop-color="#3C63C6"/>
<stop offset="1" stop-color="#172C62"/>
</linearGradient>
<linearGradient id="paint1_linear_1305_2867" x1="10.2707" y1="10.875" x2="10.2707" y2="26.5833" gradientUnits="userSpaceOnUse">
<stop stop-color="#3C63C6"/>
<stop offset="1" stop-color="#172C62"/>
</linearGradient>
<linearGradient id="paint2_linear_1305_2867" x1="10.2708" y1="15.7083" x2="10.2708" y2="21.7499" gradientUnits="userSpaceOnUse">
<stop stop-color="#3C63C6"/>
<stop offset="1" stop-color="#172C62"/>
</linearGradient>
</defs>
</svg>
