<svg width="33" height="33" viewBox="0 0 33 33" fill="none" xmlns="http://www.w3.org/2000/svg">
<path d="M30.2498 15.0836V17.9162C30.2498 18.6724 29.6448 19.2911 28.8748 19.3186H26.1798C24.6948 19.3186 23.3336 18.2324 23.2098 16.7474C23.1273 15.8811 23.4573 15.0699 24.0348 14.5061C24.5435 13.9836 25.2448 13.6812 26.0148 13.6812H28.8748C29.6448 13.7087 30.2498 14.3273 30.2498 15.0836Z" fill="#292D32"/>
<path d="M30.2498 15.0836V17.9162C30.2498 18.6724 29.6448 19.2911 28.8748 19.3186H26.1798C24.6948 19.3186 23.3336 18.2324 23.2098 16.7474C23.1273 15.8811 23.4573 15.0699 24.0348 14.5061C24.5435 13.9836 25.2448 13.6812 26.0148 13.6812H28.8748C29.6448 13.7087 30.2498 14.3273 30.2498 15.0836Z" fill="url(#paint0_linear_1305_1641)" fill-opacity="0.7"/>
<g opacity="0.4">
<path d="M24.035 14.5062C23.4575 15.07 23.1275 15.8812 23.21 16.7475C23.3338 18.2325 24.695 19.3187 26.18 19.3187H28.875V21.3125C28.875 25.4375 26.125 28.1875 22 28.1875H9.625C5.5 28.1875 2.75 25.4375 2.75 21.3125V11.6875C2.75 7.9475 5.005 5.335 8.51125 4.895C8.86875 4.84 9.24 4.8125 9.625 4.8125H22C22.3575 4.8125 22.7013 4.82623 23.0312 4.88123C26.5787 5.29373 28.875 7.92 28.875 11.6875V13.6813H26.015C25.245 13.6813 24.5437 13.9837 24.035 14.5062Z" fill="#292D32"/>
<path d="M24.035 14.5062C23.4575 15.07 23.1275 15.8812 23.21 16.7475C23.3338 18.2325 24.695 19.3187 26.18 19.3187H28.875V21.3125C28.875 25.4375 26.125 28.1875 22 28.1875H9.625C5.5 28.1875 2.75 25.4375 2.75 21.3125V11.6875C2.75 7.9475 5.005 5.335 8.51125 4.895C8.86875 4.84 9.24 4.8125 9.625 4.8125H22C22.3575 4.8125 22.7013 4.82623 23.0312 4.88123C26.5787 5.29373 28.875 7.92 28.875 11.6875V13.6813H26.015C25.245 13.6813 24.5437 13.9837 24.035 14.5062Z" fill="url(#paint1_linear_1305_1641)" fill-opacity="0.7"/>
</g>
<path d="M17.875 13.4062H9.625C9.06125 13.4062 8.59375 12.9387 8.59375 12.375C8.59375 11.8113 9.06125 11.3438 9.625 11.3438H17.875C18.4388 11.3438 18.9063 11.8113 18.9063 12.375C18.9063 12.9387 18.4388 13.4062 17.875 13.4062Z" fill="#292D32"/>
<path d="M17.875 13.4062H9.625C9.06125 13.4062 8.59375 12.9387 8.59375 12.375C8.59375 11.8113 9.06125 11.3438 9.625 11.3438H17.875C18.4388 11.3438 18.9063 11.8113 18.9063 12.375C18.9063 12.9387 18.4388 13.4062 17.875 13.4062Z" fill="url(#paint2_linear_1305_1641)" fill-opacity="0.7"/>
<defs>
<linearGradient id="paint0_linear_1305_1641" x1="26.7235" y1="13.6812" x2="26.7235" y2="19.3186" gradientUnits="userSpaceOnUse">
<stop stop-color="#3C63C6"/>
<stop offset="1" stop-color="#172C62"/>
</linearGradient>
<linearGradient id="paint1_linear_1305_1641" x1="15.8125" y1="4.8125" x2="15.8125" y2="28.1875" gradientUnits="userSpaceOnUse">
<stop stop-color="#3C63C6"/>
<stop offset="1" stop-color="#172C62"/>
</linearGradient>
<linearGradient id="paint2_linear_1305_1641" x1="13.75" y1="11.3438" x2="13.75" y2="13.4062" gradientUnits="userSpaceOnUse">
<stop stop-color="#3C63C6"/>
<stop offset="1" stop-color="#172C62"/>
</linearGradient>
</defs>
</svg>
