<svg width="25" height="24" viewBox="0 0 25 24" fill="none" xmlns="http://www.w3.org/2000/svg">
<path opacity="0.4" d="M14.4627 11.3401C14.8527 9.70008 13.4227 8.27003 11.7827 8.66003C11.0127 8.85003 10.3827 9.48005 10.1927 10.2501C9.80274 11.8901 11.2327 13.32 12.8727 12.93C13.6527 12.74 14.2827 12.1101 14.4627 11.3401Z" stroke="#FFD952" stroke-width="1.5" stroke-linecap="round" stroke-linejoin="round"/>
<path d="M18.343 17.19C20.053 15.59 21.123 13.32 21.123 10.79C21.123 5.92998 17.183 2 12.333 2C7.48296 2 3.54297 5.93998 3.54297 10.79C3.54297 13.33 4.62297 15.62 6.35297 17.22" stroke="#FFD952" stroke-width="1.5" stroke-linecap="round" stroke-linejoin="round"/>
<path opacity="0.4" d="M8.33278 14.55C7.41278 13.57 6.84277 12.25 6.84277 10.79C6.84277 7.76004 9.30278 5.30005 12.3328 5.30005C15.3628 5.30005 17.8228 7.76004 17.8228 10.79C17.8228 12.25 17.2528 13.56 16.3328 14.55" stroke="#FFD952" stroke-width="1.5" stroke-linecap="round" stroke-linejoin="round"/>
<path opacity="0.4" d="M10.6327 16.66L9.19274 18.4501C8.05274 19.8801 9.06274 21.99 10.8927 21.99H13.7627C15.5927 21.99 16.6127 19.8701 15.4627 18.4501L14.0227 16.66C13.1627 15.57 11.5027 15.57 10.6327 16.66Z" stroke="#FFD952" stroke-width="1.5" stroke-linecap="round" stroke-linejoin="round"/>
</svg>
