<svg width="25" height="24" viewBox="0 0 25 24" fill="none" xmlns="http://www.w3.org/2000/svg">
<g opacity="0.4">
<path d="M11.4176 16.8599V18.8899C11.4176 20.6099 9.8176 21.9999 7.8476 21.9999C5.8776 21.9999 4.26758 20.6099 4.26758 18.8899V16.8599C4.26758 18.5799 5.8676 19.7999 7.8476 19.7999C9.8176 19.7999 11.4176 18.5699 11.4176 16.8599Z" stroke="#FFD952" stroke-width="1.5" stroke-linecap="round" stroke-linejoin="round"/>
<path d="M11.4168 14.11C11.4168 14.61 11.2768 15.07 11.0368 15.47C10.4468 16.44 9.23679 17.05 7.83679 17.05C6.43679 17.05 5.22678 16.43 4.63678 15.47C4.39678 15.07 4.25684 14.61 4.25684 14.11C4.25684 13.25 4.65681 12.48 5.29681 11.92C5.94681 11.35 6.83678 11.01 7.82678 11.01C8.81678 11.01 9.70681 11.36 10.3568 11.92C11.0168 12.47 11.4168 13.25 11.4168 14.11Z" stroke="#FFD952" stroke-width="1.5" stroke-linecap="round" stroke-linejoin="round"/>
<path d="M11.4176 14.11V16.86C11.4176 18.58 9.8176 19.8 7.8476 19.8C5.8776 19.8 4.26758 18.57 4.26758 16.86V14.11C4.26758 12.39 5.8676 11 7.8476 11C8.8376 11 9.72762 11.35 10.3776 11.91C11.0176 12.47 11.4176 13.25 11.4176 14.11Z" stroke="#FFD952" stroke-width="1.5" stroke-linecap="round" stroke-linejoin="round"/>
</g>
<path d="M22.6672 10.9699V13.03C22.6672 13.58 22.2272 14.0299 21.6672 14.0499H19.7072C18.6272 14.0499 17.6372 13.2599 17.5472 12.1799C17.4872 11.5499 17.7272 10.9599 18.1472 10.5499C18.5172 10.1699 19.0272 9.94995 19.5872 9.94995H21.6672C22.2272 9.96995 22.6672 10.4199 22.6672 10.9699Z" stroke="#FFD952" stroke-width="1.5" stroke-linecap="round" stroke-linejoin="round"/>
<path d="M2.66699 10.5V8.5C2.66699 5.78 4.30699 3.88 6.85699 3.56C7.11699 3.52 7.38699 3.5 7.66699 3.5H16.667C16.927 3.5 17.177 3.50999 17.417 3.54999C19.997 3.84999 21.667 5.76 21.667 8.5V9.95001H19.587C19.027 9.95001 18.517 10.17 18.147 10.55C17.727 10.96 17.487 11.55 17.547 12.18C17.637 13.26 18.627 14.05 19.707 14.05H21.667V15.5C21.667 18.5 19.667 20.5 16.667 20.5H14.167" stroke="#FFD952" stroke-width="1.5" stroke-linecap="round" stroke-linejoin="round"/>
</svg>
