<svg width="25" height="24" viewBox="0 0 25 24" fill="none" xmlns="http://www.w3.org/2000/svg">
<path d="M2.33301 17.0601H12.333" stroke="#FFD952" stroke-width="1.5" stroke-miterlimit="10" stroke-linecap="round" stroke-linejoin="round"/>
<path d="M4.55298 13.5H10.113C11.893 13.5 12.333 13.94 12.333 15.7V19.81C12.333 21.57 11.893 22.01 10.113 22.01H4.55298C2.77298 22.01 2.33301 21.57 2.33301 19.81V15.7C2.33301 13.94 2.77298 13.5 4.55298 13.5Z" stroke="#FFD952" stroke-width="1.5" stroke-linecap="round" stroke-linejoin="round"/>
<path opacity="0.4" d="M22.333 15C22.333 18.87 19.203 22 15.333 22L16.383 20.25" stroke="#FFD952" stroke-width="1.5" stroke-linecap="round" stroke-linejoin="round"/>
<path opacity="0.4" d="M2.33301 9C2.33301 5.13 5.46301 2 9.33301 2L8.28302 3.75" stroke="#FFD952" stroke-width="1.5" stroke-linecap="round" stroke-linejoin="round"/>
<path d="M18.833 11C21.3183 11 23.333 8.98528 23.333 6.5C23.333 4.01472 21.3183 2 18.833 2C16.3477 2 14.333 4.01472 14.333 6.5C14.333 8.98528 16.3477 11 18.833 11Z" stroke="#FFD952" stroke-width="1.5" stroke-linecap="round" stroke-linejoin="round"/>
</svg>
