<svg width="25" height="24" viewBox="0 0 25 24" fill="none" xmlns="http://www.w3.org/2000/svg">
<path d="M21.4099 11.1198C21.4099 16.0098 17.8599 20.5898 13.0099 21.9298C12.6799 22.0198 12.3198 22.0198 11.9898 21.9298C7.13984 20.5898 3.58984 16.0098 3.58984 11.1198V6.72979C3.58984 5.90979 4.20986 4.97979 4.97986 4.66979L10.5498 2.38982C11.7998 1.87982 13.2098 1.87982 14.4598 2.38982L20.0298 4.66979C20.7898 4.97979 21.4199 5.90979 21.4199 6.72979L21.4099 11.1198Z" stroke="#FFD952" stroke-width="1.5" stroke-linecap="round" stroke-linejoin="round"/>
<g opacity="0.4">
<path d="M12.5 12.5C13.6046 12.5 14.5 11.6046 14.5 10.5C14.5 9.39543 13.6046 8.5 12.5 8.5C11.3954 8.5 10.5 9.39543 10.5 10.5C10.5 11.6046 11.3954 12.5 12.5 12.5Z" stroke="#FFD952" stroke-width="1.5" stroke-miterlimit="10" stroke-linecap="round" stroke-linejoin="round"/>
<path d="M12.5 12.5V15.5" stroke="#FFD952" stroke-width="1.5" stroke-miterlimit="10" stroke-linecap="round" stroke-linejoin="round"/>
</g>
</svg>
