<svg width="479" height="101" viewBox="0 0 479 101" fill="none" xmlns="http://www.w3.org/2000/svg">
<rect y="0.259277" width="478.688" height="100" rx="12" fill="url(#paint0_linear_423_4210)"/>
<path d="M220 13.9C220 12.8507 220.939 12 222.096 12C223.254 12 224.193 12.8507 224.193 13.9V86.1C224.193 87.1493 223.254 88 222.096 88C220.939 88 220 87.1493 220 86.1V13.9Z" fill="url(#paint1_linear_423_4210)"/>
<path d="M228.386 13.9C228.386 12.8507 229.325 12 230.482 12C231.64 12 232.579 12.8507 232.579 13.9V86.1C232.579 87.1493 231.64 88 230.482 88C229.325 88 228.386 87.1493 228.386 86.1V13.9Z" fill="url(#paint2_linear_423_4210)"/>
<path d="M236.772 13.9C236.772 12.8507 237.711 12 238.868 12C240.026 12 240.965 12.8507 240.965 13.9V86.1C240.965 87.1493 240.026 88 238.868 88C237.711 88 236.772 87.1493 236.772 86.1V13.9Z" fill="url(#paint3_linear_423_4210)"/>
<path d="M245.158 13.9C245.158 12.8507 246.097 12 247.254 12C248.412 12 249.351 12.8507 249.351 13.9V86.1C249.351 87.1493 248.412 88 247.254 88C246.097 88 245.158 87.1493 245.158 86.1V13.9Z" fill="url(#paint4_linear_423_4210)"/>
<path d="M253.544 13.9C253.544 12.8507 254.482 12 255.64 12C256.798 12 257.737 12.8507 257.737 13.9V86.1C257.737 87.1493 256.798 88 255.64 88C254.482 88 253.544 87.1493 253.544 86.1V13.9Z" fill="url(#paint5_linear_423_4210)"/>
<path d="M261.93 13.9C261.93 12.8507 262.868 12 264.026 12C265.184 12 266.123 12.8507 266.123 13.9V86.1C266.123 87.1493 265.184 88 264.026 88C262.868 88 261.93 87.1493 261.93 86.1V13.9Z" fill="url(#paint6_linear_423_4210)"/>
<path d="M270.316 13.9C270.316 12.8507 271.254 12 272.412 12C273.57 12 274.509 12.8507 274.509 13.9V86.1C274.509 87.1493 273.57 88 272.412 88C271.254 88 270.316 87.1493 270.316 86.1V13.9Z" fill="url(#paint7_linear_423_4210)"/>
<path d="M278.702 13.9C278.702 12.8507 279.64 12 280.798 12C281.956 12 282.895 12.8507 282.895 13.9V86.1C282.895 87.1493 281.956 88 280.798 88C279.64 88 278.702 87.1493 278.702 86.1V13.9Z" fill="url(#paint8_linear_423_4210)"/>
<path d="M287.088 13.9C287.088 12.8507 288.026 12 289.184 12C290.342 12 291.281 12.8507 291.281 13.9V86.1C291.281 87.1493 290.342 88 289.184 88C288.026 88 287.088 87.1493 287.088 86.1V13.9Z" fill="url(#paint9_linear_423_4210)"/>
<path d="M295.474 13.9C295.474 12.8507 296.412 12 297.57 12C298.728 12 299.667 12.8507 299.667 13.9V86.1C299.667 87.1493 298.728 88 297.57 88C296.412 88 295.474 87.1493 295.474 86.1V13.9Z" fill="url(#paint10_linear_423_4210)"/>
<path d="M303.86 13.9C303.86 12.8507 304.798 12 305.956 12C307.114 12 308.053 12.8507 308.053 13.9V86.1C308.053 87.1493 307.114 88 305.956 88C304.798 88 303.86 87.1493 303.86 86.1V13.9Z" fill="url(#paint11_linear_423_4210)"/>
<path d="M312.246 13.9C312.246 12.8507 313.184 12 314.342 12C315.5 12 316.439 12.8507 316.439 13.9V86.1C316.439 87.1493 315.5 88 314.342 88C313.184 88 312.246 87.1493 312.246 86.1V13.9Z" fill="url(#paint12_linear_423_4210)"/>
<path d="M320.632 13.9C320.632 12.8507 321.57 12 322.728 12C323.886 12 324.825 12.8507 324.825 13.9V86.1C324.825 87.1493 323.886 88 322.728 88C321.57 88 320.632 87.1493 320.632 86.1V13.9Z" fill="url(#paint13_linear_423_4210)"/>
<path d="M329.018 13.9C329.018 12.8507 329.956 12 331.114 12C332.272 12 333.211 12.8507 333.211 13.9V86.1C333.211 87.1493 332.272 88 331.114 88C329.956 88 329.018 87.1493 329.018 86.1V13.9Z" fill="url(#paint14_linear_423_4210)"/>
<path d="M337.404 13.9C337.404 12.8507 338.342 12 339.5 12C340.658 12 341.596 12.8507 341.596 13.9V86.1C341.596 87.1493 340.658 88 339.5 88C338.342 88 337.404 87.1493 337.404 86.1V13.9Z" fill="url(#paint15_linear_423_4210)"/>
<path d="M345.789 13.9C345.789 12.8507 346.728 12 347.886 12C349.044 12 349.982 12.8507 349.982 13.9V86.1C349.982 87.1493 349.044 88 347.886 88C346.728 88 345.789 87.1493 345.789 86.1V13.9Z" fill="url(#paint16_linear_423_4210)"/>
<path d="M354.175 13.9C354.175 12.8507 355.114 12 356.272 12C357.43 12 358.368 12.8507 358.368 13.9V86.1C358.368 87.1493 357.43 88 356.272 88C355.114 88 354.175 87.1493 354.175 86.1V13.9Z" fill="url(#paint17_linear_423_4210)"/>
<path d="M362.561 13.9C362.561 12.8507 363.5 12 364.658 12C365.816 12 366.754 12.8507 366.754 13.9V86.1C366.754 87.1493 365.816 88 364.658 88C363.5 88 362.561 87.1493 362.561 86.1V13.9Z" fill="url(#paint18_linear_423_4210)"/>
<path d="M370.947 13.9C370.947 12.8507 371.886 12 373.044 12C374.202 12 375.14 12.8507 375.14 13.9V86.1C375.14 87.1493 374.202 88 373.044 88C371.886 88 370.947 87.1493 370.947 86.1V13.9Z" fill="url(#paint19_linear_423_4210)"/>
<path d="M379.333 13.9C379.333 12.8507 380.272 12 381.43 12C382.588 12 383.526 12.8507 383.526 13.9V86.1C383.526 87.1493 382.588 88 381.43 88C380.272 88 379.333 87.1493 379.333 86.1V13.9Z" fill="url(#paint20_linear_423_4210)"/>
<path d="M387.719 13.9C387.719 12.8507 388.658 12 389.816 12C390.974 12 391.912 12.8507 391.912 13.9V86.1C391.912 87.1493 390.974 88 389.816 88C388.658 88 387.719 87.1493 387.719 86.1V13.9Z" fill="url(#paint21_linear_423_4210)"/>
<path d="M396.105 13.9C396.105 12.8507 397.044 12 398.202 12C399.36 12 400.298 12.8507 400.298 13.9V86.1C400.298 87.1493 399.36 88 398.202 88C397.044 88 396.105 87.1493 396.105 86.1V13.9Z" fill="url(#paint22_linear_423_4210)"/>
<path d="M404.491 13.9C404.491 12.8507 405.43 12 406.588 12C407.746 12 408.684 12.8507 408.684 13.9V86.1C408.684 87.1493 407.746 88 406.588 88C405.43 88 404.491 87.1493 404.491 86.1V13.9Z" fill="url(#paint23_linear_423_4210)"/>
<path d="M412.877 13.9C412.877 12.8507 413.816 12 414.974 12C416.132 12 417.07 12.8507 417.07 13.9V86.1C417.07 87.1493 416.132 88 414.974 88C413.816 88 412.877 87.1493 412.877 86.1V13.9Z" fill="url(#paint24_linear_423_4210)"/>
<path d="M421.263 13.9C421.263 12.8507 422.202 12 423.36 12C424.518 12 425.456 12.8507 425.456 13.9V86.1C425.456 87.1493 424.518 88 423.36 88C422.202 88 421.263 87.1493 421.263 86.1V13.9Z" fill="url(#paint25_linear_423_4210)"/>
<path d="M429.649 13.9C429.649 12.8507 430.588 12 431.746 12C432.903 12 433.842 12.8507 433.842 13.9V86.1C433.842 87.1493 432.903 88 431.746 88C430.588 88 429.649 87.1493 429.649 86.1V13.9Z" fill="url(#paint26_linear_423_4210)"/>
<path d="M438.035 13.9C438.035 12.8507 438.974 12 440.132 12C441.289 12 442.228 12.8507 442.228 13.9V86.1C442.228 87.1493 441.289 88 440.132 88C438.974 88 438.035 87.1493 438.035 86.1V13.9Z" fill="url(#paint27_linear_423_4210)"/>
<path d="M446.421 13.9C446.421 12.8507 447.36 12 448.518 12C449.675 12 450.614 12.8507 450.614 13.9V86.1C450.614 87.1493 449.675 88 448.518 88C447.36 88 446.421 87.1493 446.421 86.1V13.9Z" fill="url(#paint28_linear_423_4210)"/>
<path d="M454.807 13.9C454.807 12.8507 455.746 12 456.904 12C458.061 12 459 12.8507 459 13.9V86.1C459 87.1493 458.061 88 456.904 88C455.746 88 454.807 87.1493 454.807 86.1V13.9Z" fill="url(#paint29_linear_423_4210)"/>
<defs>
<linearGradient id="paint0_linear_423_4210" x1="-8.04399e-06" y1="100" x2="478.688" y2="100" gradientUnits="userSpaceOnUse">
<stop offset="1" stop-color="#749BFF"/>
</linearGradient>
<linearGradient id="paint1_linear_423_4210" x1="219.739" y1="49.7407" x2="459" y2="49.8176" gradientUnits="userSpaceOnUse">
<stop stop-color="white" stop-opacity="0"/>
<stop offset="1" stop-color="white" stop-opacity="0.5"/>
</linearGradient>
<linearGradient id="paint2_linear_423_4210" x1="219.739" y1="49.7407" x2="459" y2="49.8176" gradientUnits="userSpaceOnUse">
<stop stop-color="white" stop-opacity="0"/>
<stop offset="1" stop-color="white" stop-opacity="0.5"/>
</linearGradient>
<linearGradient id="paint3_linear_423_4210" x1="219.739" y1="49.7407" x2="459" y2="49.8176" gradientUnits="userSpaceOnUse">
<stop stop-color="white" stop-opacity="0"/>
<stop offset="1" stop-color="white" stop-opacity="0.5"/>
</linearGradient>
<linearGradient id="paint4_linear_423_4210" x1="219.739" y1="49.7407" x2="459" y2="49.8176" gradientUnits="userSpaceOnUse">
<stop stop-color="white" stop-opacity="0"/>
<stop offset="1" stop-color="white" stop-opacity="0.5"/>
</linearGradient>
<linearGradient id="paint5_linear_423_4210" x1="219.739" y1="49.7407" x2="459" y2="49.8176" gradientUnits="userSpaceOnUse">
<stop stop-color="white" stop-opacity="0"/>
<stop offset="1" stop-color="white" stop-opacity="0.5"/>
</linearGradient>
<linearGradient id="paint6_linear_423_4210" x1="219.739" y1="49.7407" x2="459" y2="49.8176" gradientUnits="userSpaceOnUse">
<stop stop-color="white" stop-opacity="0"/>
<stop offset="1" stop-color="white" stop-opacity="0.5"/>
</linearGradient>
<linearGradient id="paint7_linear_423_4210" x1="219.739" y1="49.7407" x2="459" y2="49.8176" gradientUnits="userSpaceOnUse">
<stop stop-color="white" stop-opacity="0"/>
<stop offset="1" stop-color="white" stop-opacity="0.5"/>
</linearGradient>
<linearGradient id="paint8_linear_423_4210" x1="219.739" y1="49.7407" x2="459" y2="49.8176" gradientUnits="userSpaceOnUse">
<stop stop-color="white" stop-opacity="0"/>
<stop offset="1" stop-color="white" stop-opacity="0.5"/>
</linearGradient>
<linearGradient id="paint9_linear_423_4210" x1="219.739" y1="49.7407" x2="459" y2="49.8176" gradientUnits="userSpaceOnUse">
<stop stop-color="white" stop-opacity="0"/>
<stop offset="1" stop-color="white" stop-opacity="0.5"/>
</linearGradient>
<linearGradient id="paint10_linear_423_4210" x1="219.739" y1="49.7407" x2="459" y2="49.8176" gradientUnits="userSpaceOnUse">
<stop stop-color="white" stop-opacity="0"/>
<stop offset="1" stop-color="white" stop-opacity="0.5"/>
</linearGradient>
<linearGradient id="paint11_linear_423_4210" x1="219.739" y1="49.7407" x2="459" y2="49.8176" gradientUnits="userSpaceOnUse">
<stop stop-color="white" stop-opacity="0"/>
<stop offset="1" stop-color="white" stop-opacity="0.5"/>
</linearGradient>
<linearGradient id="paint12_linear_423_4210" x1="219.739" y1="49.7407" x2="459" y2="49.8176" gradientUnits="userSpaceOnUse">
<stop stop-color="white" stop-opacity="0"/>
<stop offset="1" stop-color="white" stop-opacity="0.5"/>
</linearGradient>
<linearGradient id="paint13_linear_423_4210" x1="219.739" y1="49.7407" x2="459" y2="49.8176" gradientUnits="userSpaceOnUse">
<stop stop-color="white" stop-opacity="0"/>
<stop offset="1" stop-color="white" stop-opacity="0.5"/>
</linearGradient>
<linearGradient id="paint14_linear_423_4210" x1="219.739" y1="49.7407" x2="459" y2="49.8176" gradientUnits="userSpaceOnUse">
<stop stop-color="white" stop-opacity="0"/>
<stop offset="1" stop-color="white" stop-opacity="0.5"/>
</linearGradient>
<linearGradient id="paint15_linear_423_4210" x1="219.739" y1="49.7407" x2="459" y2="49.8176" gradientUnits="userSpaceOnUse">
<stop stop-color="white" stop-opacity="0"/>
<stop offset="1" stop-color="white" stop-opacity="0.5"/>
</linearGradient>
<linearGradient id="paint16_linear_423_4210" x1="219.739" y1="49.7407" x2="459" y2="49.8176" gradientUnits="userSpaceOnUse">
<stop stop-color="white" stop-opacity="0"/>
<stop offset="1" stop-color="white" stop-opacity="0.5"/>
</linearGradient>
<linearGradient id="paint17_linear_423_4210" x1="219.739" y1="49.7407" x2="459" y2="49.8176" gradientUnits="userSpaceOnUse">
<stop stop-color="white" stop-opacity="0"/>
<stop offset="1" stop-color="white" stop-opacity="0.5"/>
</linearGradient>
<linearGradient id="paint18_linear_423_4210" x1="219.739" y1="49.7407" x2="459" y2="49.8176" gradientUnits="userSpaceOnUse">
<stop stop-color="white" stop-opacity="0"/>
<stop offset="1" stop-color="white" stop-opacity="0.5"/>
</linearGradient>
<linearGradient id="paint19_linear_423_4210" x1="219.739" y1="49.7407" x2="459" y2="49.8176" gradientUnits="userSpaceOnUse">
<stop stop-color="white" stop-opacity="0"/>
<stop offset="1" stop-color="white" stop-opacity="0.5"/>
</linearGradient>
<linearGradient id="paint20_linear_423_4210" x1="219.739" y1="49.7407" x2="459" y2="49.8176" gradientUnits="userSpaceOnUse">
<stop stop-color="white" stop-opacity="0"/>
<stop offset="1" stop-color="white" stop-opacity="0.5"/>
</linearGradient>
<linearGradient id="paint21_linear_423_4210" x1="219.739" y1="49.7407" x2="459" y2="49.8176" gradientUnits="userSpaceOnUse">
<stop stop-color="white" stop-opacity="0"/>
<stop offset="1" stop-color="white" stop-opacity="0.5"/>
</linearGradient>
<linearGradient id="paint22_linear_423_4210" x1="219.739" y1="49.7407" x2="459" y2="49.8176" gradientUnits="userSpaceOnUse">
<stop stop-color="white" stop-opacity="0"/>
<stop offset="1" stop-color="white" stop-opacity="0.5"/>
</linearGradient>
<linearGradient id="paint23_linear_423_4210" x1="219.739" y1="49.7407" x2="459" y2="49.8176" gradientUnits="userSpaceOnUse">
<stop stop-color="white" stop-opacity="0"/>
<stop offset="1" stop-color="white" stop-opacity="0.5"/>
</linearGradient>
<linearGradient id="paint24_linear_423_4210" x1="219.739" y1="49.7407" x2="459" y2="49.8176" gradientUnits="userSpaceOnUse">
<stop stop-color="white" stop-opacity="0"/>
<stop offset="1" stop-color="white" stop-opacity="0.5"/>
</linearGradient>
<linearGradient id="paint25_linear_423_4210" x1="219.739" y1="49.7407" x2="459" y2="49.8176" gradientUnits="userSpaceOnUse">
<stop stop-color="white" stop-opacity="0"/>
<stop offset="1" stop-color="white" stop-opacity="0.5"/>
</linearGradient>
<linearGradient id="paint26_linear_423_4210" x1="219.739" y1="49.7407" x2="459" y2="49.8176" gradientUnits="userSpaceOnUse">
<stop stop-color="white" stop-opacity="0"/>
<stop offset="1" stop-color="white" stop-opacity="0.5"/>
</linearGradient>
<linearGradient id="paint27_linear_423_4210" x1="219.739" y1="49.7407" x2="459" y2="49.8176" gradientUnits="userSpaceOnUse">
<stop stop-color="white" stop-opacity="0"/>
<stop offset="1" stop-color="white" stop-opacity="0.5"/>
</linearGradient>
<linearGradient id="paint28_linear_423_4210" x1="219.739" y1="49.7407" x2="459" y2="49.8176" gradientUnits="userSpaceOnUse">
<stop stop-color="white" stop-opacity="0"/>
<stop offset="1" stop-color="white" stop-opacity="0.5"/>
</linearGradient>
<linearGradient id="paint29_linear_423_4210" x1="219.739" y1="49.7407" x2="459" y2="49.8176" gradientUnits="userSpaceOnUse">
<stop stop-color="white" stop-opacity="0"/>
<stop offset="1" stop-color="white" stop-opacity="0.5"/>
</linearGradient>
</defs>
</svg>
