<svg width="532" height="120" viewBox="0 0 532 120" fill="none" xmlns="http://www.w3.org/2000/svg">
<path opacity="0.13265" d="M502.094 51.8114C514.192 51.8114 524 42.0039 524 29.9057C524 17.8075 514.192 8 502.094 8C489.996 8 480.188 17.8075 480.188 29.9057C480.188 42.0039 489.996 51.8114 502.094 51.8114Z" stroke="#749BFF" stroke-width="14.6038"/>
<path d="M3 117.018C100.574 117.393 337.118 100.495 502.699 29.9067" stroke="#749BFF" stroke-width="4.8397" stroke-linecap="round" stroke-linejoin="round" stroke-dasharray="1.21 1.21"/>
<path d="M502.094 43.2066C509.44 43.2066 515.395 37.2518 515.395 29.9061C515.395 22.5603 509.44 16.6055 502.094 16.6055C494.748 16.6055 488.793 22.5603 488.793 29.9061C488.793 37.2518 494.748 43.2066 502.094 43.2066Z" fill="#749BFF" stroke="#FCFCFB" stroke-width="3.99018"/>
</svg>
