<svg width="648" height="209" viewBox="0 0 648 209" fill="none" xmlns="http://www.w3.org/2000/svg">
<path d="M540.736 459.987C441.196 578.062 264.785 593.087 146.71 493.548C28.6349 394.008 13.6092 217.597 113.149 99.5219C212.689 -18.5529 389.1 -33.5786 507.175 65.961C625.25 165.501 640.275 341.912 540.736 459.987ZM177.287 153.592C107.609 236.244 118.127 359.732 200.779 429.41C283.432 499.088 406.92 488.57 476.598 405.917C546.275 323.265 535.757 199.777 453.105 130.099C370.453 60.4213 246.965 70.9393 177.287 153.592Z" fill="#333333"/>
<mask id="path-2-inside-1_421_3447" fill="white">
<path d="M175.185 44.8901C219.754 16.0925 271.596 0.570321 324.656 0.136557C377.717 -0.2972 429.806 14.3753 474.839 42.4404L430.47 113.635C398.947 93.9891 362.485 83.7183 325.342 84.0219C288.2 84.3256 251.91 95.1911 220.713 115.349L175.185 44.8901Z"/>
</mask>
<path d="M175.185 44.8901C219.754 16.0925 271.596 0.570321 324.656 0.136557C377.717 -0.2972 429.806 14.3753 474.839 42.4404L430.47 113.635C398.947 93.9891 362.485 83.7183 325.342 84.0219C288.2 84.3256 251.91 95.1911 220.713 115.349L175.185 44.8901Z" fill="#749BFF" stroke="black" stroke-width="2.03736" mask="url(#path-2-inside-1_421_3447)"/>
</svg>
