<svg width="1346" height="242" viewBox="0 0 1346 242" fill="none" xmlns="http://www.w3.org/2000/svg">
<path d="M101.654 241.059C88.1154 241.059 75.2538 239.705 63.0691 236.997C50.8845 234.29 40.0537 230.002 30.5767 224.136C21.3254 218.043 13.992 210.484 8.57663 201.459C3.38687 192.207 0.791992 181.038 0.791992 167.951C0.791992 166.823 0.791992 165.694 0.791992 164.566C0.791992 163.212 0.904813 162.197 1.13046 161.52H51.2229C50.9973 162.197 50.8845 163.1 50.8845 164.228C50.8845 165.356 50.8845 166.371 50.8845 167.274C50.8845 174.494 52.8024 180.587 56.6383 185.551C60.6999 190.515 66.5666 194.238 74.2384 196.72C81.9102 199.202 90.8231 200.443 100.977 200.443C107.521 200.443 113.274 200.105 118.239 199.428C123.428 198.525 127.941 197.397 131.777 196.043C135.839 194.464 139.11 192.659 141.592 190.628C144.3 188.597 146.218 186.228 147.346 183.52C148.7 180.812 149.377 177.766 149.377 174.382C149.377 168.289 147.346 163.325 143.285 159.489C139.449 155.653 134.033 152.382 127.039 149.674C120.269 146.966 112.598 144.484 104.023 142.228C95.4487 139.971 86.6487 137.715 77.623 135.458C68.5974 132.976 59.7973 130.043 51.2229 126.658C42.6485 123.048 34.9767 118.761 28.2075 113.797C21.4382 108.833 16.0228 102.515 11.9613 94.8429C7.89971 87.1711 5.86893 77.9197 5.86893 67.0889C5.86893 55.5812 8.23817 45.653 12.9766 37.3042C17.9408 28.9555 24.8228 22.0734 33.6229 16.658C42.4229 11.2426 52.5768 7.29385 64.0845 4.81178C75.5923 2.10409 88.1154 0.750244 101.654 0.750244C114.29 0.750244 126.249 2.10409 137.531 4.81178C148.813 7.29385 158.741 11.3554 167.316 16.9964C175.89 22.6375 182.546 29.7452 187.285 38.3196C192.249 46.894 194.731 57.0479 194.731 68.7812V72.8428H145.654V70.1351C145.654 64.0428 143.849 58.853 140.239 54.5658C136.628 50.2786 131.551 46.894 125.008 44.4119C118.464 41.9299 110.792 40.6888 101.992 40.6888C92.5154 40.6888 84.3923 41.5914 77.623 43.3965C71.0794 45.2017 66.0025 47.9094 62.3922 51.5196C59.0076 54.9043 57.3153 58.9658 57.3153 63.7043C57.3153 69.1197 59.2332 73.6325 63.0691 77.2428C67.1307 80.6274 72.5461 83.6736 79.3153 86.3813C86.3102 88.8634 94.0949 91.1198 102.669 93.1506C111.244 95.1813 120.044 97.4378 129.069 99.9198C138.095 102.402 146.895 105.335 155.469 108.72C164.044 112.104 171.716 116.392 178.485 121.581C185.254 126.546 190.67 132.751 194.731 140.197C198.793 147.643 200.823 156.556 200.823 166.935C200.823 184.761 196.536 199.089 187.962 209.92C179.387 220.751 167.654 228.648 152.762 233.613C137.869 238.577 120.833 241.059 101.654 241.059Z" fill="white" fill-opacity="0.01"/>
<path d="M101.654 241.059C88.1154 241.059 75.2538 239.705 63.0691 236.997C50.8845 234.29 40.0537 230.002 30.5767 224.136C21.3254 218.043 13.992 210.484 8.57663 201.459C3.38687 192.207 0.791992 181.038 0.791992 167.951C0.791992 166.823 0.791992 165.694 0.791992 164.566C0.791992 163.212 0.904813 162.197 1.13046 161.52H51.2229C50.9973 162.197 50.8845 163.1 50.8845 164.228C50.8845 165.356 50.8845 166.371 50.8845 167.274C50.8845 174.494 52.8024 180.587 56.6383 185.551C60.6999 190.515 66.5666 194.238 74.2384 196.72C81.9102 199.202 90.8231 200.443 100.977 200.443C107.521 200.443 113.274 200.105 118.239 199.428C123.428 198.525 127.941 197.397 131.777 196.043C135.839 194.464 139.11 192.659 141.592 190.628C144.3 188.597 146.218 186.228 147.346 183.52C148.7 180.812 149.377 177.766 149.377 174.382C149.377 168.289 147.346 163.325 143.285 159.489C139.449 155.653 134.033 152.382 127.039 149.674C120.269 146.966 112.598 144.484 104.023 142.228C95.4487 139.971 86.6487 137.715 77.623 135.458C68.5974 132.976 59.7973 130.043 51.2229 126.658C42.6485 123.048 34.9767 118.761 28.2075 113.797C21.4382 108.833 16.0228 102.515 11.9613 94.8429C7.89971 87.1711 5.86893 77.9197 5.86893 67.0889C5.86893 55.5812 8.23817 45.653 12.9766 37.3042C17.9408 28.9555 24.8228 22.0734 33.6229 16.658C42.4229 11.2426 52.5768 7.29385 64.0845 4.81178C75.5923 2.10409 88.1154 0.750244 101.654 0.750244C114.29 0.750244 126.249 2.10409 137.531 4.81178C148.813 7.29385 158.741 11.3554 167.316 16.9964C175.89 22.6375 182.546 29.7452 187.285 38.3196C192.249 46.894 194.731 57.0479 194.731 68.7812V72.8428H145.654V70.1351C145.654 64.0428 143.849 58.853 140.239 54.5658C136.628 50.2786 131.551 46.894 125.008 44.4119C118.464 41.9299 110.792 40.6888 101.992 40.6888C92.5154 40.6888 84.3923 41.5914 77.623 43.3965C71.0794 45.2017 66.0025 47.9094 62.3922 51.5196C59.0076 54.9043 57.3153 58.9658 57.3153 63.7043C57.3153 69.1197 59.2332 73.6325 63.0691 77.2428C67.1307 80.6274 72.5461 83.6736 79.3153 86.3813C86.3102 88.8634 94.0949 91.1198 102.669 93.1506C111.244 95.1813 120.044 97.4378 129.069 99.9198C138.095 102.402 146.895 105.335 155.469 108.72C164.044 112.104 171.716 116.392 178.485 121.581C185.254 126.546 190.67 132.751 194.731 140.197C198.793 147.643 200.823 156.556 200.823 166.935C200.823 184.761 196.536 199.089 187.962 209.92C179.387 220.751 167.654 228.648 152.762 233.613C137.869 238.577 120.833 241.059 101.654 241.059Z" fill="url(#paint0_radial_372_5368)" fill-opacity="0.12"/>
<path d="M217.31 236.997L306.664 4.81178H368.942L458.296 236.997H403.803L387.219 191.305H286.018L269.434 236.997H217.31ZM300.572 150.689H372.665L352.018 93.489C351.116 91.007 349.988 88.0736 348.634 84.689C347.506 81.0787 346.265 77.13 344.911 72.8428C343.557 68.5556 342.203 64.3812 340.849 60.3197C339.721 56.0325 338.593 52.1966 337.465 48.8119H335.434C334.306 53.0991 332.839 58.1761 331.034 64.0428C329.229 69.6838 327.423 75.212 325.618 80.6274C323.813 85.8172 322.347 90.1044 321.218 93.489L300.572 150.689Z" fill="white" fill-opacity="0.01"/>
<path d="M217.31 236.997L306.664 4.81178H368.942L458.296 236.997H403.803L387.219 191.305H286.018L269.434 236.997H217.31ZM300.572 150.689H372.665L352.018 93.489C351.116 91.007 349.988 88.0736 348.634 84.689C347.506 81.0787 346.265 77.13 344.911 72.8428C343.557 68.5556 342.203 64.3812 340.849 60.3197C339.721 56.0325 338.593 52.1966 337.465 48.8119H335.434C334.306 53.0991 332.839 58.1761 331.034 64.0428C329.229 69.6838 327.423 75.212 325.618 80.6274C323.813 85.8172 322.347 90.1044 321.218 93.489L300.572 150.689Z" fill="url(#paint1_radial_372_5368)" fill-opacity="0.12"/>
<path d="M485.925 236.997V4.81178H657.188V46.1042H536.356V103.643H644.326V144.597H536.356V236.997H485.925Z" fill="white" fill-opacity="0.01"/>
<path d="M485.925 236.997V4.81178H657.188V46.1042H536.356V103.643H644.326V144.597H536.356V236.997H485.925Z" fill="url(#paint2_radial_372_5368)" fill-opacity="0.12"/>
<path d="M696.473 236.997V4.81178H881.951V46.1042H747.242V97.889H866.381V138.843H747.242V195.366H883.981V236.997H696.473Z" fill="white" fill-opacity="0.01"/>
<path d="M696.473 236.997V4.81178H881.951V46.1042H747.242V97.889H866.381V138.843H747.242V195.366H883.981V236.997H696.473Z" fill="url(#paint3_radial_372_5368)" fill-opacity="0.12"/>
<path d="M984.714 236.997V47.1196H910.252V4.81178H1110.28V47.1196H1035.48V236.997H984.714Z" fill="white" fill-opacity="0.01"/>
<path d="M984.714 236.997V47.1196H910.252V4.81178H1110.28V47.1196H1035.48V236.997H984.714Z" fill="url(#paint4_radial_372_5368)" fill-opacity="0.12"/>
<path d="M1205.08 236.997V143.581L1115.05 4.81178H1173.61L1231.15 98.2275H1232.84L1290.04 4.81178H1345.21L1255.85 143.581V236.997H1205.08Z" fill="white" fill-opacity="0.01"/>
<path d="M1205.08 236.997V143.581L1115.05 4.81178H1173.61L1231.15 98.2275H1232.84L1290.04 4.81178H1345.21L1255.85 143.581V236.997H1205.08Z" fill="url(#paint5_radial_372_5368)" fill-opacity="0.12"/>
<defs>
<radialGradient id="paint0_radial_372_5368" cx="0" cy="0" r="1" gradientUnits="userSpaceOnUse" gradientTransform="translate(673 0.750244) rotate(90) scale(153.664 859.679)">
<stop stop-color="white"/>
<stop offset="1" stop-color="white" stop-opacity="0"/>
</radialGradient>
<radialGradient id="paint1_radial_372_5368" cx="0" cy="0" r="1" gradientUnits="userSpaceOnUse" gradientTransform="translate(673 0.750244) rotate(90) scale(153.664 859.679)">
<stop stop-color="white"/>
<stop offset="1" stop-color="white" stop-opacity="0"/>
</radialGradient>
<radialGradient id="paint2_radial_372_5368" cx="0" cy="0" r="1" gradientUnits="userSpaceOnUse" gradientTransform="translate(673 0.750244) rotate(90) scale(153.664 859.679)">
<stop stop-color="white"/>
<stop offset="1" stop-color="white" stop-opacity="0"/>
</radialGradient>
<radialGradient id="paint3_radial_372_5368" cx="0" cy="0" r="1" gradientUnits="userSpaceOnUse" gradientTransform="translate(673 0.750244) rotate(90) scale(153.664 859.679)">
<stop stop-color="white"/>
<stop offset="1" stop-color="white" stop-opacity="0"/>
</radialGradient>
<radialGradient id="paint4_radial_372_5368" cx="0" cy="0" r="1" gradientUnits="userSpaceOnUse" gradientTransform="translate(673 0.750244) rotate(90) scale(153.664 859.679)">
<stop stop-color="white"/>
<stop offset="1" stop-color="white" stop-opacity="0"/>
</radialGradient>
<radialGradient id="paint5_radial_372_5368" cx="0" cy="0" r="1" gradientUnits="userSpaceOnUse" gradientTransform="translate(673 0.750244) rotate(90) scale(153.664 859.679)">
<stop stop-color="white"/>
<stop offset="1" stop-color="white" stop-opacity="0"/>
</radialGradient>
</defs>
</svg>
