<svg width="1440" height="343" viewBox="0 0 1440 343" fill="none" xmlns="http://www.w3.org/2000/svg">
<path d="M1439.26 3.49914L1427.7 1M1439.26 3.49914H1405.01M1439.26 3.49914L1451.2 6.08082M1439.26 3.49914H1463.51M1427.7 1L1431.9 1.00097L1436.07 1.00639L1440.14 1.0216L1444.09 1.05156L1447.86 1.10019L1451.43 1.17339L1454.74 1.27506L1457.81 1.40472L1460.45 1.58402L1462.85 1.79179L1463.51 1.86457V3.49914M1427.7 1H1394M1394 1H1360.3M1394 1L1405.01 3.49914M1360.3 1H1326.6M1360.3 1L1370.75 3.49914M1326.6 1H1292.9M1326.6 1L1336.51 3.49914M1292.9 1H1259.2M1292.9 1L1302.25 3.49914M1259.2 1H1225.5M1259.2 1L1268 3.49914M1225.5 1H1191.8M1225.5 1L1233.75 3.49914M1191.8 1H1158.1M1191.8 1L1199.5 3.49914M1158.1 1H1124.4M1158.1 1L1165.25 3.49914M1124.4 1H1090.7M1124.4 1L1131 3.49914M1090.7 1H1057M1090.7 1L1096.75 3.49914M1057 1H1023.3M1057 1L1062.5 3.49914M1023.3 1H989.599M1023.3 1L1024.52 1.61741L1026.38 2.55215L1028.25 3.49914M989.599 1H955.899M989.599 1L990.686 1.61741L994.002 3.49914M955.899 1H922.199M955.899 1L959.751 3.49914M922.199 1H888.499M922.199 1L923.425 1.92784L924.666 2.8665L925.083 3.18233L925.502 3.49914M888.499 1H854.799M888.499 1L889.52 1.92784L889.864 2.23925L890.209 2.55215L891.251 3.49914M854.799 1H821.1M854.799 1L857.001 3.49914M821.1 1L821.303 1.30797L821.507 1.61741L822.541 3.18233L822.751 3.49914M821.1 1H787.4M787.4 1H753.699M787.4 1L788.501 3.49914M753.699 1H720M753.699 1L753.904 1.92784L754.25 3.49914M720 1H686.3M720 1V3.49914M686.3 1H652.6M686.3 1L686.096 1.92784L685.749 3.49914M652.6 1H618.9M652.6 1L651.499 3.49914M618.9 1L618.696 1.30797L618.493 1.61741L617.459 3.18233L617.249 3.49914M618.9 1H585.2M585.2 1H551.5M585.2 1L583.278 3.18233L582.998 3.49914M551.5 1H517.8M551.5 1L550.479 1.92784L550.135 2.23925L549.444 2.8665L549.097 3.18233L548.748 3.49914M517.8 1H484.1M517.8 1L516.575 1.92784L515.333 2.8665L514.917 3.18233L514.498 3.49914M484.1 1H450.401M484.1 1L480.248 3.49914M450.401 1H416.7M450.401 1L449.313 1.61741L445.998 3.49914M416.7 1H383.001M416.7 1L411.747 3.49914M383.001 1H349.301M383.001 1L377.497 3.49914M349.301 1H315.6M349.301 1L343.247 3.49914M315.6 1H281.901M315.6 1L308.996 3.49914M281.901 1H248.201M281.901 1L274.746 3.49914M248.201 1H214.501M248.201 1L240.496 3.49914M214.501 1H180.801M214.501 1L206.245 3.49914M180.801 1H147.101M180.801 1L171.995 3.49914M147.101 1H113.402M147.101 1L137.745 3.49914M113.402 1H79.7012M113.402 1L103.494 3.49914M79.7012 1H46.0015M79.7012 1L69.2448 3.49914M46.0015 1H12.3019M46.0015 1L34.9945 3.49914M12.3019 1L8.09637 1.00097L3.93425 1.00639L-0.141127 1.0216L-4.08871 1.05156L-7.86513 1.10019L-11.4301 1.17339L-14.7411 1.27506L-17.8143 1.40472L-20.4514 1.58402L-22.8523 1.79179L-23.5122 1.86458V3.49914M12.3019 1L0.744116 3.49914M69.2448 3.49914H103.494M69.2448 3.49914H34.9945M69.2448 3.49914L58.4399 6.08082M103.494 3.49914L93.2587 6.08082M103.494 3.49914H137.745M206.245 3.49914H240.496M206.245 3.49914H171.995M206.245 3.49914L204.14 4.1367L197.716 6.08082M240.496 3.49914L232.535 6.08082M240.496 3.49914H274.746M343.247 3.49914H377.497M343.247 3.49914H308.996M343.247 3.49914L341.702 4.1367L340.925 4.45696L336.991 6.08082M377.497 3.49914L376.796 3.81694L376.093 4.1367L371.811 6.08082M377.497 3.49914H411.747M480.248 3.49914L479.757 3.81694L476.267 6.08082M480.248 3.49914H514.498M480.248 3.49914H445.998M514.498 3.49914L513.656 4.1367L513.231 4.45696L512.806 4.77918L511.086 6.08082M514.498 3.49914H548.748M617.249 3.49914H651.499M617.249 3.49914H582.998M617.249 3.49914L615.543 6.08082M651.499 3.49914L651.359 3.81694L651.219 4.1367L651.077 4.45696L650.649 5.42705L650.362 6.08082M651.499 3.49914H685.749M754.25 3.49914H788.501M754.25 3.49914H720M754.25 3.49914L754.819 6.08082M788.501 3.49914L788.641 3.81694L788.781 4.1367L788.922 4.45696L789.637 6.08082M788.501 3.49914H822.751M891.251 3.49914H925.502M891.251 3.49914H857.001M891.251 3.49914L891.953 4.1367L893.375 5.42705L893.734 5.7532L894.095 6.08082M925.502 3.49914L926.344 4.1367L926.768 4.45696L927.193 4.77918L928.913 6.08082M925.502 3.49914H959.751M1028.25 3.49914H1062.5M1028.25 3.49914H994.002M1028.25 3.49914L1029.52 4.1367L1030.15 4.45696L1033.37 6.08082M1062.5 3.49914L1063.2 3.81694L1063.91 4.1367L1068.19 6.08082M1062.5 3.49914H1096.75M1165.25 3.49914H1199.5M1165.25 3.49914H1131M1165.25 3.49914L1167.08 4.1367L1168 4.45696L1172.65 6.08082M1199.5 3.49914L1207.46 6.08082M1199.5 3.49914H1233.75M1302.25 3.49914H1336.51M1302.25 3.49914H1268M1302.25 3.49914L1311.92 6.08082M1336.51 3.49914L1346.74 6.08082M1336.51 3.49914H1370.75M-23.6322 26.8697H-23.5122M10.8412 26.8697L23.9177 23.5714M10.8412 26.8697L-2.73645 30.2943M10.8412 26.8697H50.2388M10.8412 26.8697H-23.5122M23.9177 23.5714H-14.7535M23.9177 23.5714L36.521 20.3925M23.9177 23.5714H62.5888M-14.7535 23.5714L-1.45002 20.3925M-14.7535 23.5714H-23.5122M-14.7535 23.5714L-23.5122 25.6639M23.7612 14.3676H60.4055M23.7612 14.3676L35.7178 11.5104M23.7612 14.3676H-12.8823M23.7612 14.3676L11.3794 17.3265M60.4055 14.3676L71.7332 11.5104M60.4055 14.3676L48.6758 17.3265M60.4055 14.3676H97.0498M35.7178 11.5104H71.7332M35.7178 11.5104L47.2709 8.74991M35.7178 11.5104H-0.296797M71.7332 11.5104H107.748M71.7332 11.5104L82.6776 8.74991M-23.8894 78.9304H-23.5122M7.90042 78.9304L24.7627 73.4621M7.90042 78.9304L-9.79981 84.6709M7.90042 78.9304H58.7652M7.90042 78.9304H-23.5122M24.7627 73.4621L40.845 68.2467M24.7627 73.4621H74.4223M24.7627 73.4621H-23.5122M-7.66609 68.2467H40.845M-7.66609 68.2467L8.78566 63.267M-7.66609 68.2467H-23.5122M-7.66609 68.2467L-23.5122 73.0429M24.5094 58.5075H70.8751M24.5094 58.5075L39.5531 53.9542M24.5094 58.5075H-21.8563M24.5094 58.5075L8.78566 63.267M70.8751 58.5075L84.9166 53.9542M70.8751 58.5075L56.1993 63.267M70.8751 58.5075H117.242M39.5531 53.9542H84.9166M39.5531 53.9542H-5.80963M39.5531 53.9542L53.9602 49.5934M84.9166 53.9542L98.3626 49.5934M84.9166 53.9542H130.279M81.0179 41.4034H123.616M81.0179 41.4034L93.7389 37.553M81.0179 41.4034H38.4193M81.0179 41.4034L67.7694 45.4135M123.616 41.4034L135.489 37.553M123.616 41.4034L111.252 45.4135M123.616 41.4034H166.216M93.7389 37.553H135.489M93.7389 37.553H51.9884M93.7389 37.553L105.963 33.8529M135.489 37.553L146.899 33.8529M135.489 37.553H177.241M129.034 26.8697H168.432M129.034 26.8697L139.931 23.5714M129.034 26.8697H89.6364M129.034 26.8697L117.719 30.2943M168.432 26.8697L178.602 23.5714M168.432 26.8697L157.871 30.2943M168.432 26.8697H207.829M139.931 23.5714H178.602M139.931 23.5714H101.26M139.931 23.5714L150.434 20.3925M178.602 23.5714L188.405 20.3925M178.602 23.5714H217.273M170.338 14.3676H206.982M170.338 14.3676L179.777 11.5104M170.338 14.3676H133.694M170.338 14.3676L160.563 17.3265M206.982 14.3676L215.792 11.5104M206.982 14.3676L197.858 17.3265M206.982 14.3676H243.626M179.777 11.5104H215.792M179.777 11.5104L188.898 8.74991M179.777 11.5104H143.763M215.792 11.5104H251.807M215.792 11.5104L224.305 8.74991M2.54713 173.736L26.2791 162.961M2.54713 173.736L-22.867 185.274M2.54713 173.736H74.2922M2.54713 173.736H-23.5122M26.2791 162.961L48.4923 152.876M26.2791 162.961H95.6511M26.2791 162.961H-23.5122M25.7974 134.526H88.9068M25.7974 134.526L46.0774 126.156M25.7974 134.526L4.25876 143.417M25.7974 134.526H-23.5122M88.9068 134.526L107.343 126.156M88.9068 134.526L69.3261 143.417M88.9068 134.526H152.016M46.0774 126.156H107.343M46.0774 126.156H-15.1879M46.0774 126.156L65.2066 118.26M107.343 126.156L124.733 118.26M107.343 126.156H168.609M100.381 103.742H156.71M100.381 103.742L116.589 97.0522M100.381 103.742H44.0521M100.381 103.742L83.2794 110.801M156.71 103.742L171.444 97.0522M156.71 103.742L141.163 110.801M156.71 103.742H213.039M116.589 97.0522H171.444M116.589 97.0522H61.733M116.589 97.0522L131.969 90.7037M171.444 97.0522L185.427 90.7037M171.444 97.0522H226.299M160.493 78.9304H211.358M160.493 78.9304L173.742 73.4621M160.493 78.9304H109.629M160.493 78.9304L146.586 84.6709M211.358 78.9304L223.402 73.4621M211.358 78.9304L198.714 84.6709M211.358 78.9304H262.222M173.742 73.4621H223.402M173.742 73.4621H124.083M173.742 73.4621L186.378 68.2467M223.402 73.4621L234.889 68.2467M223.402 73.4621H273.062M209.974 58.5075H256.34M209.974 58.5075L221.006 53.9542M209.974 58.5075H163.607M209.974 58.5075L198.442 63.267M256.34 58.5075L266.369 53.9542M256.34 58.5075L245.857 63.267M256.34 58.5075H302.705M221.006 53.9542H266.369M221.006 53.9542H175.643M221.006 53.9542L231.571 49.5934M266.369 53.9542L275.974 49.5934M266.369 53.9542H311.732M251.413 41.4034H294.012M251.413 41.4034L260.742 37.553M251.413 41.4034H208.814M251.413 41.4034L241.698 45.4135M294.012 41.4034L295.091 40.9137L302.492 37.553M294.012 41.4034L285.18 45.4135M294.012 41.4034H336.611M260.742 37.553H302.492M260.742 37.553H218.991M260.742 37.553L269.706 33.8529M302.492 37.553L310.642 33.8529M302.492 37.553H344.243M286.624 26.8697H326.023M286.624 26.8697L294.616 23.5714M286.624 26.8697H247.227M286.624 26.8697L278.327 30.2943M326.023 26.8697L333.288 23.5714M326.023 26.8697L323.228 28.139L318.479 30.2943M326.023 26.8697H365.42M294.616 23.5714H333.288M294.616 23.5714H255.945M294.616 23.5714L302.318 20.3925M333.288 23.5714L340.289 20.3925M333.288 23.5714H371.959M316.914 14.3676H353.558M316.914 14.3676L323.836 11.5104M316.914 14.3676H280.271M316.914 14.3676L309.746 17.3265M353.558 14.3676L358.299 12.2157L359.077 11.8621L359.852 11.5104M353.558 14.3676L347.042 17.3265M353.558 14.3676H390.203M323.836 11.5104H359.852M323.836 11.5104L330.525 8.74991M323.836 11.5104H287.822M359.852 11.5104H395.867M359.852 11.5104L365.932 8.74991M28.5414 296.479H127.322M28.5414 296.479L59.645 276.305M28.5414 296.479L-5.63692 318.648M28.5414 296.479L-23.5122 296.48M127.322 296.479L153.982 276.305M127.322 296.479L98.0257 318.648M127.322 296.479H226.101M59.645 276.305H153.982M59.645 276.305L88.0712 257.868M59.645 276.305H-23.5122M153.982 276.305L178.347 257.868M153.982 276.305H248.318M138.163 225.378H221.283M138.163 225.378L160.344 210.991M138.163 225.378H55.0437M138.163 225.378L114.151 240.953M221.283 225.378L240.295 210.991M221.283 225.378L200.701 240.953M221.283 225.378H304.402M160.344 210.991H240.295M160.344 210.991H80.3936M160.344 210.991L180.897 197.661M240.295 210.991L257.912 197.661M240.295 210.991H320.246M217.783 173.736H289.528M217.783 173.736L234.396 162.961M217.783 173.736H146.037M217.783 173.736L199.993 185.274M289.528 173.736L303.768 162.961M289.528 173.736L274.28 185.274M289.528 173.736H361.273M234.396 162.961H303.768M234.396 162.961H165.023M234.396 162.961L249.945 152.876M303.768 162.961L317.095 152.876M303.768 162.961H373.14M278.234 134.526H341.344M278.234 134.526L291.141 126.156M278.234 134.526H215.126M278.234 134.526L264.528 143.417M341.344 134.526L352.406 126.156M341.344 134.526L329.596 143.417M341.344 134.526H404.453M291.141 126.156H352.406M291.141 126.156H229.874M291.141 126.156L303.313 118.26M352.406 126.156L362.84 118.26M352.406 126.156H413.671M325.697 103.742H382.026M325.697 103.742L336.011 97.0522M325.697 103.742H269.368M325.697 103.742L314.814 110.801M382.026 103.742L390.866 97.0522M382.026 103.742L372.698 110.801M382.026 103.742H438.355M336.011 97.0522H390.866M336.011 97.0522H281.155M336.011 97.0522L345.799 90.7037M390.866 97.0522L399.256 90.7037M390.866 97.0522H445.722M363.95 78.9304H414.814M363.95 78.9304L372.382 73.4621M363.95 78.9304H313.086M363.95 78.9304L355.1 84.6709M414.814 78.9304L422.041 73.4621M414.814 78.9304L407.228 84.6709M414.814 78.9304H465.678M372.382 73.4621H422.041M372.382 73.4621H322.721M372.382 73.4621L380.422 68.2467M422.041 73.4621L428.933 68.2467M422.041 73.4621H471.701M395.437 58.5075H441.804M395.437 58.5075L402.458 53.9542M395.437 58.5075H349.072M395.437 58.5075L388.1 63.267M441.804 58.5075L447.821 53.9542M441.804 58.5075L435.514 63.267M441.804 58.5075H488.17M402.458 53.9542H447.821M402.458 53.9542H357.095M402.458 53.9542L409.182 49.5934M447.821 53.9542L453.584 49.5934M447.821 53.9542H493.185M421.808 41.4034H464.407M421.808 41.4034L427.745 37.553M421.808 41.4034H379.21M421.808 41.4034L415.625 45.4135M464.407 41.4034L463.756 41.8956L459.108 45.4135M464.407 41.4034L469.495 37.553M464.407 41.4034H507.006M427.745 37.553H469.495M427.745 37.553H385.994M427.745 37.553L433.45 33.8529M469.495 37.553L474.385 33.8529M469.495 37.553H511.246M444.216 26.8697H483.613M444.216 26.8697L449.301 23.5714M444.216 26.8697H404.818M444.216 26.8697L438.936 30.2943M483.613 26.8697L487.972 23.5714M483.613 26.8697L481.937 28.139L480.805 28.9951L479.088 30.2943M483.613 26.8697H523.011M449.301 23.5714H487.972M449.301 23.5714H410.63M449.301 23.5714L454.202 20.3925M487.972 23.5714L489.566 22.3656L490.616 21.5708L492.174 20.3925M487.972 23.5714H526.643M463.491 14.3676H500.135M463.491 14.3676L466.809 12.2157L467.896 11.5104M463.491 14.3676H426.847M463.491 14.3676L459.508 16.9507L458.93 17.3265M500.135 14.3676L502.979 12.2157L503.446 11.8621L503.911 11.5104M500.135 14.3676L498.197 15.8338L496.225 17.3265M500.135 14.3676H536.779M467.896 11.5104H503.911M467.896 11.5104L472.152 8.74991M467.896 11.5104H431.881M503.911 11.5104H539.926M503.911 11.5104L507.559 8.74991M423.661 296.479H522.44M423.661 296.479L436.99 276.305M423.661 296.479H324.881M423.661 296.479L409.013 318.648M522.44 296.479L531.327 276.305M522.44 296.479L512.675 318.648M522.44 296.479H621.22M436.99 276.305H531.327M436.99 276.305H342.654M436.99 276.305L449.173 257.868M531.327 276.305L539.449 257.868M531.327 276.305H625.664M470.641 225.378H553.761M470.641 225.378L480.147 210.991M470.641 225.378H387.521M470.641 225.378L460.35 240.953M553.761 225.378L560.098 210.991M553.761 225.378L546.9 240.953M553.761 225.378H636.881M480.147 210.991H560.098M480.147 210.991H400.197M480.147 210.991L488.956 197.661M560.098 210.991L565.97 197.661M560.098 210.991H640.049M504.764 173.736H576.509M504.764 173.736L511.884 162.961M504.764 173.736H433.019M504.764 173.736L497.14 185.274M576.509 173.736L581.256 162.961M576.509 173.736L571.427 185.274M576.509 173.736H648.255M511.884 162.961H581.256M511.884 162.961H442.512M511.884 162.961L518.548 152.876M581.256 162.961L585.698 152.876M581.256 162.961H650.628M530.672 134.526H593.781M530.672 134.526L536.203 126.156M530.672 134.526H467.563M530.672 134.526L524.798 143.417M593.781 134.526L597.468 126.156M593.781 134.526L589.865 143.417M593.781 134.526H656.89M536.203 126.156H597.468M536.203 126.156H474.937M536.203 126.156L541.42 118.26M597.468 126.156L600.946 118.26M597.468 126.156H658.734M551.013 103.742H607.342M551.013 103.742L555.433 97.0522M551.013 103.742H494.684M551.013 103.742L546.349 110.801M607.342 103.742L610.288 97.0522M607.342 103.742L604.233 110.801M607.342 103.742H663.671M555.433 97.0522H610.288M555.433 97.0522H500.578M555.433 97.0522L559.628 90.7037M610.288 97.0522L613.085 90.7037M610.288 97.0522H665.144M567.407 78.9304H618.271M567.407 78.9304L571.02 73.4621M567.407 78.9304H516.543M567.407 78.9304L563.614 84.6709M618.271 78.9304L620.681 73.4621M618.271 78.9304L615.742 84.6709M618.271 78.9304H669.136M571.02 73.4621H620.681M571.02 73.4621H521.361M571.02 73.4621L572.332 71.4777L574.467 68.2467M620.681 73.4621L622.978 68.2467M620.681 73.4621H670.34M580.902 58.5075H627.268M580.902 58.5075L583.911 53.9542M580.902 58.5075H534.535M580.902 58.5075L578.557 62.0573L577.757 63.267M627.268 58.5075L628.03 56.7765L629.273 53.9542M627.268 58.5075L625.171 63.267M627.268 58.5075H673.634M583.911 53.9542L584.277 53.3986L586.792 49.5934M583.911 53.9542H629.273M583.911 53.9542H538.547M629.273 53.9542L630.004 52.2969L630.244 51.7502L630.484 51.207L631.194 49.5934M629.273 53.9542H674.637M592.203 41.4034H634.802M592.203 41.4034L593.488 39.4588L593.806 38.9789L594.121 38.501L594.435 38.026L594.747 37.553M592.203 41.4034H549.605M592.203 41.4034L589.554 45.4135M634.802 41.4034L636.081 38.501L636.29 38.026L636.498 37.553M634.802 41.4034L633.036 45.4135M634.802 41.4034H677.401M594.747 37.553H636.498M594.747 37.553H552.997M594.747 37.553L596.287 35.2233L596.59 34.7641L597.193 33.8529M636.498 37.553L637.524 35.2233L637.727 34.7641L637.928 34.3073L638.128 33.8529M636.498 37.553H678.249M601.807 26.8697H641.205M601.807 26.8697L603.986 23.5714M601.807 26.8697H562.409M601.807 26.8697L601.249 27.7136L600.402 28.9951L599.544 30.2943M641.205 26.8697L641.019 27.2907L639.887 29.8591L639.696 30.2943M641.205 26.8697L642.657 23.5714M641.205 26.8697H680.602M603.986 23.5714H642.657M603.986 23.5714H565.315M603.986 23.5714L606.087 20.3925M642.657 23.5714L643.189 22.3656L643.364 21.9672L643.539 21.5708L644.058 20.3925M642.657 23.5714H681.329M610.068 14.3676H646.711M610.068 14.3676L611.49 12.2157L611.955 11.5104M610.068 14.3676H573.423M610.068 14.3676L609.342 15.4649L609.099 15.8338L608.853 16.2046L608.112 17.3265M646.711 14.3676L646.872 14.0051L647.188 13.2845L647.503 12.5704L647.97 11.5104M646.711 14.3676L646.065 15.8338L645.903 16.2046L645.573 16.9507L645.409 17.3265M646.711 14.3676H683.355M611.955 11.5104H647.97M611.955 11.5104L613.554 9.08982L613.78 8.74991M611.955 11.5104H575.94M647.97 11.5104L648.125 11.1602L648.278 10.8114L648.431 10.4641L648.583 10.1184L649.036 9.08982L649.186 8.74991M647.97 11.5104H683.985M818.779 296.479H917.559M818.779 296.479L814.336 276.305M818.779 296.479H720M818.779 296.479L823.662 318.648M917.559 296.479L908.673 276.305M917.559 296.479L927.324 318.648M917.559 296.479H1016.34M814.336 276.305H908.673M814.336 276.305H720M814.336 276.305L810.275 257.868M908.673 276.305L900.551 257.868M908.673 276.305H1003.01M803.119 225.378H886.239M803.119 225.378L799.951 210.991M803.119 225.378H720M803.119 225.378L806.55 240.953M886.239 225.378L879.901 210.991M886.239 225.378L893.099 240.953M886.239 225.378H969.358M799.951 210.991H879.901M799.951 210.991H720M799.951 210.991L797.014 197.661M879.901 210.991L874.029 197.661M879.901 210.991H959.852M791.745 173.736H863.491M791.745 173.736L789.372 162.961M791.745 173.736H720M791.745 173.736L794.287 185.274M863.491 173.736L858.744 162.961M863.491 173.736L868.573 185.274M863.491 173.736H935.236M789.372 162.961H858.744M789.372 162.961H720M789.372 162.961L787.15 152.876M858.744 162.961L854.301 152.876M858.744 162.961H928.116M783.109 134.526H846.219M783.109 134.526L781.265 126.156M783.109 134.526H720M783.109 134.526L785.067 143.417M846.219 134.526L842.531 126.156M846.219 134.526L850.134 143.417M846.219 134.526H909.327M781.265 126.156H842.531M781.265 126.156H720M781.265 126.156L779.526 118.26M842.531 126.156L839.053 118.26M842.531 126.156H903.797M776.328 103.742H832.657M776.328 103.742L774.855 97.0522M776.328 103.742H720M776.328 103.742L777.884 110.801M832.657 103.742L829.711 97.0522M832.657 103.742L835.767 110.801M832.657 103.742H888.987M774.855 97.0522H829.711M774.855 97.0522H720M774.855 97.0522L773.457 90.7037M829.711 97.0522L826.914 90.7037M829.711 97.0522H884.567M770.864 78.9304H821.728M770.864 78.9304L769.659 73.4621M770.864 78.9304H720M770.864 78.9304L772.128 84.6709M821.728 78.9304L819.319 73.4621M821.728 78.9304L824.257 84.6709M821.728 78.9304H872.592M769.659 73.4621H819.319M769.659 73.4621H720M769.659 73.4621L768.511 68.2467M819.319 73.4621L817.022 68.2467M819.319 73.4621H868.979M766.366 58.5075H812.732M766.366 58.5075L765.363 53.9542M766.366 58.5075H720M766.366 58.5075L767.414 63.267M812.732 58.5075L810.971 54.5127L810.726 53.9542M812.732 58.5075L814.828 63.267M812.732 58.5075H859.098M765.363 53.9542L765.241 53.3986L764.402 49.5934M765.363 53.9542H810.726M765.363 53.9542H720M810.726 53.9542L809.996 52.2969L809.756 51.7502L809.515 51.207L808.805 49.5934M810.726 53.9542H856.089M762.598 41.4034H805.198M762.598 41.4034L761.75 37.553M762.598 41.4034H720M762.598 41.4034L762.925 42.8878L763.036 43.3878L763.146 43.8903L763.369 44.9031L763.482 45.4135M805.198 41.4034L803.919 38.501L803.501 37.553M805.198 41.4034L806.964 45.4135M805.198 41.4034H847.796M761.75 37.553H803.501M761.75 37.553H720M761.75 37.553L760.936 33.8529M803.501 37.553L802.475 35.2233L802.272 34.7641L802.072 34.3073L801.871 33.8529M803.501 37.553H845.252M759.397 26.8697H798.795M759.397 26.8697L758.671 23.5714M759.397 26.8697H720M759.397 26.8697L760.152 30.2943M798.795 26.8697L798.981 27.2907L800.112 29.8591L800.304 30.2943M798.795 26.8697L797.342 23.5714M798.795 26.8697H838.193M758.671 23.5714H797.342M758.671 23.5714H720M758.671 23.5714L757.971 20.3925M797.342 23.5714L796.811 22.3656L796.636 21.9672L796.461 21.5708L795.942 20.3925M797.342 23.5714H836.013M756.644 14.3676H793.288M756.644 14.3676L756.014 11.5104M756.644 14.3676H720M756.644 14.3676L757.295 17.3265M793.288 14.3676L793.128 14.0051L792.81 13.2845L792.653 12.9265L792.34 12.2157L792.185 11.8621L792.029 11.5104M793.288 14.3676L793.934 15.8338L794.097 16.2046L794.426 16.9507L794.591 17.3265M793.288 14.3676H829.932M756.014 11.5104L755.938 11.1602L755.86 10.8114L755.784 10.4641L755.406 8.74991M756.014 11.5104H792.029M756.014 11.5104H720M792.029 11.5104H828.044M792.029 11.5104L791.721 10.8114L791.568 10.4641L791.416 10.1184L790.963 9.08982L790.813 8.74991M1213.9 296.479H1312.68M1213.9 296.479L1191.68 276.305M1213.9 296.479H1115.12M1213.9 296.479L1238.31 318.648M1312.68 296.479L1286.02 276.305M1312.68 296.479L1341.97 318.648M1312.68 296.479H1411.46M1191.68 276.305H1286.02M1191.68 276.305H1097.35M1191.68 276.305L1171.38 257.868M1286.02 276.305L1261.65 257.868M1286.02 276.305H1380.35M1135.6 225.378H1218.72M1135.6 225.378L1119.75 210.991M1135.6 225.378H1052.48M1135.6 225.378L1152.75 240.953M1218.72 225.378L1199.7 210.991M1218.72 225.378L1239.3 240.953M1218.72 225.378H1301.84M1119.75 210.991H1199.7M1119.75 210.991H1039.8M1119.75 210.991L1105.07 197.661M1199.7 210.991L1182.09 197.661M1199.7 210.991H1279.66M1078.73 173.736H1150.47M1078.73 173.736L1066.86 162.961M1078.73 173.736H1006.98M1078.73 173.736L1091.43 185.274M1150.47 173.736L1136.23 162.961M1150.47 173.736L1165.72 185.274M1150.47 173.736H1222.22M1066.86 162.961H1136.23M1066.86 162.961H997.488M1066.86 162.961L1055.75 152.876M1136.23 162.961L1122.9 152.876M1136.23 162.961H1205.6M1035.55 134.526H1098.66M1035.55 134.526L1026.33 126.156M1035.55 134.526H972.437M1035.55 134.526L1045.34 143.417M1098.66 134.526L1087.59 126.156M1098.66 134.526L1110.4 143.417M1098.66 134.526H1161.77M1026.33 126.156H1087.59M1026.33 126.156H965.062M1026.33 126.156L1017.63 118.26M1087.59 126.156L1077.16 118.26M1087.59 126.156H1148.86M1001.64 103.742H1057.97M1001.64 103.742L994.277 97.0522M1001.64 103.742H945.316M1001.64 103.742L1009.42 110.801M1057.97 103.742L1049.13 97.0522M1057.97 103.742L1067.3 110.801M1057.97 103.742H1114.3M994.277 97.0522H1049.13M994.277 97.0522H939.422M994.277 97.0522L987.286 90.7037M1049.13 97.0522L1040.74 90.7037M1049.13 97.0522H1103.99M974.321 78.9304H1025.19M974.321 78.9304L968.299 73.4621M974.321 78.9304H923.456M974.321 78.9304L980.643 84.6709M1025.19 78.9304L1017.96 73.4621M1025.19 78.9304L1032.77 84.6709M1025.19 78.9304H1076.05M968.299 73.4621H1017.96M968.299 73.4621H918.639M968.299 73.4621L962.555 68.2467M1017.96 73.4621L1011.07 68.2467M1017.96 73.4621H1067.62M951.83 58.5075L952.472 59.091L953.119 59.6775L957.071 63.267M951.83 58.5075H998.196M951.83 58.5075L946.815 53.9542M951.83 58.5075H905.464M998.196 58.5075L992.179 53.9542M998.196 58.5075L1004.49 63.267M998.196 58.5075H1044.56M946.815 53.9542H992.179M946.815 53.9542H901.452M946.815 53.9542L942.013 49.5934M992.179 53.9542L986.416 49.5934M992.179 53.9542H1037.54M932.993 41.4034H975.593M932.993 41.4034L928.753 37.553M932.993 41.4034H890.395M932.993 41.4034L937.41 45.4135M975.593 41.4034L972.388 38.9789L970.504 37.553M975.593 41.4034L980.892 45.4135M975.593 41.4034H1018.19M928.753 37.553H970.504M928.753 37.553H887.003M928.753 37.553L925.18 34.3073L924.679 33.8529M970.504 37.553L965.614 33.8529M970.504 37.553H1012.25M916.989 26.8697H956.386M916.989 26.8697L916.068 26.0333L913.356 23.5714M916.989 26.8697H877.591M916.989 26.8697L917.918 27.7136L919.804 29.4259L920.76 30.2943M956.386 26.8697L952.027 23.5714M956.386 26.8697L958.063 28.139L959.194 28.9951L960.912 30.2943M956.386 26.8697H995.784M913.356 23.5714H952.027M913.356 23.5714H874.684M913.356 23.5714L910.718 21.1759L909.855 20.3925M952.027 23.5714L950.433 22.3656L949.383 21.5708L947.826 20.3925M952.027 23.5714H990.698M903.22 14.3676H939.865M903.22 14.3676L901.241 12.5704L900.074 11.5104M903.22 14.3676H866.576M903.22 14.3676L906.479 17.3265M939.865 14.3676L937.02 12.2157L936.554 11.8621L936.088 11.5104M939.865 14.3676L941.802 15.8338L943.774 17.3265M939.865 14.3676H976.508M900.074 11.5104H936.088M900.074 11.5104L898.541 10.1184L897.784 9.43118L897.408 9.08982L897.034 8.74991M900.074 11.5104H864.059M936.088 11.5104H972.104M936.088 11.5104L932.44 8.74991M1439.56 210.991H1359.61M1439.56 210.991L1413.13 197.661M1439.56 210.991H1463.51M1439.56 210.991L1463.51 223.076M1365.71 173.736H1437.45M1365.71 173.736L1344.35 162.961M1365.71 173.736H1293.96M1365.71 173.736L1388.58 185.274M1437.45 173.736L1413.72 162.961M1437.45 173.736L1462.87 185.274M1437.45 173.736H1463.51M1344.35 162.961H1413.72M1344.35 162.961H1274.98M1344.35 162.961L1324.36 152.876M1413.72 162.961L1391.51 152.876M1413.72 162.961H1463.51M1287.98 134.526H1351.09M1287.98 134.526L1271.39 126.156M1287.98 134.526H1224.87M1287.98 134.526L1305.61 143.417M1351.09 134.526L1332.66 126.156M1351.09 134.526L1370.67 143.417M1351.09 134.526H1414.2M1271.39 126.156H1332.66M1271.39 126.156H1210.13M1271.39 126.156L1255.74 118.26M1332.66 126.156L1315.27 118.26M1332.66 126.156H1393.92M1226.96 103.742H1283.29M1226.96 103.742L1213.7 97.0522M1226.96 103.742H1170.63M1226.96 103.742L1240.95 110.801M1283.29 103.742L1268.56 97.0522M1283.29 103.742L1298.84 110.801M1283.29 103.742H1339.62M1213.7 97.0522H1268.56M1213.7 97.0522H1158.84M1213.7 97.0522L1201.12 90.7037M1268.56 97.0522L1254.57 90.7037M1268.56 97.0522H1323.41M1177.78 78.9304H1228.64M1177.78 78.9304L1166.94 73.4621M1177.78 78.9304H1126.91M1177.78 78.9304L1189.16 84.6709M1228.64 78.9304L1216.6 73.4621M1228.64 78.9304L1241.29 84.6709M1228.64 78.9304H1279.51M1166.94 73.4621H1216.6M1166.94 73.4621H1117.28M1166.94 73.4621L1156.6 68.2467M1216.6 73.4621L1205.11 68.2467M1216.6 73.4621H1266.26M1137.29 58.5075H1183.66M1137.29 58.5075L1128.27 53.9542M1137.29 58.5075H1090.93M1137.29 58.5075L1146.73 63.267M1183.66 58.5075L1173.63 53.9542M1183.66 58.5075L1194.14 63.267M1183.66 58.5075H1230.03M1128.27 53.9542H1173.63M1128.27 53.9542H1082.9M1128.27 53.9542L1119.62 49.5934M1173.63 53.9542L1164.03 49.5934M1173.63 53.9542H1218.99M1103.39 41.4034H1145.99M1103.39 41.4034L1095.76 37.553M1103.39 41.4034H1060.79M1103.39 41.4034L1111.34 45.4135M1145.99 41.4034L1137.51 37.553M1145.99 41.4034L1154.82 45.4135M1145.99 41.4034H1188.59M1095.76 37.553H1137.51M1095.76 37.553H1054.01M1095.76 37.553L1088.42 33.8529M1137.51 37.553L1129.36 33.8529M1137.51 37.553H1179.26M1074.58 26.8697H1113.98M1074.58 26.8697L1068.04 23.5714M1074.58 26.8697H1035.18M1074.58 26.8697L1076.25 27.7136L1077.09 28.139L1081.37 30.2943M1113.98 26.8697L1106.71 23.5714M1113.98 26.8697L1121.52 30.2943M1113.98 26.8697H1153.37M1068.04 23.5714H1106.71M1068.04 23.5714H1029.37M1068.04 23.5714L1061.74 20.3925M1106.71 23.5714L1099.71 20.3925M1106.71 23.5714H1145.38M1049.8 14.3676H1086.44M1049.8 14.3676L1044.13 11.5104M1049.8 14.3676H1013.15M1049.8 14.3676L1055.66 17.3265M1086.44 14.3676L1081.7 12.2157L1080.92 11.8621L1080.15 11.5104M1086.44 14.3676L1092.96 17.3265M1086.44 14.3676H1123.08M1044.13 11.5104H1080.15M1044.13 11.5104L1039.34 9.08982L1038.66 8.74991M1044.13 11.5104H1008.12M1080.15 11.5104H1116.16M1080.15 11.5104L1074.07 8.74991M1452.28 103.742L1433.12 97.0522M1452.28 103.742H1395.95M1452.28 103.742L1463.51 107.666M1452.28 103.742H1463.51M1433.12 97.0522H1378.27M1433.12 97.0522L1414.94 90.7037M1433.12 97.0522H1463.51M1381.23 78.9304H1432.1M1381.23 78.9304L1365.58 73.4621M1381.23 78.9304H1330.37M1381.23 78.9304L1397.67 84.6709M1432.1 78.9304L1415.24 73.4621M1432.1 78.9304L1449.8 84.6709M1432.1 78.9304H1463.51M1365.58 73.4621H1415.24M1365.58 73.4621H1315.92M1365.58 73.4621L1350.64 68.2467M1415.24 73.4621L1399.15 68.2467M1415.24 73.4621H1463.51M1322.76 58.5075H1369.12M1322.76 58.5075L1309.72 53.9542M1322.76 58.5075H1276.39M1322.76 58.5075L1336.39 63.267M1369.12 58.5075L1355.08 53.9542M1369.12 58.5075L1383.8 63.267M1369.12 58.5075H1415.49M1309.72 53.9542H1355.08M1309.72 53.9542H1264.36M1309.72 53.9542L1297.23 49.5934M1355.08 53.9542L1341.64 49.5934M1355.08 53.9542H1400.45M1273.78 41.4034H1316.38M1273.78 41.4034L1262.76 37.553M1273.78 41.4034H1231.19M1273.78 41.4034L1285.27 45.4135M1316.38 41.4034L1304.51 37.553M1316.38 41.4034L1328.75 45.4135M1316.38 41.4034H1358.98M1262.76 37.553H1304.51M1262.76 37.553H1221.01M1262.76 37.553L1252.16 33.8529M1304.51 37.553L1293.1 33.8529M1304.51 37.553H1346.26M1232.17 26.8697H1271.57M1232.17 26.8697L1222.73 23.5714M1232.17 26.8697H1192.77M1232.17 26.8697L1241.98 30.2943M1271.57 26.8697L1261.4 23.5714M1271.57 26.8697L1282.13 30.2943M1271.57 26.8697H1310.97M1222.73 23.5714H1261.4M1222.73 23.5714H1184.05M1222.73 23.5714L1213.62 20.3925M1261.4 23.5714L1251.59 20.3925M1261.4 23.5714H1300.07M1196.37 14.3676H1233.02M1196.37 14.3676L1188.19 11.5104M1196.37 14.3676H1159.73M1196.37 14.3676L1204.84 17.3265M1233.02 14.3676L1224.21 11.5104M1233.02 14.3676L1242.14 17.3265M1233.02 14.3676H1269.66M1188.19 11.5104H1224.21M1188.19 11.5104L1180.29 8.74991M1188.19 11.5104H1152.18M1224.21 11.5104H1260.22M1224.21 11.5104L1215.69 8.74991M1444.18 41.4034L1429.76 37.553M1444.18 41.4034H1401.58M1444.18 41.4034L1459.19 45.4135M1444.18 41.4034H1463.51M1429.76 37.553H1388.01M1429.76 37.553L1415.91 33.8529M1429.76 37.553H1463.51M1389.76 26.8697H1429.16M1389.76 26.8697L1377.41 23.5714M1389.76 26.8697H1350.36M1389.76 26.8697L1402.58 30.2943M1429.16 26.8697L1416.08 23.5714M1429.16 26.8697L1442.74 30.2943M1429.16 26.8697H1463.51M1377.41 23.5714H1416.08M1377.41 23.5714H1338.74M1377.41 23.5714L1365.51 20.3925M1416.08 23.5714L1403.48 20.3925M1416.08 23.5714H1454.75M1342.95 14.3676H1379.59M1342.95 14.3676L1332.25 11.5104M1342.95 14.3676H1306.31M1342.95 14.3676L1354.03 17.3265M1379.59 14.3676L1368.27 11.5104M1379.59 14.3676L1391.32 17.3265M1379.59 14.3676H1416.24M1332.25 11.5104H1368.27M1332.25 11.5104L1321.92 8.74991M1332.25 11.5104H1296.24M1368.27 11.5104H1404.28M1368.27 11.5104L1357.32 8.74991M1391.32 17.3265L1403.48 20.3925M1391.32 17.3265H1428.62M1391.32 17.3265H1354.03M1416.24 14.3676L1404.28 11.5104M1416.24 14.3676L1428.62 17.3265M1416.24 14.3676H1452.88M1404.28 11.5104H1440.3M1404.28 11.5104L1392.73 8.74991M1357.32 8.74991H1321.92M1357.32 8.74991H1392.73M1357.32 8.74991L1346.74 6.08082M1428.62 17.3265L1441.45 20.3925M1428.62 17.3265H1463.51M1452.88 14.3676L1440.3 11.5104M1452.88 14.3676L1463.51 16.7806M1452.88 14.3676H1463.51M1440.3 11.5104L1428.14 8.74991M1440.3 11.5104H1463.51M1392.73 8.74991H1428.14M1392.73 8.74991L1381.56 6.08082M1428.14 8.74991L1416.38 6.08082M1428.14 8.74991H1463.51M1403.48 20.3925H1441.45M1403.48 20.3925H1365.51M1454.75 23.5714L1441.45 20.3925M1454.75 23.5714L1463.51 25.6639M1454.75 23.5714H1463.51M1441.45 20.3925H1463.51M1365.51 20.3925H1327.54M1365.51 20.3925L1354.03 17.3265M1354.03 17.3265H1316.73M1442.74 30.2943L1456.84 33.8529M1442.74 30.2943H1402.58M1442.74 30.2943H1463.51M1463.63 26.8697H1463.51M1456.84 33.8529H1415.91M1456.84 33.8529L1463.51 35.5347M1456.84 33.8529H1463.51M1415.91 33.8529H1374.97M1415.91 33.8529L1402.58 30.2943M1402.58 30.2943H1362.43M1242.14 17.3265L1251.59 20.3925M1242.14 17.3265H1279.44M1242.14 17.3265H1204.84M1269.66 14.3676L1260.22 11.5104M1269.66 14.3676L1279.44 17.3265M1269.66 14.3676H1306.31M1260.22 11.5104H1296.24M1260.22 11.5104L1251.1 8.74991M1215.69 8.74991H1251.1M1215.69 8.74991L1207.46 6.08082M1215.69 8.74991H1180.29M1279.44 17.3265L1289.57 20.3925M1279.44 17.3265H1316.73M1306.31 14.3676L1296.24 11.5104M1306.31 14.3676L1316.73 17.3265M1296.24 11.5104L1286.51 8.74991M1251.1 8.74991H1286.51M1251.1 8.74991L1242.28 6.08082M1316.73 17.3265L1327.54 20.3925M1321.92 8.74991H1286.51M1321.92 8.74991L1311.92 6.08082M1286.51 8.74991L1277.1 6.08082M1251.59 20.3925H1289.57M1251.59 20.3925H1213.62M1300.07 23.5714L1289.57 20.3925M1300.07 23.5714L1310.97 26.8697M1300.07 23.5714H1338.74M1289.57 20.3925H1327.54M1213.62 20.3925H1175.65M1213.62 20.3925L1204.84 17.3265M1327.54 20.3925L1338.74 23.5714M1204.84 17.3265H1167.55M1310.97 26.8697L1322.28 30.2943M1310.97 26.8697H1350.36M1338.74 23.5714L1350.36 26.8697M1350.36 26.8697L1362.43 30.2943M1282.13 30.2943L1293.1 33.8529M1282.13 30.2943H1322.28M1282.13 30.2943H1241.98M1322.28 30.2943L1334.04 33.8529M1322.28 30.2943H1362.43M1362.43 30.2943L1374.97 33.8529M1293.1 33.8529H1334.04M1293.1 33.8529H1252.16M1346.26 37.553L1334.04 33.8529M1346.26 37.553L1358.98 41.4034M1346.26 37.553H1388.01M1334.04 33.8529H1374.97M1252.16 33.8529H1211.23M1252.16 33.8529L1241.98 30.2943M1374.97 33.8529L1388.01 37.553M1241.98 30.2943H1201.82M1358.98 41.4034L1372.23 45.4135M1358.98 41.4034H1401.58M1388.01 37.553L1401.58 41.4034M1401.58 41.4034L1415.71 45.4135M1328.75 45.4135L1341.64 49.5934M1328.75 45.4135H1372.23M1328.75 45.4135H1285.27M1372.23 45.4135L1386.04 49.5934M1372.23 45.4135H1415.71M1415.71 45.4135L1430.44 49.5934M1415.71 45.4135H1459.19M1459.19 45.4135H1463.51M1459.19 45.4135L1463.51 46.5664M1341.64 49.5934H1386.04M1341.64 49.5934H1297.23M1400.45 53.9542L1386.04 49.5934M1400.45 53.9542L1415.49 58.5075M1400.45 53.9542H1445.81M1386.04 49.5934H1430.44M1297.23 49.5934H1252.83M1297.23 49.5934L1285.27 45.4135M1430.44 49.5934L1445.81 53.9542M1430.44 49.5934H1463.51M1285.27 45.4135H1241.78M1415.49 58.5075L1431.21 63.267M1415.49 58.5075H1461.86M1445.81 53.9542L1461.86 58.5075M1445.81 53.9542H1463.51M1463.74 49.5934H1463.51M1461.86 58.5075L1463.51 58.9774M1461.86 58.5075H1463.51M1383.8 63.267L1399.15 68.2467M1383.8 63.267H1431.21M1383.8 63.267H1336.39M1431.21 63.267L1447.67 68.2467M1431.21 63.267H1463.51M1463.91 59.091L1463.51 58.9774M1399.15 68.2467H1447.67M1399.15 68.2467H1350.64M1447.67 68.2467H1463.51M1447.67 68.2467L1463.51 73.0429M1350.64 68.2467H1302.13M1350.64 68.2467L1336.39 63.267M1336.39 63.267H1288.97M1449.8 84.6709H1397.67M1449.8 84.6709L1463.51 89.1178M1449.8 84.6709H1463.51M1463.89 78.9304H1463.51M1397.67 84.6709H1345.54M1397.67 84.6709L1414.94 90.7037M1463.66 89.1668L1463.51 89.1178M1092.96 17.3265L1099.71 20.3925M1092.96 17.3265H1130.25M1092.96 17.3265H1055.66M1123.08 14.3676L1116.16 11.5104M1123.08 14.3676L1130.25 17.3265M1123.08 14.3676H1159.73M1116.16 11.5104H1152.18M1116.16 11.5104L1109.47 8.74991M1074.07 8.74991H1109.47M1074.07 8.74991L1071.84 7.73857L1068.19 6.08082M1074.07 8.74991H1038.66M1130.25 17.3265L1137.68 20.3925M1130.25 17.3265H1167.55M1159.73 14.3676L1152.18 11.5104M1159.73 14.3676L1167.55 17.3265M1152.18 11.5104L1144.88 8.74991M1109.47 8.74991H1144.88M1109.47 8.74991L1103.01 6.08082M1167.55 17.3265L1175.65 20.3925M1180.29 8.74991L1172.65 6.08082M1180.29 8.74991H1144.88M1144.88 8.74991L1143.99 8.41099L1142.21 7.73857L1137.83 6.08082M1099.71 20.3925H1137.68M1099.71 20.3925H1061.74M1145.38 23.5714L1137.68 20.3925M1145.38 23.5714L1153.37 26.8697M1145.38 23.5714H1184.05M1137.68 20.3925H1175.65M1061.74 20.3925H1023.77M1061.74 20.3925L1055.66 17.3265M1175.65 20.3925L1184.05 23.5714M1055.66 17.3265H1018.37M1153.37 26.8697L1161.67 30.2943M1153.37 26.8697H1192.77M1184.05 23.5714L1185.13 23.9767L1192.77 26.8697M1192.77 26.8697L1201.82 30.2943M1121.52 30.2943L1122.48 30.7319L1129.36 33.8529M1121.52 30.2943H1161.67M1121.52 30.2943H1081.37M1161.67 30.2943L1170.29 33.8529M1161.67 30.2943H1201.82M1201.82 30.2943L1211.23 33.8529M1129.36 33.8529H1170.29M1129.36 33.8529H1088.42M1179.26 37.553L1170.29 33.8529M1179.26 37.553L1188.59 41.4034M1179.26 37.553H1221.01M1170.29 33.8529H1211.23M1088.42 33.8529H1047.49M1088.42 33.8529L1081.37 30.2943M1211.23 33.8529L1221.01 37.553M1081.37 30.2943H1041.22M1188.59 41.4034L1198.3 45.4135M1188.59 41.4034H1231.19M1221.01 37.553L1231.19 41.4034M1231.19 41.4034L1241.78 45.4135M1154.82 45.4135L1164.03 49.5934M1154.82 45.4135H1198.3M1154.82 45.4135H1111.34M1198.3 45.4135L1208.43 49.5934M1198.3 45.4135H1241.78M1241.78 45.4135L1252.83 49.5934M1164.03 49.5934H1208.43M1164.03 49.5934H1119.62M1218.99 53.9542L1208.43 49.5934M1218.99 53.9542L1230.03 58.5075M1218.99 53.9542H1264.36M1208.43 49.5934H1252.83M1119.62 49.5934H1075.22M1119.62 49.5934L1111.34 45.4135M1252.83 49.5934L1264.36 53.9542M1111.34 45.4135H1067.86M1230.03 58.5075L1241.56 63.267M1230.03 58.5075H1276.39M1264.36 53.9542L1276.39 58.5075M1276.39 58.5075L1288.97 63.267M1194.14 63.267L1205.11 68.2467M1194.14 63.267H1241.56M1194.14 63.267H1146.73M1241.56 63.267L1253.62 68.2467M1241.56 63.267H1288.97M1288.97 63.267L1302.13 68.2467M1205.11 68.2467H1253.62M1205.11 68.2467H1156.6M1266.26 73.4621L1253.62 68.2467M1266.26 73.4621L1279.51 78.9304M1266.26 73.4621H1315.92M1253.62 68.2467H1302.13M1156.6 68.2467H1108.09M1156.6 68.2467L1146.73 63.267M1302.13 68.2467L1315.92 73.4621M1146.73 63.267H1099.31M1279.51 78.9304L1293.41 84.6709M1279.51 78.9304H1330.37M1315.92 73.4621L1330.37 78.9304M1330.37 78.9304L1345.54 84.6709M1241.29 84.6709L1254.57 90.7037M1241.29 84.6709H1293.41M1241.29 84.6709H1189.16M1293.41 84.6709L1308.03 90.7037M1293.41 84.6709H1345.54M1345.54 84.6709L1361.49 90.7037M1254.57 90.7037H1308.03M1254.57 90.7037H1201.12M1323.41 97.0522L1308.03 90.7037M1323.41 97.0522L1339.62 103.742M1323.41 97.0522H1378.27M1308.03 90.7037H1361.49M1201.12 90.7037H1147.66M1201.12 90.7037L1189.16 84.6709M1361.49 90.7037L1378.27 97.0522M1361.49 90.7037H1414.94M1189.16 84.6709H1137.03M1339.62 103.742L1356.72 110.801M1339.62 103.742H1395.95M1378.27 97.0522L1395.95 103.742M1414.94 90.7037H1463.51M1395.95 103.742L1414.6 110.801M1298.84 110.801L1315.27 118.26M1298.84 110.801H1356.72M1298.84 110.801H1240.95M1356.72 110.801L1374.79 118.26M1356.72 110.801H1414.6M1414.6 110.801L1434.32 118.26M1414.6 110.801H1463.51M1315.27 118.26H1374.79M1315.27 118.26H1255.74M1393.92 126.156L1374.79 118.26M1393.92 126.156L1414.2 134.526M1393.92 126.156H1455.19M1374.79 118.26H1434.32M1255.74 118.26H1196.21M1255.74 118.26L1240.95 110.801M1434.32 118.26L1455.19 126.156M1434.32 118.26H1463.51M1240.95 110.801H1183.07M1414.2 134.526L1435.74 143.417M1414.2 134.526H1463.51M1455.19 126.156H1463.51M1455.19 126.156L1463.51 129.305M1370.67 143.417L1391.51 152.876M1370.67 143.417H1435.74M1370.67 143.417H1305.61M1435.74 143.417L1458.66 152.876M1435.74 143.417H1463.51M1391.51 152.876H1458.66M1391.51 152.876H1324.36M1458.66 152.876L1463.51 154.879M1458.66 152.876H1463.51M1324.36 152.876H1257.21M1324.36 152.876L1305.61 143.417M1305.61 143.417H1240.54M1462.87 185.274H1388.58M1462.87 185.274H1463.51M1462.87 185.274L1463.51 185.567M1388.58 185.274H1314.29M1388.58 185.274L1413.13 197.661M943.774 17.3265L945.277 18.4631L945.782 18.8457L947.826 20.3925M943.774 17.3265H981.07M943.774 17.3265H906.479M976.508 14.3676L973.19 12.2157L972.104 11.5104M976.508 14.3676L980.491 16.9507L981.07 17.3265M976.508 14.3676H1013.15M972.104 11.5104H1008.12M972.104 11.5104L967.847 8.74991M932.44 8.74991H967.847M932.44 8.74991L931.104 7.73857L928.913 6.08082M932.44 8.74991H897.034M981.07 17.3265L982.236 18.0824L985.797 20.3925M981.07 17.3265H1018.37M1013.15 14.3676L1008.12 11.5104M1013.15 14.3676L1018.37 17.3265M1008.12 11.5104L1004.45 9.43118L1003.25 8.74991M967.847 8.74991H1003.25M967.847 8.74991L963.732 6.08082M1018.37 17.3265L1023.77 20.3925M1038.66 8.74991L1037.99 8.41099L1033.37 6.08082M1038.66 8.74991H1003.25M1003.25 8.74991L1001.47 7.73857L998.551 6.08082M947.826 20.3925H985.797M947.826 20.3925H909.855M990.698 23.5714L985.797 20.3925M990.698 23.5714L995.784 26.8697M990.698 23.5714H1029.37M985.797 20.3925H1023.77M909.855 20.3925H871.884M909.855 20.3925L906.479 17.3265M1023.77 20.3925L1029.37 23.5714M906.479 17.3265H869.183M995.784 26.8697L999.06 28.9951L999.725 29.4259L1001.06 30.2943M995.784 26.8697H1035.18M1029.37 23.5714L1035.18 26.8697M1035.18 26.8697L1041.22 30.2943M960.912 30.2943L965.614 33.8529M960.912 30.2943H1001.06M960.912 30.2943H920.76M1001.06 30.2943L1006.55 33.8529M1001.06 30.2943H1041.22M1041.22 30.2943L1047.49 33.8529M965.614 33.8529H1006.55M965.614 33.8529H924.679M1012.25 37.553L1008.66 35.2233L1007.96 34.7641L1006.55 33.8529M1012.25 37.553L1018.19 41.4034M1012.25 37.553H1054.01M1006.55 33.8529H1047.49M924.679 33.8529H883.743M924.679 33.8529L920.76 30.2943M1047.49 33.8529L1054.01 37.553M920.76 30.2943H880.608M1018.19 41.4034L1024.37 45.4135M1018.19 41.4034H1060.79M1054.01 37.553L1060.79 41.4034M1060.79 41.4034L1067.86 45.4135M980.892 45.4135L983.625 47.4813L984.317 48.0054L986.416 49.5934M980.892 45.4135H1024.37M980.892 45.4135H937.41M1024.37 45.4135L1030.82 49.5934M1024.37 45.4135H1067.86M1067.86 45.4135L1075.22 49.5934M986.416 49.5934H1030.82M986.416 49.5934H942.013M1037.54 53.9542L1030.82 49.5934M1037.54 53.9542L1044.56 58.5075M1037.54 53.9542H1082.9M1030.82 49.5934H1075.22M942.013 49.5934H897.61M942.013 49.5934L940.844 48.532L937.41 45.4135M1075.22 49.5934L1082.9 53.9542M937.41 45.4135H893.928M1044.56 58.5075L1051.9 63.267M1044.56 58.5075H1090.93M1082.9 53.9542L1090.93 58.5075M1090.93 58.5075L1099.31 63.267M1004.49 63.267L1011.07 68.2467M1004.49 63.267H1051.9M1004.49 63.267H957.071M1051.9 63.267L1059.58 68.2467M1051.9 63.267H1099.31M1099.31 63.267L1108.09 68.2467M1011.07 68.2467H1059.58M1011.07 68.2467H962.555M1067.62 73.4621L1059.58 68.2467M1067.62 73.4621L1076.05 78.9304M1067.62 73.4621H1117.28M1059.58 68.2467H1108.09M962.555 68.2467H914.044M962.555 68.2467L957.071 63.267M1108.09 68.2467L1117.28 73.4621M957.071 63.267H909.657M1076.05 78.9304L1084.9 84.6709M1076.05 78.9304H1126.91M1117.28 73.4621L1126.91 78.9304M1126.91 78.9304L1137.03 84.6709M1032.77 84.6709L1040.74 90.7037M1032.77 84.6709H1084.9M1032.77 84.6709H980.643M1084.9 84.6709L1094.2 90.7037M1084.9 84.6709H1137.03M1137.03 84.6709L1147.66 90.7037M1040.74 90.7037H1094.2M1040.74 90.7037H987.286M1103.99 97.0522L1094.2 90.7037M1103.99 97.0522L1114.3 103.742M1103.99 97.0522H1158.84M1094.2 90.7037H1147.66M987.286 90.7037H933.829M987.286 90.7037L980.643 84.6709M1147.66 90.7037L1158.84 97.0522M980.643 84.6709H928.514M1114.3 103.742L1125.19 110.801M1114.3 103.742H1170.63M1158.84 97.0522L1170.63 103.742M1170.63 103.742L1183.07 110.801M1067.3 110.801L1077.16 118.26M1067.3 110.801H1125.19M1067.3 110.801H1009.42M1125.19 110.801L1136.69 118.26M1125.19 110.801H1183.07M1183.07 110.801L1196.21 118.26M1077.16 118.26H1136.69M1077.16 118.26H1017.63M1148.86 126.156L1136.69 118.26M1148.86 126.156L1161.77 134.526M1148.86 126.156H1210.13M1136.69 118.26H1196.21M1017.63 118.26H958.106M1017.63 118.26L1009.42 110.801M1196.21 118.26L1210.13 126.156M1009.42 110.801H951.535M1161.77 134.526L1175.47 143.417M1161.77 134.526H1224.87M1210.13 126.156L1224.87 134.526M1224.87 134.526L1240.54 143.417M1110.4 143.417L1122.9 152.876M1110.4 143.417H1175.47M1110.4 143.417H1045.34M1175.47 143.417L1190.05 152.876M1175.47 143.417H1240.54M1240.54 143.417L1257.21 152.876M1122.9 152.876H1190.05M1122.9 152.876H1055.75M1205.6 162.961L1190.05 152.876M1205.6 162.961L1222.22 173.736M1205.6 162.961H1274.98M1190.05 152.876H1257.21M1055.75 152.876H988.603M1055.75 152.876L1045.34 143.417M1257.21 152.876L1274.98 162.961M1045.34 143.417H980.269M1222.22 173.736L1240.01 185.274M1222.22 173.736H1293.96M1274.98 162.961L1293.96 173.736M1293.96 173.736L1314.29 185.274M1165.72 185.274L1182.09 197.661M1165.72 185.274H1240.01M1165.72 185.274H1091.43M1240.01 185.274L1259.1 197.661M1240.01 185.274H1314.29M1314.29 185.274L1336.12 197.661M1182.09 197.661H1259.1M1182.09 197.661H1105.07M1279.66 210.991L1259.1 197.661M1279.66 210.991L1301.84 225.378M1279.66 210.991H1359.61M1259.1 197.661H1336.12M1105.07 197.661H1028.06M1105.07 197.661L1091.43 185.274M1336.12 197.661L1359.61 210.991M1336.12 197.661H1413.13M1091.43 185.274H1017.15M1301.84 225.378L1325.85 240.953M1301.84 225.378H1384.96M1359.61 210.991L1384.96 225.378M1413.13 197.661H1463.51M1384.96 225.378L1412.4 240.953M1384.96 225.378H1463.51M1239.3 240.953L1261.65 257.868M1239.3 240.953H1325.85M1239.3 240.953H1152.75M1325.85 240.953L1351.93 257.868M1325.85 240.953H1412.4M1412.4 240.953L1442.2 257.868M1412.4 240.953H1463.51M1261.65 257.868H1351.93M1261.65 257.868H1171.38M1380.35 276.305L1351.93 257.868M1380.35 276.305L1411.46 296.479M1380.35 276.305H1463.51M1351.93 257.868H1442.2M1171.38 257.868H1081.1M1171.38 257.868L1152.75 240.953M1442.2 257.868H1463.51M1442.2 257.868L1463.51 269.961M1152.75 240.953H1066.2M1411.46 296.479L1445.64 318.648M1411.46 296.479H1463.51M1341.97 318.648L1374.32 343.122M1341.97 318.648H1445.64M1341.97 318.648H1238.31M1445.64 318.648L1463.51 330.242M1445.64 318.648H1463.51M1374.32 343.122H1265.26M1374.32 343.122L1463.51 343.122M1265.26 343.122H1156.21M1265.26 343.122L1238.31 318.648M1238.31 318.648H1134.65M794.591 17.3265L794.758 17.7037L794.924 18.0824L795.092 18.4631L795.26 18.8457L795.771 20.003L795.942 20.3925M794.591 17.3265H831.887M794.591 17.3265H757.295M829.932 14.3676L828.51 12.2157L828.044 11.5104M829.932 14.3676L831.146 16.2046L831.887 17.3265M829.932 14.3676H866.576M828.044 11.5104H864.059M828.044 11.5104L826.67 9.43118L826.22 8.74991M790.813 8.74991L790.664 8.41099L790.074 7.07104L789.637 6.08082M790.813 8.74991H826.22M790.813 8.74991H755.406M831.887 17.3265L832.136 17.7037L832.387 18.0824L832.638 18.4631L832.891 18.8457L833.913 20.3925M831.887 17.3265H869.183M866.576 14.3676L864.68 12.2157L864.059 11.5104M866.576 14.3676L869.183 17.3265M864.059 11.5104L862.832 10.1184L861.926 9.08982L861.627 8.74991M826.22 8.74991L825.997 8.41099L825.552 7.73857L825.111 7.07104L824.892 6.7395L824.456 6.08082M826.22 8.74991H861.627M869.183 17.3265L871.2 19.6154L871.884 20.3925M897.034 8.74991L894.82 6.7395L894.095 6.08082M897.034 8.74991H861.627M861.627 8.74991L859.565 6.40942L859.275 6.08082M795.942 20.3925H833.913M795.942 20.3925H757.971M836.013 23.5714L833.913 20.3925M836.013 23.5714L838.193 26.8697M836.013 23.5714H874.684M833.913 20.3925H871.884M757.971 20.3925H720M757.971 20.3925L757.295 17.3265M871.884 20.3925L874.684 23.5714M757.295 17.3265H720M838.193 26.8697L838.751 27.7136L839.598 28.9951L840.456 30.2943M838.193 26.8697H877.591M874.684 23.5714L875.042 23.9767L877.591 26.8697M877.591 26.8697L877.961 27.2907L878.334 27.7136L878.709 28.139L880.608 30.2943M800.304 30.2943L801.871 33.8529M800.304 30.2943H840.456M800.304 30.2943H760.152M840.456 30.2943L842.807 33.8529M840.456 30.2943H880.608M880.608 30.2943L882.947 32.9501L883.345 33.4005L883.743 33.8529M801.871 33.8529H842.807M801.871 33.8529H760.936M845.252 37.553L845.564 38.026L845.879 38.501L846.194 38.9789L847.796 41.4034M845.252 37.553L844.018 35.6845L843.712 35.2233L843.41 34.7641L842.807 33.8529M845.252 37.553H887.003M842.807 33.8529H883.743M760.936 33.8529H720M760.936 33.8529L760.152 30.2943M883.743 33.8529L887.003 37.553M760.152 30.2943H720M847.796 41.4034L850.109 44.9031L850.446 45.4135M847.796 41.4034H890.395M887.003 37.553L887.838 38.501L890.395 41.4034M890.395 41.4034L891.703 42.8878L893.928 45.4135M806.964 45.4135L807.875 47.4813L808.105 48.0054L808.805 49.5934M806.964 45.4135H850.446M806.964 45.4135H763.482M850.446 45.4135L853.208 49.5934M850.446 45.4135H893.928M893.928 45.4135L897.61 49.5934M808.805 49.5934H853.208M808.805 49.5934H764.402M856.089 53.9542L853.208 49.5934M856.089 53.9542L859.098 58.5075M856.089 53.9542H901.452M853.208 49.5934H897.61M764.402 49.5934H720M764.402 49.5934L764.168 48.532L763.708 46.442L763.482 45.4135M897.61 49.5934L901.452 53.9542M763.482 45.4135H720M859.098 58.5075L861.443 62.0573L862.243 63.267M859.098 58.5075H905.464M901.452 53.9542L905.464 58.5075M905.464 58.5075L907.537 60.8607L909.657 63.267M814.828 63.267L817.022 68.2467M814.828 63.267H862.243M814.828 63.267H767.414M862.243 63.267L865.533 68.2467M862.243 63.267H909.657M909.657 63.267L914.044 68.2467M817.022 68.2467H865.533M817.022 68.2467H768.511M868.979 73.4621L868.102 72.1354L865.533 68.2467M868.979 73.4621L872.592 78.9304M868.979 73.4621H918.639M865.533 68.2467H914.044M768.511 68.2467H720M768.511 68.2467L767.414 63.267M914.044 68.2467L918.639 73.4621M767.414 63.267H720M872.592 78.9304L876.385 84.6709M872.592 78.9304H923.456M918.639 73.4621L923.456 78.9304M923.456 78.9304L928.514 84.6709M824.257 84.6709L826.914 90.7037M824.257 84.6709H876.385M824.257 84.6709H772.128M876.385 84.6709L880.371 90.7037M876.385 84.6709H928.514M928.514 84.6709L933.829 90.7037M826.914 90.7037H880.371M826.914 90.7037H773.457M884.567 97.0522L880.371 90.7037M884.567 97.0522L888.987 103.742M884.567 97.0522H939.422M880.371 90.7037H933.829M773.457 90.7037H720M773.457 90.7037L772.29 85.4087L772.128 84.6709M933.829 90.7037L939.422 97.0522M772.128 84.6709H720M888.987 103.742L893.651 110.801M888.987 103.742H945.316M939.422 97.0522L943.812 102.036L945.316 103.742M945.316 103.742L951.535 110.801M835.767 110.801L839.053 118.26M835.767 110.801H893.651M835.767 110.801H777.884M893.651 110.801L898.58 118.26M893.651 110.801H951.535M951.535 110.801L958.106 118.26M839.053 118.26H898.58M839.053 118.26H779.526M903.797 126.156L898.58 118.26M903.797 126.156L909.327 134.526M903.797 126.156H965.062M898.58 118.26H958.106M779.526 118.26H720M779.526 118.26L777.884 110.801M958.106 118.26L965.062 126.156M777.884 110.801H720M909.327 134.526L915.202 143.417M909.327 134.526H972.437M965.062 126.156L972.437 134.526M972.437 134.526L980.269 143.417M850.134 143.417L854.301 152.876M850.134 143.417H915.202M850.134 143.417H785.067M915.202 143.417L921.452 152.876M915.202 143.417H980.269M980.269 143.417L988.603 152.876M854.301 152.876H921.452M854.301 152.876H787.15M928.116 162.961L921.452 152.876M928.116 162.961L935.236 173.736M928.116 162.961H997.488M921.452 152.876H988.603M787.15 152.876H720M787.15 152.876L785.067 143.417M988.603 152.876L997.488 162.961M785.067 143.417H720M935.236 173.736L942.86 185.274M935.236 173.736H1006.98M997.488 162.961L1006.98 173.736M1006.98 173.736L1017.15 185.274M868.573 185.274L874.029 197.661M868.573 185.274H942.86M868.573 185.274H794.287M942.86 185.274L951.044 197.661M942.86 185.274H1017.15M1017.15 185.274L1028.06 197.661M874.029 197.661H951.044M874.029 197.661H797.014M959.852 210.991L951.044 197.661M959.852 210.991L969.358 225.378M959.852 210.991H1039.8M951.044 197.661H1028.06M797.014 197.661H720M797.014 197.661L794.287 185.274M1028.06 197.661L1039.8 210.991M794.287 185.274H720M969.358 225.378L979.65 240.953M969.358 225.378H1052.48M1039.8 210.991L1052.48 225.378M1052.48 225.378L1066.2 240.953M893.099 240.953L900.551 257.868M893.099 240.953H979.65M893.099 240.953H806.55M979.65 240.953L990.826 257.868M979.65 240.953H1066.2M1066.2 240.953L1081.1 257.868M900.551 257.868H990.826M900.551 257.868H810.275M1003.01 276.305L990.826 257.868M1003.01 276.305L1016.34 296.479M1003.01 276.305H1097.35M990.826 257.868H1081.1M810.275 257.868H720M810.275 257.868L806.55 240.953M1081.1 257.868L1097.35 276.305M806.55 240.953H720M1016.34 296.479L1030.99 318.648M1016.34 296.479H1115.12M1097.35 276.305L1115.12 296.479M1115.12 296.479L1134.65 318.648M927.324 318.648L938.105 343.122M927.324 318.648H1030.99M927.324 318.648H823.662M1030.99 318.648L1047.16 343.122M1030.99 318.648H1134.65M1134.65 318.648L1156.21 343.122M1047.16 343.122H938.105M1047.16 343.122H1156.21M938.105 343.122H829.053M829.053 343.122H720M829.053 343.122L823.662 318.648M823.662 318.648H720M645.409 17.3265L645.242 17.7037L645.076 18.0824L644.907 18.4631L644.739 18.8457L644.4 19.6154L644.229 20.003L644.058 20.3925M645.409 17.3265H682.704M645.409 17.3265H608.112M683.355 14.3676L683.985 11.5104M683.355 14.3676L682.704 17.3265M683.355 14.3676H720M683.985 11.5104L684.062 11.1602L684.139 10.8114L684.215 10.4641L684.593 8.74991M683.985 11.5104H720M649.186 8.74991L649.335 8.41099L649.925 7.07104L650.362 6.08082M649.186 8.74991H684.593M649.186 8.74991H613.78M682.704 17.3265L682.62 17.7037L682.538 18.0824L682.453 18.4631L682.029 20.3925M682.704 17.3265H720M720 14.3676V11.5104M720 14.3676V17.3265M720 11.5104V8.74991M684.593 8.74991H720M684.593 8.74991L684.815 7.73857L684.89 7.40407L685.181 6.08082M720 17.3265V20.3925M755.406 8.74991L755.184 7.73857L755.11 7.40407L755.037 7.07104L754.963 6.7395L754.891 6.40942L754.819 6.08082M755.406 8.74991H720M720 8.74991V6.08082M644.058 20.3925H682.029M644.058 20.3925H606.087M681.329 23.5714L681.239 23.9767L681.15 24.3843L680.602 26.8697M681.329 23.5714L682.029 20.3925M681.329 23.5714H720M682.029 20.3925H720M606.087 20.3925H568.116M606.087 20.3925L606.599 19.6154L606.855 19.2298L607.108 18.8457L607.362 18.4631L607.612 18.0824L607.863 17.7037L608.112 17.3265M720 20.3925V23.5714M608.112 17.3265H570.816M680.602 26.8697L679.848 30.2943M680.602 26.8697H720M720 23.5714V26.8697M720 26.8697V30.2943M639.696 30.2943L638.128 33.8529M639.696 30.2943H679.848M639.696 30.2943H599.544M679.848 30.2943L679.064 33.8529M679.848 30.2943H720M720 30.2943V33.8529M638.128 33.8529H679.064M638.128 33.8529H597.193M678.249 37.553L679.064 33.8529M678.249 37.553L677.401 41.4034M678.249 37.553H720M679.064 33.8529H720M597.193 33.8529H556.257M597.193 33.8529L599.544 30.2943M720 33.8529V37.553M599.544 30.2943H559.392M677.401 41.4034L677.074 42.8878L676.742 44.3952L676.518 45.4135M677.401 41.4034H720M720 37.553V41.4034M720 41.4034V45.4135M633.036 45.4135L632.124 47.4813L631.894 48.0054L631.194 49.5934M633.036 45.4135H676.518M633.036 45.4135H589.554M676.518 45.4135L676.291 46.442L675.831 48.532L675.597 49.5934M676.518 45.4135H720M720 45.4135V49.5934M631.194 49.5934H675.597M631.194 49.5934H586.792M674.637 53.9542L674.759 53.3986L675.597 49.5934M674.637 53.9542L673.634 58.5075M674.637 53.9542H720M675.597 49.5934H720M586.792 49.5934H542.389M586.792 49.5934L589.554 45.4135M720 49.5934V53.9542M589.554 45.4135H546.071M673.634 58.5075L672.585 63.267M673.634 58.5075H720M720 53.9542V58.5075M720 58.5075V63.267M625.171 63.267L622.978 68.2467M625.171 63.267H672.585M625.171 63.267H577.757M672.585 63.267L671.489 68.2467M672.585 63.267H720M720 63.267V68.2467M622.978 68.2467H671.489M622.978 68.2467H574.467M670.34 73.4621L671.489 68.2467M670.34 73.4621L669.136 78.9304M670.34 73.4621H720M671.489 68.2467H720M574.467 68.2467H525.956M574.467 68.2467L577.757 63.267M720 68.2467V73.4621M577.757 63.267H530.342M669.136 78.9304L667.871 84.6709M669.136 78.9304H720M720 73.4621V78.9304M720 78.9304V84.6709M615.742 84.6709L613.085 90.7037M615.742 84.6709H667.871M615.742 84.6709H563.614M667.871 84.6709L666.543 90.7037M667.871 84.6709H720M720 84.6709V90.7037M613.085 90.7037H666.543M613.085 90.7037H559.628M665.144 97.0522L666.543 90.7037M665.144 97.0522L663.671 103.742M665.144 97.0522H720M666.543 90.7037H720M559.628 90.7037H506.17M559.628 90.7037L563.614 84.6709M720 90.7037V97.0522M563.614 84.6709H511.486M663.671 103.742L662.116 110.801M663.671 103.742H720M720 97.0522V103.742M720 103.742V110.801M604.233 110.801L600.946 118.26M604.233 110.801H662.116M604.233 110.801H546.349M662.116 110.801L660.473 118.26M662.116 110.801H720M720 110.801V118.26M600.946 118.26H660.473M600.946 118.26H541.42M658.734 126.156L660.473 118.26M658.734 126.156L656.89 134.526M658.734 126.156H720M660.473 118.26H720M541.42 118.26H481.893M541.42 118.26L546.349 110.801M720 118.26V126.156M546.349 110.801H488.465M656.89 134.526L654.932 143.417M656.89 134.526H720M720 126.156V134.526M720 134.526V143.417M589.865 143.417L585.698 152.876M589.865 143.417H654.932M589.865 143.417H524.798M654.932 143.417L652.849 152.876M654.932 143.417H720M720 143.417V152.876M585.698 152.876H652.849M585.698 152.876H518.548M650.628 162.961L652.849 152.876M650.628 162.961L648.255 173.736M650.628 162.961H720M652.849 152.876H720M518.548 152.876H451.397M518.548 152.876L524.798 143.417M720 152.876V162.961M524.798 143.417H459.73M648.255 173.736L645.713 185.274M648.255 173.736H720M720 162.961V173.736M720 173.736V185.274M571.427 185.274L565.97 197.661M571.427 185.274H645.713M571.427 185.274H497.14M645.713 185.274L642.985 197.661M645.713 185.274H720M720 185.274V197.661M565.97 197.661H642.985M565.97 197.661H488.956M640.049 210.991L642.985 197.661M640.049 210.991L636.881 225.378M640.049 210.991H720M642.985 197.661H720M488.956 197.661H411.941M488.956 197.661L497.14 185.274M720 197.661V210.991M497.14 185.274H422.853M636.881 225.378L633.45 240.953M636.881 225.378H720M720 210.991V225.378M720 225.378V240.953M546.9 240.953L539.449 257.868M546.9 240.953H633.45M546.9 240.953H460.35M633.45 240.953L629.724 257.868M633.45 240.953H720M720 240.953V257.868M539.449 257.868H629.724M539.449 257.868H449.173M625.664 276.305L629.724 257.868M625.664 276.305L621.22 296.479M625.664 276.305H720M629.724 257.868H720M449.173 257.868H358.898M449.173 257.868L460.35 240.953M720 257.868V276.305M460.35 240.953H373.8M621.22 296.479L616.337 318.648M621.22 296.479H720M720 276.305V296.479M720 296.479V318.648M512.675 318.648L501.894 343.122M512.675 318.648H616.337M512.675 318.648H409.013M616.337 318.648L610.947 343.122M616.337 318.648H720M720 318.648V343.122M610.947 343.122H501.894M610.947 343.122H720M501.894 343.122H392.841M392.841 343.122H283.788M392.841 343.122L409.013 318.648M409.013 318.648H305.35M496.225 17.3265L494.218 18.8457L492.174 20.3925M496.225 17.3265H533.521M496.225 17.3265H458.93M536.779 14.3676L539.926 11.5104M536.779 14.3676L533.521 17.3265M536.779 14.3676H573.423M539.926 11.5104H575.94M539.926 11.5104L542.215 9.43118L542.966 8.74991M507.559 8.74991H542.966M507.559 8.74991L508.896 7.73857L511.086 6.08082M507.559 8.74991H472.152M533.521 17.3265L530.145 20.3925M533.521 17.3265H570.816M573.423 14.3676L575.94 11.5104M573.423 14.3676L570.816 17.3265M575.94 11.5104L577.167 10.1184L578.073 9.08982L578.372 8.74991M542.966 8.74991H578.372M542.966 8.74991L545.179 6.7395L545.905 6.08082M570.816 17.3265L568.8 19.6154L568.116 20.3925M613.78 8.74991L614.003 8.41099L614.447 7.73857L615.107 6.7395L615.543 6.08082M613.78 8.74991H578.372M578.372 8.74991L578.671 8.41099L579.264 7.73857L580.724 6.08082M492.174 20.3925H530.145M492.174 20.3925H454.202M526.643 23.5714L527.089 23.1677L527.531 22.7654L529.281 21.1759L530.145 20.3925M526.643 23.5714L523.932 26.0333L523.011 26.8697M526.643 23.5714H565.315M530.145 20.3925H568.116M454.202 20.3925H416.231M454.202 20.3925L457.763 18.0824L458.93 17.3265M568.116 20.3925L565.315 23.5714M458.93 17.3265H421.633M523.011 26.8697L522.548 27.2907L522.082 27.7136L520.671 28.9951L520.196 29.4259L519.24 30.2943M523.011 26.8697H562.409M565.315 23.5714L564.957 23.9767L562.409 26.8697M562.409 26.8697L562.038 27.2907L561.665 27.7136L561.291 28.139L559.392 30.2943M479.088 30.2943L474.385 33.8529M479.088 30.2943H519.24M479.088 30.2943H438.936M519.24 30.2943L515.321 33.8529M519.24 30.2943H559.392M559.392 30.2943L556.257 33.8529M474.385 33.8529H515.321M474.385 33.8529H433.45M511.246 37.553L515.321 33.8529M511.246 37.553L507.006 41.4034M511.246 37.553H552.997M515.321 33.8529H556.257M433.45 33.8529H392.514M433.45 33.8529L438.936 30.2943M556.257 33.8529L552.997 37.553M438.936 30.2943H398.783M507.006 41.4034L502.59 45.4135M507.006 41.4034H549.605M552.997 37.553L552.161 38.501L549.605 41.4034M549.605 41.4034L548.297 42.8878L546.968 44.3952L546.071 45.4135M459.108 45.4135L456.374 47.4813L453.584 49.5934M459.108 45.4135H502.59M459.108 45.4135H415.625M502.59 45.4135L497.986 49.5934M502.59 45.4135H546.071M546.071 45.4135L542.389 49.5934M453.584 49.5934H497.986M453.584 49.5934H409.182M493.185 53.9542L497.986 49.5934M493.185 53.9542L488.17 58.5075M493.185 53.9542H538.547M497.986 49.5934H542.389M409.182 49.5934H364.778M409.182 49.5934L415.625 45.4135M542.389 49.5934L538.547 53.9542M415.625 45.4135H372.144M488.17 58.5075L486.881 59.6775L482.929 63.267M488.17 58.5075H534.535M538.547 53.9542L534.535 58.5075M534.535 58.5075L534.022 59.091L532.463 60.8607L530.342 63.267M435.514 63.267L428.933 68.2467M435.514 63.267H482.929M435.514 63.267H388.1M482.929 63.267L477.445 68.2467M482.929 63.267H530.342M530.342 63.267L525.956 68.2467M428.933 68.2467H477.445M428.933 68.2467H380.422M471.701 73.4621L475.322 70.1741L477.445 68.2467M471.701 73.4621L465.678 78.9304M471.701 73.4621H521.361M477.445 68.2467H525.956M380.422 68.2467H331.911M380.422 68.2467L388.1 63.267M525.956 68.2467L521.361 73.4621M388.1 63.267H340.685M465.678 78.9304L459.357 84.6709M465.678 78.9304H516.543M521.361 73.4621L516.543 78.9304M516.543 78.9304L511.486 84.6709M407.228 84.6709L399.256 90.7037M407.228 84.6709H459.357M407.228 84.6709H355.1M459.357 84.6709L452.713 90.7037M459.357 84.6709H511.486M511.486 84.6709L506.17 90.7037M399.256 90.7037H452.713M399.256 90.7037H345.799M445.722 97.0522L452.713 90.7037M445.722 97.0522L438.355 103.742M445.722 97.0522H500.578M452.713 90.7037H506.17M345.799 90.7037H292.342M345.799 90.7037L355.1 84.6709M506.17 90.7037L500.578 97.0522M355.1 84.6709H302.972M438.355 103.742L430.582 110.801M438.355 103.742H494.684M500.578 97.0522L494.684 103.742M494.684 103.742L488.465 110.801M372.698 110.801L362.84 118.26M372.698 110.801H430.582M372.698 110.801H314.814M430.582 110.801L422.367 118.26M430.582 110.801H488.465M488.465 110.801L481.893 118.26M362.84 118.26H422.367M362.84 118.26H303.313M413.671 126.156L422.367 118.26M413.671 126.156L404.453 134.526M413.671 126.156H474.937M422.367 118.26H481.893M303.313 118.26H243.787M303.313 118.26L314.814 110.801M481.893 118.26L474.937 126.156M314.814 110.801H256.93M404.453 134.526L394.663 143.417M404.453 134.526H467.563M474.937 126.156L467.563 134.526M467.563 134.526L459.73 143.417M329.596 143.417L317.095 152.876M329.596 143.417H394.663M329.596 143.417H264.528M394.663 143.417L384.246 152.876M394.663 143.417H459.73M459.73 143.417L451.397 152.876M317.095 152.876H384.246M317.095 152.876H249.945M373.14 162.961L384.246 152.876M373.14 162.961L361.273 173.736M373.14 162.961H442.512M384.246 152.876H451.397M249.945 152.876H182.794M249.945 152.876L264.528 143.417M451.397 152.876L442.512 162.961M264.528 143.417H199.461M361.273 173.736L348.567 185.274M361.273 173.736H433.019M442.512 162.961L433.019 173.736M433.019 173.736L422.853 185.274M274.28 185.274L257.912 197.661M274.28 185.274H348.567M274.28 185.274H199.993M348.567 185.274L334.926 197.661M348.567 185.274H422.853M422.853 185.274L411.941 197.661M257.912 197.661H334.926M257.912 197.661H180.897M320.246 210.991L334.926 197.661M320.246 210.991L304.402 225.378M320.246 210.991H400.197M334.926 197.661H411.941M180.897 197.661H103.882M180.897 197.661L199.993 185.274M411.941 197.661L400.197 210.991M199.993 185.274H125.706M304.402 225.378L287.25 240.953M304.402 225.378H387.521M400.197 210.991L387.521 225.378M387.521 225.378L373.8 240.953M200.701 240.953L178.347 257.868M200.701 240.953H287.25M200.701 240.953H114.151M287.25 240.953L268.622 257.868M287.25 240.953H373.8M373.8 240.953L358.898 257.868M178.347 257.868H268.622M178.347 257.868H88.0712M248.318 276.305L268.622 257.868M248.318 276.305L226.101 296.479M248.318 276.305H342.654M268.622 257.868H358.898M88.0712 257.868H-2.20437M88.0712 257.868L114.151 240.953M358.898 257.868L342.654 276.305M114.151 240.953H27.6012M226.101 296.479L201.688 318.648M226.101 296.479H324.881M342.654 276.305L324.881 296.479M324.881 296.479L305.35 318.648M98.0257 318.648L65.6829 343.122M98.0257 318.648H201.688M98.0257 318.648H-5.63692M201.688 318.648L174.736 343.122M201.688 318.648H305.35M305.35 318.648L283.788 343.122M174.736 343.122H65.6829M174.736 343.122H283.788M65.6829 343.122L-23.5122 343.122M-5.63692 318.648L-23.5122 330.242M-5.63692 318.648H-23.5122M347.042 17.3265L340.289 20.3925M347.042 17.3265H384.337M347.042 17.3265H309.746M390.203 14.3676L395.867 11.5104M390.203 14.3676L384.337 17.3265M390.203 14.3676H426.847M395.867 11.5104H431.881M395.867 11.5104L401.339 8.74991M365.932 8.74991H401.339M365.932 8.74991L368.16 7.73857L371.811 6.08082M365.932 8.74991H330.525M384.337 17.3265L378.26 20.3925M384.337 17.3265H421.633M426.847 14.3676L431.881 11.5104M426.847 14.3676L421.633 17.3265M431.881 11.5104L435.545 9.43118L436.746 8.74991M401.339 8.74991L402.01 8.41099L406.63 6.08082M401.339 8.74991H436.746M421.633 17.3265L416.231 20.3925M472.152 8.74991L476.267 6.08082M472.152 8.74991H436.746M436.746 8.74991L438.528 7.73857L441.448 6.08082M340.289 20.3925H378.26M340.289 20.3925H302.318M371.959 23.5714L378.26 20.3925M371.959 23.5714L365.42 26.8697M371.959 23.5714H410.63M378.26 20.3925H416.231M302.318 20.3925H264.347M302.318 20.3925L309.746 17.3265M416.231 20.3925L410.63 23.5714M309.746 17.3265H272.451M365.42 26.8697L363.747 27.7136L358.631 30.2943M365.42 26.8697H404.818M410.63 23.5714L404.818 26.8697M404.818 26.8697L398.783 30.2943M318.479 30.2943L317.517 30.7319L310.642 33.8529M318.479 30.2943H358.631M318.479 30.2943H278.327M358.631 30.2943L351.578 33.8529M358.631 30.2943H398.783M398.783 30.2943L398.013 30.7319L392.514 33.8529M310.642 33.8529H351.578M310.642 33.8529H269.706M344.243 37.553L351.578 33.8529M344.243 37.553L336.611 41.4034M344.243 37.553H385.994M351.578 33.8529H392.514M269.706 33.8529H228.771M269.706 33.8529L278.327 30.2943M392.514 33.8529L385.994 37.553M278.327 30.2943H238.175M336.611 41.4034L328.662 45.4135M336.611 41.4034H379.21M385.994 37.553L379.21 41.4034M379.21 41.4034L372.144 45.4135M285.18 45.4135L275.974 49.5934M285.18 45.4135H328.662M285.18 45.4135H241.698M328.662 45.4135L320.376 49.5934M328.662 45.4135H372.144M372.144 45.4135L364.778 49.5934M275.974 49.5934H320.376M275.974 49.5934H231.571M311.732 53.9542L320.376 49.5934M311.732 53.9542L302.705 58.5075M311.732 53.9542H357.095M320.376 49.5934H364.778M231.571 49.5934H187.168M231.571 49.5934L241.698 45.4135M364.778 49.5934L357.095 53.9542M241.698 45.4135H198.215M302.705 58.5075L293.271 63.267M302.705 58.5075H349.072M357.095 53.9542L349.072 58.5075M349.072 58.5075L340.685 63.267M245.857 63.267L234.889 68.2467M245.857 63.267H293.271M245.857 63.267H198.442M293.271 63.267L283.4 68.2467M293.271 63.267H340.685M340.685 63.267L331.911 68.2467M234.889 68.2467H283.4M234.889 68.2467H186.378M273.062 73.4621L283.4 68.2467M273.062 73.4621L262.222 78.9304M273.062 73.4621H322.721M283.4 68.2467H331.911M186.378 68.2467H137.867M186.378 68.2467L198.442 63.267M331.911 68.2467L322.721 73.4621M198.442 63.267H151.028M262.222 78.9304L250.843 84.6709M262.222 78.9304H313.086M322.721 73.4621L313.086 78.9304M313.086 78.9304L302.972 84.6709M198.714 84.6709L185.427 90.7037M198.714 84.6709H250.843M198.714 84.6709H146.586M250.843 84.6709L238.884 90.7037M250.843 84.6709H302.972M302.972 84.6709L292.342 90.7037M185.427 90.7037H238.884M185.427 90.7037H131.969M226.299 97.0522L238.884 90.7037M226.299 97.0522L213.039 103.742M226.299 97.0522H281.155M238.884 90.7037H292.342M131.969 90.7037H78.5124M131.969 90.7037L146.586 84.6709M292.342 90.7037L281.155 97.0522M146.586 84.6709H94.4576M213.039 103.742L199.046 110.801M213.039 103.742H269.368M281.155 97.0522L269.368 103.742M269.368 103.742L256.93 110.801M141.163 110.801L124.733 118.26M141.163 110.801H199.046M141.163 110.801H83.2794M199.046 110.801L184.26 118.26M199.046 110.801H256.93M256.93 110.801L243.787 118.26M124.733 118.26H184.26M124.733 118.26H65.2066M168.609 126.156L184.26 118.26M168.609 126.156L152.016 134.526M168.609 126.156H229.874M184.26 118.26H243.787M65.2066 118.26H5.67995M65.2066 118.26L83.2794 110.801M243.787 118.26L229.874 126.156M83.2794 110.801H25.3954M152.016 134.526L134.393 143.417M152.016 134.526H215.126M229.874 126.156L215.126 134.526M215.126 134.526L199.461 143.417M69.3261 143.417L48.4923 152.876M69.3261 143.417H134.393M69.3261 143.417H4.25876M134.393 143.417L115.643 152.876M134.393 143.417H199.461M199.461 143.417L182.794 152.876M48.4923 152.876H115.643M48.4923 152.876H-18.6584M95.6511 162.961L115.643 152.876M95.6511 162.961L74.2922 173.736M95.6511 162.961H165.023M115.643 152.876H182.794M-18.6584 152.876L4.25876 143.417M-18.6584 152.876H-23.5122M-18.6584 152.876L-23.5122 154.879M182.794 152.876L165.023 162.961M4.25876 143.417H-23.5122M74.2922 173.736L51.4199 185.274M74.2922 173.736H146.037M165.023 162.961L146.037 173.736M146.037 173.736L125.706 185.274M-22.867 185.274H51.4199M-22.867 185.274H-23.5122M-22.867 185.274L-23.5122 185.567M51.4199 185.274L26.8669 197.661M51.4199 185.274H125.706M125.706 185.274L103.882 197.661M0.442839 210.991L26.8669 197.661M0.442839 210.991H80.3936M0.442839 210.991H-23.5122M0.442839 210.991L-23.5122 223.076M26.8669 197.661H103.882M26.8669 197.661H-23.5122M103.882 197.661L80.3936 210.991M80.3936 210.991L55.0437 225.378M55.0437 225.378L27.6012 240.953M55.0437 225.378H-23.5122M27.6012 240.953L-2.20437 257.868M27.6012 240.953H-23.5122M-2.20437 257.868H-23.5122M-2.20437 257.868L-23.5122 269.961M197.858 17.3265L188.405 20.3925M197.858 17.3265H235.155M197.858 17.3265H160.563M243.626 14.3676L251.807 11.5104M243.626 14.3676L235.155 17.3265M243.626 14.3676H280.271M251.807 11.5104H287.822M251.807 11.5104L259.712 8.74991M224.305 8.74991H259.712M224.305 8.74991L232.535 6.08082M224.305 8.74991H188.898M235.155 17.3265L226.376 20.3925M235.155 17.3265H272.451M280.271 14.3676L287.822 11.5104M280.271 14.3676L272.451 17.3265M287.822 11.5104L295.118 8.74991M259.712 8.74991L260.681 8.41099L267.354 6.08082M259.712 8.74991H295.118M272.451 17.3265L264.347 20.3925M330.525 8.74991L336.991 6.08082M330.525 8.74991H295.118M295.118 8.74991L296.013 8.41099L302.172 6.08082M188.405 20.3925H226.376M188.405 20.3925H150.434M217.273 23.5714L226.376 20.3925M217.273 23.5714L207.829 26.8697M217.273 23.5714H255.945M226.376 20.3925H264.347M150.434 20.3925H112.463M150.434 20.3925L160.563 17.3265M264.347 20.3925L255.945 23.5714M160.563 17.3265H123.267M207.829 26.8697L198.023 30.2943M207.829 26.8697H247.227M255.945 23.5714L254.873 23.9767L247.227 26.8697M247.227 26.8697L238.175 30.2943M157.871 30.2943L146.899 33.8529M157.871 30.2943H198.023M157.871 30.2943H117.719M198.023 30.2943L187.835 33.8529M198.023 30.2943H238.175M238.175 30.2943L228.771 33.8529M146.899 33.8529H187.835M146.899 33.8529H105.963M177.241 37.553L187.835 33.8529M177.241 37.553L166.216 41.4034M177.241 37.553H218.991M187.835 33.8529H228.771M105.963 33.8529H65.0277M105.963 33.8529L117.719 30.2943M228.771 33.8529L218.991 37.553M117.719 30.2943H77.5675M166.216 41.4034L154.734 45.4135M166.216 41.4034H208.814M218.991 37.553L208.814 41.4034M208.814 41.4034L198.215 45.4135M111.252 45.4135L98.3626 49.5934M111.252 45.4135H154.734M111.252 45.4135H67.7694M154.734 45.4135L142.766 49.5934M154.734 45.4135H198.215M198.215 45.4135L187.168 49.5934M98.3626 49.5934H142.766M98.3626 49.5934H53.9602M130.279 53.9542L142.766 49.5934M130.279 53.9542L117.242 58.5075M130.279 53.9542H175.643M142.766 49.5934H187.168M53.9602 49.5934H9.55783M53.9602 49.5934L67.7694 45.4135M187.168 49.5934L175.643 53.9542M67.7694 45.4135H24.2879M117.242 58.5075L103.614 63.267M117.242 58.5075H163.607M175.643 53.9542L163.607 58.5075M163.607 58.5075L151.028 63.267M56.1993 63.267L40.845 68.2467M56.1993 63.267H103.614M56.1993 63.267H8.78566M103.614 63.267L89.356 68.2467M103.614 63.267H151.028M151.028 63.267L137.867 68.2467M40.845 68.2467H89.356M74.4223 73.4621L89.356 68.2467M74.4223 73.4621L58.7652 78.9304M74.4223 73.4621H124.083M89.356 68.2467H137.867M137.867 68.2467L124.083 73.4621M8.78566 63.267H-23.5122M58.7652 78.9304L42.3289 84.6709M58.7652 78.9304H109.629M124.083 73.4621L109.629 78.9304M109.629 78.9304L94.4576 84.6709M-9.79981 84.6709H42.3289M-9.79981 84.6709H-23.5122M-9.79981 84.6709L-23.5122 89.1178M42.3289 84.6709L25.0546 90.7037M42.3289 84.6709H94.4576M94.4576 84.6709L78.5124 90.7037M6.87731 97.0522L25.0546 90.7037M6.87731 97.0522L-12.2766 103.742M6.87731 97.0522H61.733M6.87731 97.0522H-23.5122M25.0546 90.7037H78.5124M25.0546 90.7037H-23.5122M78.5124 90.7037L61.733 97.0522M-23.6632 89.1668L-23.5122 89.1178M-12.2766 103.742H44.0521M-12.2766 103.742H-23.5122M-12.2766 103.742L-23.5122 107.666M61.733 97.0522L44.0521 103.742M44.0521 103.742L25.3954 110.801M25.3954 110.801L5.67995 118.26M25.3954 110.801H-23.5122M-15.1879 126.156L5.67995 118.26M-15.1879 126.156H-23.5122M-15.1879 126.156L-23.5122 129.305M5.67995 118.26H-23.5122M48.6758 17.3265L36.521 20.3925M48.6758 17.3265H85.9715M48.6758 17.3265H11.3794M97.0498 14.3676L107.748 11.5104M97.0498 14.3676L85.9715 17.3265M97.0498 14.3676H133.694M107.748 11.5104H143.763M107.748 11.5104L118.084 8.74991M82.6776 8.74991H118.084M82.6776 8.74991L93.2587 6.08082M82.6776 8.74991H47.2709M85.9715 17.3265L74.492 20.3925M85.9715 17.3265H123.267M133.694 14.3676L143.763 11.5104M133.694 14.3676L123.267 17.3265M143.763 11.5104L153.491 8.74991M118.084 8.74991H153.491M118.084 8.74991L128.078 6.08082M123.267 17.3265L112.463 20.3925M188.898 8.74991L197.716 6.08082M188.898 8.74991H153.491M153.491 8.74991L162.897 6.08082M36.521 20.3925H74.492M36.521 20.3925H-1.45002M62.5888 23.5714L74.492 20.3925M62.5888 23.5714L50.2388 26.8697M62.5888 23.5714H101.26M74.492 20.3925H112.463M-1.45002 20.3925L11.3794 17.3265M-1.45002 20.3925H-23.5122M112.463 20.3925L101.26 23.5714M11.3794 17.3265H-23.5122M50.2388 26.8697L37.4155 30.2943M50.2388 26.8697H89.6364M101.26 23.5714L89.6364 26.8697M89.6364 26.8697L77.5675 30.2943M-2.73645 30.2943L-16.8438 33.8529M-2.73645 30.2943H37.4155M-2.73645 30.2943H-23.5122M37.4155 30.2943L24.0919 33.8529M37.4155 30.2943H77.5675M77.5675 30.2943L65.0277 33.8529M10.2378 37.553L24.0919 33.8529M10.2378 37.553L-4.17932 41.4034M10.2378 37.553H51.9884M10.2378 37.553H-23.5122M24.0919 33.8529H-16.8438M24.0919 33.8529H65.0277M-16.8438 33.8529L-23.5122 35.5347M-16.8438 33.8529H-23.5122M65.0277 33.8529L51.9884 37.553M-4.17932 41.4034L-19.1944 45.4135M-4.17932 41.4034H38.4193M-4.17932 41.4034H-23.5122M51.9884 37.553L38.4193 41.4034M38.4193 41.4034L24.2879 45.4135M-19.1944 45.4135H24.2879M-19.1944 45.4135L-23.5122 46.5664M-19.1944 45.4135H-23.5122M24.2879 45.4135L9.55783 49.5934M-5.80963 53.9542L9.55783 49.5934M-5.80963 53.9542L-21.8563 58.5075M-5.80963 53.9542H-23.5122M9.55783 49.5934H-23.5122M-23.7445 49.5934H-23.5122M-21.8563 58.5075H-23.5122M-21.8563 58.5075L-23.5122 58.9774M-23.9126 59.091L-23.5122 58.9774M-12.8823 14.3676L-0.296797 11.5104M-12.8823 14.3676H-23.5122M-12.8823 14.3676L-23.5122 16.7806M-0.296797 11.5104L11.8643 8.74991M-0.296797 11.5104H-23.5122M47.2709 8.74991L58.4399 6.08082M47.2709 8.74991H11.8643M11.8643 8.74991L23.6211 6.08082M11.8643 8.74991H-23.5122M1207.46 6.08082H1242.28M1207.46 6.08082H1172.65M1233.75 3.49914L1235.86 4.1367L1242.28 6.08082M1233.75 3.49914H1268M1242.28 6.08082H1277.1M1268 3.49914L1270.25 4.1367L1271.38 4.45696L1277.1 6.08082M1277.1 6.08082H1311.92M1311.92 6.08082H1346.74M1172.65 6.08082H1137.83M1346.74 6.08082H1381.56M1381.56 6.08082L1370.75 3.49914M1381.56 6.08082H1416.38M1370.75 3.49914H1405.01M1068.19 6.08082H1103.01M1068.19 6.08082H1033.37M1096.75 3.49914L1098.3 4.1367L1099.07 4.45696L1103.01 6.08082M1096.75 3.49914H1131M1103.01 6.08082H1137.83M1131 3.49914L1137.83 6.08082M1033.37 6.08082H998.551M928.913 6.08082H963.732M928.913 6.08082H894.095M959.751 3.49914L960.242 3.81694L960.734 4.1367L961.229 4.45696L963.732 6.08082M959.751 3.49914H994.002M963.732 6.08082H998.551M994.002 3.49914L998.551 6.08082M894.095 6.08082H859.275M789.637 6.08082H824.456M789.637 6.08082H754.819M822.751 3.49914L824.456 6.08082M822.751 3.49914H857.001M824.456 6.08082H859.275M857.001 3.49914L857.281 3.81694L857.563 4.1367L857.845 4.45696L859.275 6.08082M754.819 6.08082H720M650.362 6.08082H685.181M650.362 6.08082H615.543M685.749 3.49914L685.181 6.08082M685.749 3.49914H720M685.181 6.08082H720M720 3.49914V6.08082M615.543 6.08082H580.724M511.086 6.08082H545.905M511.086 6.08082H476.267M548.748 3.49914L548.046 4.1367L546.624 5.42705L545.905 6.08082M548.748 3.49914H582.998M545.905 6.08082H580.724M582.998 3.49914L582.718 3.81694L582.437 4.1367L582.154 4.45696L580.724 6.08082M476.267 6.08082H441.448M371.811 6.08082H406.63M371.811 6.08082H336.991M411.747 3.49914L410.483 4.1367L409.848 4.45696L406.63 6.08082M411.747 3.49914H445.998M406.63 6.08082H441.448M445.998 3.49914L445.437 3.81694L441.448 6.08082M336.991 6.08082H302.172M232.535 6.08082H267.354M232.535 6.08082H197.716M274.746 3.49914L272.921 4.1367L272.002 4.45696L267.354 6.08082M274.746 3.49914H308.996M267.354 6.08082H302.172M308.996 3.49914L308.155 3.81694L302.172 6.08082M197.716 6.08082H162.897M93.2587 6.08082H128.078M93.2587 6.08082H58.4399M137.745 3.49914L128.078 6.08082M137.745 3.49914H171.995M128.078 6.08082H162.897M171.995 3.49914L169.749 4.1367L168.618 4.45696L162.897 6.08082M58.4399 6.08082H23.6211M0.744116 3.49914L-11.1978 6.08082M0.744116 3.49914H34.9945M0.744116 3.49914H-23.5122M-11.1978 6.08082H23.6211M-11.1978 6.08082L-23.5122 8.74338M-11.1978 6.08082H-23.5122M34.9945 3.49914L32.1862 4.1367L23.6211 6.08082M1405.01 3.49914L1407.81 4.1367L1416.38 6.08082M1416.38 6.08082H1451.2M1451.2 6.08082L1463.51 8.74339M1451.2 6.08082H1463.51M1463.51 129.305V126.156M1463.51 129.305V134.526M1463.51 126.156V118.26M1463.51 134.526V136.086V143.417M1463.51 143.417V152.876M1463.51 68.2467V63.267M1463.51 68.2467V73.0429M1463.51 3.49914V6.08082M1463.51 6.08082V8.74339M1463.51 8.74339L1463.54 8.74991H1463.51M1463.51 8.74339V8.74991M1463.51 8.74991V11.5104M1463.51 11.5104V14.3676M1463.51 14.3676V16.7806M1463.51 16.7806V17.3265M1463.51 17.3265V20.3925M1463.51 20.3925V23.5714M1463.51 23.5714V25.6639M1463.51 25.6639V26.8697M1463.51 26.8697V30.2943M1463.51 30.2943V33.8529M1463.51 33.8529V35.5347M1463.51 35.5347V37.553M1463.51 37.553V41.4034M1463.51 41.4034V45.4135M1463.51 45.4135V46.5664M1463.51 46.5664V49.5934M1463.51 49.5934V53.9542M1463.51 53.9542V58.5075M1463.51 58.5075V58.9774M1463.51 58.9774V63.267M1463.51 73.4621V78.9304M1463.51 73.4621V73.0429M1463.51 78.9304V84.6709M1463.51 84.6709V89.1178M1463.51 89.1178V90.7037M1463.51 90.7037V97.0522M1463.51 97.0522V103.742M1463.51 103.742V107.666M1463.51 107.666V110.801M1463.51 110.801V118.26M1463.51 152.876V154.879M1463.51 154.879V162.961M1463.51 162.961V173.736M1463.51 173.736V185.274M1463.51 185.274V185.567M1463.51 185.567V197.661M1463.51 197.661V210.991M1463.51 210.991V223.076M1463.51 223.076V225.378M1463.51 225.378V240.953M1463.51 240.953V257.868M1463.51 257.868V269.961M1463.51 269.961V276.305M1463.51 276.305V296.479M1463.51 296.479V318.648M1463.51 318.648V330.242M1463.51 330.242V343.122M1463.51 343.122V343.209H-23.5122V343.122M-23.5122 73.4621V78.9304M-23.5122 73.4621V73.0429M-23.5122 73.0429V68.2467M-23.5122 68.2467V63.267M-23.5122 63.267V58.9774M-23.5122 58.9774V58.5075M-23.5122 58.5075V53.9542M-23.5122 53.9542V49.5934M-23.5122 49.5934V46.5664M-23.5122 46.5664V45.4135M-23.5122 45.4135V41.4034M-23.5122 41.4034V37.553M-23.5122 37.553V35.5347M-23.5122 35.5347V33.8529M-23.5122 33.8529V30.2943M-23.5122 30.2943V26.8697M-23.5122 26.8697V25.6639M-23.5122 25.6639V23.5714M-23.5122 23.5714V20.3925M-23.5122 20.3925V17.3265M-23.5122 17.3265V16.7806M-23.5122 16.7806V14.3676M-23.5122 14.3676V11.5104M-23.5122 11.5104V8.74991M-23.5122 8.74991H-23.5424L-23.5122 8.74338M-23.5122 8.74991V8.74338M-23.5122 8.74338V6.08082M-23.5122 6.08082V3.49914M-23.5122 343.122V330.242M-23.5122 330.242V318.648M-23.5122 318.648V296.48M-23.5122 296.48V276.305M-23.5122 276.305V269.961M-23.5122 269.961V257.868M-23.5122 257.868V240.953M-23.5122 240.953V225.378M-23.5122 225.378V223.076M-23.5122 223.076V210.991M-23.5122 210.991V197.661M-23.5122 197.661V185.567M-23.5122 185.567V185.274M-23.5122 185.274V173.736M-23.5122 173.736V162.961M-23.5122 162.961V154.879M-23.5122 154.879V152.876M-23.5122 152.876V143.417M-23.5122 143.417V134.526M-23.5122 134.526V129.305M-23.5122 129.305V126.156M-23.5122 126.156V118.26M-23.5122 118.26V110.801M-23.5122 110.801V107.666M-23.5122 107.666V103.742M-23.5122 103.742V97.0522M-23.5122 97.0522V90.7037M-23.5122 90.7037V89.1178M-23.5122 89.1178V84.6709M-23.5122 84.6709V78.9304" stroke="url(#paint0_radial_770_2521)" stroke-opacity="0.6" stroke-width="0.899313" stroke-miterlimit="10" stroke-linecap="round" stroke-linejoin="round"/>
<defs>
<radialGradient id="paint0_radial_770_2521" cx="0" cy="0" r="1" gradientUnits="userSpaceOnUse" gradientTransform="translate(720 330.596) rotate(-90) scale(535.684 2328.99)">
<stop stop-color="#525252"/>
<stop offset="0.489074" stop-color="#CED2DF" stop-opacity="0"/>
</radialGradient>
</defs>
</svg>
