<svg width="95" height="95" viewBox="0 0 95 95" fill="none" xmlns="http://www.w3.org/2000/svg">
<g filter="url(#filter0_d_770_2729)">
<g opacity="0.4">
<path d="M47.5001 62.0833C55.5542 62.0833 62.0834 55.5541 62.0834 47.5C62.0834 39.4458 55.5542 32.9167 47.5001 32.9167C39.4459 32.9167 32.9167 39.4458 32.9167 47.5C32.9167 55.5541 39.4459 62.0833 47.5001 62.0833Z" fill="#292D32"/>
<path d="M47.5001 62.0833C55.5542 62.0833 62.0834 55.5541 62.0834 47.5C62.0834 39.4458 55.5542 32.9167 47.5001 32.9167C39.4459 32.9167 32.9167 39.4458 32.9167 47.5C32.9167 55.5541 39.4459 62.0833 47.5001 62.0833Z" fill="url(#paint0_linear_770_2729)" fill-opacity="0.7"/>
</g>
<path d="M54.0479 46.9313C54.6021 46.2167 54.9521 45.3125 54.9521 44.3354C54.9521 42.075 52.9687 40.0771 50.6937 40.0771H49.4104V38.0208C49.4104 37.4229 48.9146 36.9271 48.3167 36.9271C47.7188 36.9271 47.2229 37.4229 47.2229 38.0208V40.0917H45.7937H45.4583V38.0208C45.4583 37.4229 44.9625 36.9271 44.3646 36.9271C43.7667 36.9271 43.3 37.4229 43.3 38.0208V40.0917H42.8042H40.2812C39.6833 40.0917 39.1875 40.5875 39.1875 41.1854C39.1875 41.7833 39.6833 42.2792 40.2812 42.2792H41.7104V47.5V52.7208H40.2812C39.6833 52.7208 39.1875 53.2167 39.1875 53.8146C39.1875 54.4125 39.6833 54.9083 40.2812 54.9083H42.8042H43.2854V56.9792C43.2854 57.5771 43.7812 58.0729 44.3792 58.0729C44.9771 58.0729 45.4729 57.5771 45.4729 56.9792V54.9083H45.8083H47.2375V56.9792C47.2375 57.5771 47.7333 58.0729 48.3312 58.0729C48.9292 58.0729 49.425 57.5771 49.425 56.9792V54.9083H51.8313C54.4271 54.9083 56.5417 52.9979 56.5417 50.65C56.5417 49.0458 55.5208 47.6458 54.0479 46.9313ZM45.8083 42.2792H50.7083C51.875 42.2792 52.7792 43.3875 52.7792 44.35C52.7792 45.4875 51.8458 46.4208 50.7083 46.4208H43.8979V42.2792H45.8083ZM51.8313 52.7208H45.8083H43.8979V48.5938H50.7083H51.8313C53.2167 48.5938 54.3542 49.5271 54.3542 50.6646C54.3542 51.8021 53.2167 52.7208 51.8313 52.7208Z" fill="#292D32"/>
<path d="M54.0479 46.9313C54.6021 46.2167 54.9521 45.3125 54.9521 44.3354C54.9521 42.075 52.9687 40.0771 50.6937 40.0771H49.4104V38.0208C49.4104 37.4229 48.9146 36.9271 48.3167 36.9271C47.7188 36.9271 47.2229 37.4229 47.2229 38.0208V40.0917H45.7937H45.4583V38.0208C45.4583 37.4229 44.9625 36.9271 44.3646 36.9271C43.7667 36.9271 43.3 37.4229 43.3 38.0208V40.0917H42.8042H40.2812C39.6833 40.0917 39.1875 40.5875 39.1875 41.1854C39.1875 41.7833 39.6833 42.2792 40.2812 42.2792H41.7104V47.5V52.7208H40.2812C39.6833 52.7208 39.1875 53.2167 39.1875 53.8146C39.1875 54.4125 39.6833 54.9083 40.2812 54.9083H42.8042H43.2854V56.9792C43.2854 57.5771 43.7812 58.0729 44.3792 58.0729C44.9771 58.0729 45.4729 57.5771 45.4729 56.9792V54.9083H45.8083H47.2375V56.9792C47.2375 57.5771 47.7333 58.0729 48.3312 58.0729C48.9292 58.0729 49.425 57.5771 49.425 56.9792V54.9083H51.8313C54.4271 54.9083 56.5417 52.9979 56.5417 50.65C56.5417 49.0458 55.5208 47.6458 54.0479 46.9313ZM45.8083 42.2792H50.7083C51.875 42.2792 52.7792 43.3875 52.7792 44.35C52.7792 45.4875 51.8458 46.4208 50.7083 46.4208H43.8979V42.2792H45.8083ZM51.8313 52.7208H45.8083H43.8979V48.5938H50.7083H51.8313C53.2167 48.5938 54.3542 49.5271 54.3542 50.6646C54.3542 51.8021 53.2167 52.7208 51.8313 52.7208Z" fill="url(#paint1_linear_770_2729)" fill-opacity="0.7"/>
</g>
<defs>
<filter id="filter0_d_770_2729" x="-2.0777" y="-2.0777" width="99.1554" height="99.1554" filterUnits="userSpaceOnUse" color-interpolation-filters="sRGB">
<feFlood flood-opacity="0" result="BackgroundImageFix"/>
<feColorMatrix in="SourceAlpha" type="matrix" values="0 0 0 0 0 0 0 0 0 0 0 0 0 0 0 0 0 0 127 0" result="hardAlpha"/>
<feOffset/>
<feGaussianBlur stdDeviation="16.0389"/>
<feComposite in2="hardAlpha" operator="out"/>
<feColorMatrix type="matrix" values="0 0 0 0 0.133277 0 0 0 0 0.190958 0 0 0 0 0.357591 0 0 0 0.51 0"/>
<feBlend mode="normal" in2="BackgroundImageFix" result="effect1_dropShadow_770_2729"/>
<feBlend mode="normal" in="SourceGraphic" in2="effect1_dropShadow_770_2729" result="shape"/>
</filter>
<linearGradient id="paint0_linear_770_2729" x1="47.5001" y1="32.9167" x2="47.5001" y2="62.0833" gradientUnits="userSpaceOnUse">
<stop stop-color="#3C63C6"/>
<stop offset="1" stop-color="#172C62"/>
</linearGradient>
<linearGradient id="paint1_linear_770_2729" x1="47.8646" y1="36.9271" x2="47.8646" y2="58.0729" gradientUnits="userSpaceOnUse">
<stop stop-color="#3C63C6"/>
<stop offset="1" stop-color="#172C62"/>
</linearGradient>
</defs>
</svg>
