<svg width="30" height="30" viewBox="0 0 30 30" fill="none" xmlns="http://www.w3.org/2000/svg">
<path d="M14.5625 2.93752L7.9375 9.56252C7.6875 9.81252 7.6875 10.2 7.9375 10.45L9.55 12.0625C9.8 12.3125 10.1875 12.3125 10.4375 12.0625L14.55 7.95002C14.8 7.70002 15.1875 7.70002 15.4375 7.95002L19.55 12.0625C19.8 12.3125 20.1875 12.3125 20.4375 12.0625L22.05 10.45C22.3 10.2 22.3 9.81252 22.05 9.56252L15.4375 2.95002C15.2 2.70002 14.8 2.70002 14.5625 2.93752Z" fill="url(#paint0_linear_788_4903)" fill-opacity="0.7"/>
<path d="M14.5627 27.0625L7.9502 20.45C7.7002 20.2 7.7002 19.8125 7.9502 19.5625L9.5627 17.95C9.8127 17.7 10.2002 17.7 10.4502 17.95L14.5627 22.0625C14.8127 22.3125 15.2002 22.3125 15.4502 22.0625L19.5627 17.95C19.8127 17.7 20.2002 17.7 20.4502 17.95L22.0627 19.5625C22.3127 19.8125 22.3127 20.2 22.0627 20.45L15.4502 27.0625C15.2002 27.3 14.8002 27.3 14.5627 27.0625Z" fill="url(#paint1_linear_788_4903)" fill-opacity="0.7"/>
<path opacity="0.4" d="M25.125 12.625L27.05 14.55C27.3 14.8 27.3 15.1875 27.05 15.4375L25.125 17.375C24.875 17.625 24.4875 17.625 24.2375 17.375L22.3125 15.45C22.0625 15.2 22.0625 14.8125 22.3125 14.5625L24.2375 12.6375C24.4875 12.3875 24.8875 12.3875 25.125 12.625Z" fill="url(#paint2_linear_788_4903)" fill-opacity="0.7"/>
<path opacity="0.4" d="M5.75 12.625L7.675 14.55C7.925 14.8 7.925 15.1875 7.675 15.4375L5.75 17.375C5.5 17.625 5.1125 17.625 4.8625 17.375L2.9375 15.45C2.6875 15.2 2.6875 14.8125 2.9375 14.5625L4.875 12.625C5.1125 12.3875 5.5125 12.3875 5.75 12.625Z" fill="url(#paint3_linear_788_4903)" fill-opacity="0.7"/>
<path opacity="0.4" d="M15.4379 12.35L17.6504 14.5625C17.9004 14.8125 17.9004 15.2 17.6504 15.45L15.4379 17.6625C15.1879 17.9125 14.8004 17.9125 14.5504 17.6625L12.3379 15.45C12.0879 15.2 12.0879 14.8125 12.3379 14.5625L14.5504 12.35C14.8004 12.1 15.2004 12.1 15.4379 12.35Z" fill="url(#paint4_linear_788_4903)" fill-opacity="0.7"/>
<defs>
<linearGradient id="paint0_linear_788_4903" x1="14.9937" y1="2.76093" x2="14.9937" y2="12.25" gradientUnits="userSpaceOnUse">
<stop stop-color="#3C63C6"/>
<stop offset="1" stop-color="#172C62"/>
</linearGradient>
<linearGradient id="paint1_linear_788_4903" x1="15.0064" y1="17.7625" x2="15.0064" y2="27.2406" gradientUnits="userSpaceOnUse">
<stop stop-color="#3C63C6"/>
<stop offset="1" stop-color="#172C62"/>
</linearGradient>
<linearGradient id="paint2_linear_788_4903" x1="24.6812" y1="12.4484" x2="24.6812" y2="17.5625" gradientUnits="userSpaceOnUse">
<stop stop-color="#3C63C6"/>
<stop offset="1" stop-color="#172C62"/>
</linearGradient>
<linearGradient id="paint3_linear_788_4903" x1="5.30625" y1="12.4469" x2="5.30625" y2="17.5625" gradientUnits="userSpaceOnUse">
<stop stop-color="#3C63C6"/>
<stop offset="1" stop-color="#172C62"/>
</linearGradient>
<linearGradient id="paint4_linear_788_4903" x1="14.9941" y1="12.1625" x2="14.9941" y2="17.85" gradientUnits="userSpaceOnUse">
<stop stop-color="#3C63C6"/>
<stop offset="1" stop-color="#172C62"/>
</linearGradient>
</defs>
</svg>
