<svg width="75" height="75" viewBox="0 0 75 75" fill="none" xmlns="http://www.w3.org/2000/svg">
<g filter="url(#filter0_d_770_2726)">
<path d="M42.5695 29.9675L42.5024 33.5996C42.4928 34.0979 42.8091 34.7592 43.2116 35.0563L45.5883 36.8579C47.112 38.0079 46.8628 39.4167 45.042 39.9917L41.9466 40.9596C41.4291 41.1225 40.8829 41.6879 40.7487 42.215L40.0108 45.0325C39.4262 47.2558 37.9695 47.4763 36.762 45.5213L35.0753 42.79C34.7687 42.2917 34.0403 41.9179 33.4653 41.9467L30.2645 42.1096C27.9741 42.2246 27.3224 40.9021 28.8174 39.1579L30.7149 36.9537C31.0695 36.5417 31.2324 35.775 31.0695 35.2575L30.1016 32.1621C29.5362 30.3412 30.552 29.335 32.3633 29.9292L35.1904 30.8588C35.6695 31.0121 36.3883 30.9067 36.7908 30.6096L39.7425 28.4821C41.3333 27.3321 42.6078 28.0029 42.5695 29.9675Z" fill="#292D32"/>
<path d="M42.5695 29.9675L42.5024 33.5996C42.4928 34.0979 42.8091 34.7592 43.2116 35.0563L45.5883 36.8579C47.112 38.0079 46.8628 39.4167 45.042 39.9917L41.9466 40.9596C41.4291 41.1225 40.8829 41.6879 40.7487 42.215L40.0108 45.0325C39.4262 47.2558 37.9695 47.4763 36.762 45.5213L35.0753 42.79C34.7687 42.2917 34.0403 41.9179 33.4653 41.9467L30.2645 42.1096C27.9741 42.2246 27.3224 40.9021 28.8174 39.1579L30.7149 36.9537C31.0695 36.5417 31.2324 35.775 31.0695 35.2575L30.1016 32.1621C29.5362 30.3412 30.552 29.335 32.3633 29.9292L35.1904 30.8588C35.6695 31.0121 36.3883 30.9067 36.7908 30.6096L39.7425 28.4821C41.3333 27.3321 42.6078 28.0029 42.5695 29.9675Z" fill="url(#paint0_linear_770_2726)" fill-opacity="0.7"/>
<g opacity="0.4">
<path d="M46.5467 45.6171L43.643 42.7133C43.3651 42.4354 42.9051 42.4354 42.6271 42.7133C42.3492 42.9912 42.3492 43.4512 42.6271 43.7292L45.5309 46.6329C45.6747 46.7767 45.8567 46.8437 46.0388 46.8437C46.2209 46.8437 46.403 46.7767 46.5467 46.6329C46.8247 46.355 46.8247 45.895 46.5467 45.6171Z" fill="#292D32"/>
<path d="M46.5467 45.6171L43.643 42.7133C43.3651 42.4354 42.9051 42.4354 42.6271 42.7133C42.3492 42.9912 42.3492 43.4512 42.6271 43.7292L45.5309 46.6329C45.6747 46.7767 45.8567 46.8437 46.0388 46.8437C46.2209 46.8437 46.403 46.7767 46.5467 46.6329C46.8247 46.355 46.8247 45.895 46.5467 45.6171Z" fill="url(#paint1_linear_770_2726)" fill-opacity="0.7"/>
</g>
</g>
<defs>
<filter id="filter0_d_770_2726" x="-1.32545" y="-1.32545" width="77.6509" height="77.6509" filterUnits="userSpaceOnUse" color-interpolation-filters="sRGB">
<feFlood flood-opacity="0" result="BackgroundImageFix"/>
<feColorMatrix in="SourceAlpha" type="matrix" values="0 0 0 0 0 0 0 0 0 0 0 0 0 0 0 0 0 0 127 0" result="hardAlpha"/>
<feOffset/>
<feGaussianBlur stdDeviation="13.6627"/>
<feComposite in2="hardAlpha" operator="out"/>
<feColorMatrix type="matrix" values="0 0 0 0 0.133277 0 0 0 0 0.190958 0 0 0 0 0.357591 0 0 0 0.51 0"/>
<feBlend mode="normal" in2="BackgroundImageFix" result="effect1_dropShadow_770_2726"/>
<feBlend mode="normal" in="SourceGraphic" in2="effect1_dropShadow_770_2726" result="shape"/>
</filter>
<linearGradient id="paint0_linear_770_2726" x1="37.3004" y1="27.9195" x2="37.3004" y2="46.855" gradientUnits="userSpaceOnUse">
<stop stop-color="#3C63C6"/>
<stop offset="1" stop-color="#172C62"/>
</linearGradient>
<linearGradient id="paint1_linear_770_2726" x1="44.5869" y1="42.5049" x2="44.5869" y2="46.8437" gradientUnits="userSpaceOnUse">
<stop stop-color="#3C63C6"/>
<stop offset="1" stop-color="#172C62"/>
</linearGradient>
</defs>
</svg>
