<svg width="102" height="108" viewBox="0 0 102 108" fill="none" xmlns="http://www.w3.org/2000/svg">
<g filter="url(#filter0_d_770_2724)">
<path d="M51.3552 25.8486C51.1073 25.7439 50.9833 25.6915 50.8578 25.6916C50.7323 25.6918 50.606 25.7456 50.3534 25.8532C26.6386 35.9535 47.1971 27.0725 26.3489 36.0787C26.3489 36.0787 25.838 36.8191 26.0527 40.5214C27.0863 58.3465 33.161 70.5095 47.0073 80.2834C47.0073 80.2834 47.8185 80.9593 49.3705 81.7839C50.0497 82.1448 50.3893 82.3253 50.8549 82.3232C51.3205 82.3212 51.6597 82.1372 52.3382 81.7691C53.7961 80.9781 54.708 80.2834 54.708 80.2834C68.036 69.695 75.2213 59.6249 75.9589 40.4473C76.0329 38.5222 76.0329 36.7451 75.7367 36.1527C69.4829 33.7243 75.6527 36.1201 51.3552 25.8486Z" fill="url(#paint0_linear_770_2724)" fill-opacity="0.47"/>
<path d="M51.2897 30.3968C51.082 30.309 50.9782 30.2651 50.873 30.2652C50.7679 30.2654 50.6621 30.3104 50.4505 30.4006C30.5852 38.8613 47.8065 31.422 30.3425 38.9662C30.3425 38.9662 29.9146 39.5864 30.0944 42.6877C30.9602 57.6193 36.0489 67.8079 47.6476 75.9953C47.6476 75.9953 48.327 76.5615 49.6271 77.2522C50.1961 77.5545 50.4806 77.7057 50.8706 77.704C51.2606 77.7023 51.5448 77.5481 52.1131 77.2398C53.3344 76.5772 54.0982 75.9953 54.0982 75.9953C65.2627 67.1256 71.2816 58.6902 71.8995 42.6257C71.9615 41.013 71.9615 39.5244 71.7134 39.0282C66.4747 36.994 71.643 39.0009 51.2897 30.3968Z" fill="#131315" fill-opacity="0.43"/>
<path d="M51.1144 34.2186C50.9404 34.145 50.8533 34.1082 50.7652 34.1084C50.677 34.1085 50.5883 34.1463 50.4109 34.2218C33.7571 41.3148 48.1944 35.0781 33.5536 41.4027C33.5536 41.4027 33.1948 41.9227 33.3456 44.5226C34.0714 57.0405 38.3375 65.582 48.0611 72.4458C48.0611 72.4458 48.6308 72.9205 49.7206 73.4995C50.1977 73.753 50.4362 73.8797 50.7631 73.8783C51.0901 73.8768 51.3283 73.7476 51.8048 73.4891C52.8286 72.9337 53.469 72.4458 53.469 72.4458C62.8287 65.01 67.8745 57.9382 68.3925 44.4706C68.4445 43.1187 68.4445 41.8707 68.2365 41.4547C63.8447 39.7493 68.1775 41.4318 51.1144 34.2186Z" fill="url(#paint1_linear_770_2724)" fill-opacity="0.47"/>
<path d="M58.1874 49.7803L48.2192 59.4524L43.8228 55.056" stroke="#131315" stroke-opacity="0.43" stroke-width="4.77792" stroke-linecap="round" stroke-linejoin="round"/>
</g>
<defs>
<filter id="filter0_d_770_2724" x="0.664686" y="0.356306" width="100.671" height="109.412" filterUnits="userSpaceOnUse" color-interpolation-filters="sRGB">
<feFlood flood-opacity="0" result="BackgroundImageFix"/>
<feColorMatrix in="SourceAlpha" type="matrix" values="0 0 0 0 0 0 0 0 0 0 0 0 0 0 0 0 0 0 127 0" result="hardAlpha"/>
<feOffset/>
<feGaussianBlur stdDeviation="12.6677"/>
<feComposite in2="hardAlpha" operator="out"/>
<feColorMatrix type="matrix" values="0 0 0 0 0.133277 0 0 0 0 0.190958 0 0 0 0 0.357591 0 0 0 0.51 0"/>
<feBlend mode="normal" in2="BackgroundImageFix" result="effect1_dropShadow_770_2724"/>
<feBlend mode="normal" in="SourceGraphic" in2="effect1_dropShadow_770_2724" result="shape"/>
</filter>
<linearGradient id="paint0_linear_770_2724" x1="51" y1="25.6384" x2="51" y2="82.5047" gradientUnits="userSpaceOnUse">
<stop stop-color="#3C63C6"/>
<stop offset="1" stop-color="#172C62"/>
</linearGradient>
<linearGradient id="paint1_linear_770_2724" x1="50.865" y1="34.071" x2="50.865" y2="74.0057" gradientUnits="userSpaceOnUse">
<stop stop-color="#3C63C6"/>
<stop offset="1" stop-color="#172C62"/>
</linearGradient>
</defs>
</svg>
