<svg width="87" height="87" viewBox="0 0 87 87" fill="none" xmlns="http://www.w3.org/2000/svg">
<g filter="url(#filter0_d_770_2731)">
<path d="M39.5625 48.225V38.775" stroke="#292D32" stroke-width="1.3125" stroke-miterlimit="10" stroke-linecap="round" stroke-linejoin="round"/>
<path d="M39.5625 41.5365H47.4375" stroke="#292D32" stroke-width="1.3125" stroke-miterlimit="10" stroke-linecap="round" stroke-linejoin="round"/>
<path opacity="0.4" d="M43.5 54C49.299 54 54 49.299 54 43.5C54 37.701 49.299 33 43.5 33C37.701 33 33 37.701 33 43.5C33 49.299 37.701 54 43.5 54Z" fill="url(#paint0_linear_770_2731)" fill-opacity="0.7"/>
<path d="M47.4376 49.0125C47.0071 49.0125 46.6501 48.6555 46.6501 48.225V38.775C46.6501 38.3445 47.0071 37.9875 47.4376 37.9875C47.8681 37.9875 48.2251 38.3445 48.2251 38.775V48.225C48.2251 48.6555 47.8681 49.0125 47.4376 49.0125Z" fill="url(#paint1_linear_770_2731)" fill-opacity="0.7"/>
<path d="M47.4374 46.251H39.5624C39.1319 46.251 39.6499 45.894 39.6499 45.4635C39.6499 45.033 39.1319 44.676 39.5624 44.676H47.4374C47.8679 44.676 48.2249 45.033 48.2249 45.4635C48.2249 45.894 47.8679 46.251 47.4374 46.251Z" fill="url(#paint2_linear_770_2731)" fill-opacity="0.7"/>
</g>
<defs>
<filter id="filter0_d_770_2731" x="0.922295" y="0.922295" width="85.1554" height="85.1554" filterUnits="userSpaceOnUse" color-interpolation-filters="sRGB">
<feFlood flood-opacity="0" result="BackgroundImageFix"/>
<feColorMatrix in="SourceAlpha" type="matrix" values="0 0 0 0 0 0 0 0 0 0 0 0 0 0 0 0 0 0 127 0" result="hardAlpha"/>
<feOffset/>
<feGaussianBlur stdDeviation="16.0389"/>
<feComposite in2="hardAlpha" operator="out"/>
<feColorMatrix type="matrix" values="0 0 0 0 0.133277 0 0 0 0 0.190958 0 0 0 0 0.357591 0 0 0 0.51 0"/>
<feBlend mode="normal" in2="BackgroundImageFix" result="effect1_dropShadow_770_2731"/>
<feBlend mode="normal" in="SourceGraphic" in2="effect1_dropShadow_770_2731" result="shape"/>
</filter>
<linearGradient id="paint0_linear_770_2731" x1="43.5" y1="33" x2="43.5" y2="54" gradientUnits="userSpaceOnUse">
<stop stop-color="#3C63C6"/>
<stop offset="1" stop-color="#172C62"/>
</linearGradient>
<linearGradient id="paint1_linear_770_2731" x1="47.4376" y1="37.9875" x2="47.4376" y2="49.0125" gradientUnits="userSpaceOnUse">
<stop stop-color="#3C63C6"/>
<stop offset="1" stop-color="#172C62"/>
</linearGradient>
<linearGradient id="paint2_linear_770_2731" x1="43.8081" y1="44.676" x2="43.8081" y2="46.251" gradientUnits="userSpaceOnUse">
<stop stop-color="#3C63C6"/>
<stop offset="1" stop-color="#172C62"/>
</linearGradient>
</defs>
</svg>
