<svg width="66" height="20" viewBox="0 0 66 20" fill="none" xmlns="http://www.w3.org/2000/svg">
<path d="M0.776261 19.1057V1.04675H5.67899V8.34793H5.92589L11.3577 1.04675H17.0717L10.9697 9.08863L17.2127 19.1057H11.3577L7.30147 12.3336L5.67899 14.4499V19.1057H0.776261ZM19.5495 19.1057V1.04675H25.8631C27.1211 1.04675 28.1586 1.26426 28.9758 1.69927C29.7929 2.12841 30.4013 2.70745 30.801 3.43639C31.2008 4.15945 31.4007 4.96188 31.4007 5.84366C31.4007 6.61963 31.2625 7.2604 30.9862 7.76595C30.7158 8.27151 30.3572 8.67125 29.9104 8.96518C29.4696 9.25911 28.9904 9.47662 28.4731 9.6177V9.79406C29.0257 9.82933 29.5812 10.0233 30.1397 10.376C30.6982 10.7288 31.1655 11.2343 31.5417 11.8927C31.918 12.5511 32.1061 13.3565 32.1061 14.3088C32.1061 15.2141 31.9003 16.0283 31.4888 16.7513C31.0773 17.4744 30.4278 18.0476 29.5401 18.4708C28.6524 18.8941 27.4973 19.1057 26.0747 19.1057H19.5495ZM21.7363 17.1658H26.0747C27.5032 17.1658 28.5172 16.8895 29.1168 16.3369C29.7223 15.7784 30.0251 15.1024 30.0251 14.3088C30.0251 13.6974 29.8693 13.1331 29.5577 12.6158C29.2462 12.0926 28.8023 11.6752 28.2262 11.3636C27.6501 11.0462 26.9682 10.8875 26.1805 10.8875H21.7363V17.1658ZM21.7363 8.98282H25.7925C26.4509 8.98282 27.0446 8.85349 27.5737 8.59483C28.1087 8.33618 28.5319 7.9717 28.8435 7.50142C29.1609 7.03113 29.3196 6.47855 29.3196 5.84366C29.3196 5.05006 29.0434 4.37696 28.4908 3.82437C27.9382 3.26591 27.0623 2.98668 25.8631 2.98668H21.7363V8.98282ZM34.7118 2.98668V1.04675H48.256V2.98668H42.5773V19.1057H40.3905V2.98668H34.7118ZM63.2243 6.69018C63.0303 6.09644 62.7746 5.56443 62.4571 5.09415C62.1456 4.61798 61.7723 4.21236 61.3373 3.87728C60.9081 3.5422 60.4202 3.28649 59.8735 3.11013C59.3268 2.93377 58.7272 2.84559 58.0747 2.84559C57.0048 2.84559 56.0319 3.12189 55.156 3.67447C54.28 4.22706 53.5834 5.04124 53.0661 6.11702C52.5488 7.19279 52.2902 8.51253 52.2902 10.0762C52.2902 11.6399 52.5518 12.9597 53.0749 14.0354C53.5981 15.1112 54.3065 15.9254 55.2 16.478C56.0936 17.0306 57.0988 17.3069 58.2158 17.3069C59.2504 17.3069 60.1616 17.0864 60.9493 16.6455C61.7429 16.1988 62.3601 15.5698 62.801 14.7585C63.2478 13.9414 63.4712 12.9802 63.4712 11.8751L64.1413 12.0162H58.7096V10.0762H65.5875V12.0162C65.5875 13.5034 65.27 14.7967 64.6351 15.896C64.0061 16.9953 63.1361 17.8477 62.0251 18.4532C60.9199 19.0528 59.6501 19.3526 58.2158 19.3526C56.6168 19.3526 55.2118 18.9764 54.0008 18.2239C52.7957 17.4715 51.8551 16.4016 51.1791 15.0142C50.5089 13.6269 50.1739 11.9809 50.1739 10.0762C50.1739 8.64774 50.3649 7.36327 50.747 6.22283C51.135 5.07651 51.6817 4.10067 52.3872 3.2953C53.0926 2.48994 53.9273 1.87269 54.8914 1.44355C55.8555 1.01442 56.9166 0.799851 58.0747 0.799851C59.027 0.799851 59.9147 0.943876 60.7377 1.23193C61.5665 1.5141 62.3043 1.91678 62.9509 2.43997C63.6035 2.95729 64.1472 3.57747 64.5822 4.30054C65.0173 5.01772 65.3171 5.81427 65.4817 6.69018H63.2243Z" fill="white"/>
</svg>
