<svg width="82" height="82" viewBox="0 0 82 82" fill="none" xmlns="http://www.w3.org/2000/svg">
<path d="M10.1948 32.6703H14.0891L11.1845 50.1408C10.9837 51.3314 10.5893 52.3139 10.0012 53.0885C9.42028 53.863 8.66723 54.4404 7.74207 54.8205C6.82407 55.2006 5.75547 55.3906 4.53626 55.3906C4.41434 55.3906 4.29242 55.387 4.1705 55.3799C4.0414 55.3799 3.90873 55.3763 3.77246 55.3691L4.29959 52.1956C4.4 52.2027 4.49323 52.2063 4.57929 52.2063C4.66535 52.2135 4.75859 52.2171 4.85899 52.2171C5.60486 52.2171 6.17144 52.0342 6.55872 51.6684C6.93882 51.3099 7.18984 50.7827 7.31176 50.0871L10.1948 32.6703ZM12.6584 30.3251C12.0416 30.3251 11.5252 30.1171 11.1092 29.7011C10.7004 29.2852 10.5212 28.7903 10.5714 28.2166C10.6216 27.6285 10.8833 27.13 11.3567 26.7212C11.8372 26.3053 12.3894 26.0973 13.0134 26.0973C13.6301 26.0973 14.1393 26.3053 14.541 26.7212C14.9498 27.13 15.1291 27.6285 15.0788 28.2166C15.0358 28.7903 14.774 29.2852 14.2935 29.7011C13.8202 30.1171 13.2751 30.3251 12.6584 30.3251Z" fill="white"/>
<path d="M25.4361 32.6703L24.9305 35.6824H15.4421L15.937 32.6703H25.4361ZM18.9276 28.7114H22.8219L20.2401 44.2241C20.1612 44.7476 20.1755 45.1493 20.2831 45.429C20.3979 45.7015 20.5807 45.888 20.8318 45.9884C21.0899 46.0888 21.3804 46.139 21.7031 46.139C21.9398 46.139 22.1621 46.121 22.3701 46.0852C22.5781 46.0421 22.7431 46.0099 22.865 45.9884L23.0371 49.0328C22.8004 49.1045 22.4813 49.1834 22.0797 49.2695C21.6852 49.3555 21.2119 49.4057 20.6596 49.4201C19.6699 49.4416 18.8093 49.291 18.0778 48.9683C17.3534 48.6383 16.8227 48.1327 16.4856 47.4514C16.1557 46.7629 16.0804 45.9023 16.2597 44.8696L18.9276 28.7114Z" fill="white"/>
<path d="M32.9371 27.1623L29.2795 49.1942H25.3852L29.0428 27.1623H32.9371Z" fill="white"/>
<path d="M36.9491 45.2257C37.1511 45.7306 37.4237 46.1951 37.7671 46.6192C38.1104 47.0433 38.5446 47.3866 39.0697 47.6492C39.615 47.9117 40.2512 48.043 40.9782 48.043C41.8264 48.043 42.503 47.8309 43.0079 47.4068C43.533 46.9625 43.7955 46.3566 43.7955 45.5892C43.7955 45.0237 43.634 44.5592 43.3108 44.1957C42.9877 43.812 42.5636 43.4989 42.0385 43.2566C41.5134 42.994 40.9479 42.7618 40.342 42.5598C39.6958 42.3175 39.0697 42.0448 38.4638 41.7419C37.8579 41.439 37.3531 41.035 36.9491 40.5301C36.5654 40.005 36.3736 39.3285 36.3736 38.5005C36.3736 37.7128 36.5654 37.0564 36.9491 36.5314C37.3531 36.0063 37.868 35.6225 38.4941 35.3802C39.1404 35.1176 39.827 34.9864 40.5541 34.9864C41.3417 34.9864 42.0486 35.1176 42.6747 35.3802C43.3007 35.6427 43.8359 35.9861 44.2802 36.4102C44.7245 36.8343 45.0679 37.3089 45.3102 37.834L44.0076 38.6216C43.6845 38.0158 43.23 37.4907 42.6444 37.0464C42.0587 36.602 41.3013 36.3799 40.3723 36.3799C39.6857 36.3799 39.1 36.5516 38.6153 36.8949C38.1508 37.2382 37.9185 37.7431 37.9185 38.4096C37.9185 38.9549 38.07 39.4093 38.3729 39.7728C38.6759 40.1161 39.0798 40.3989 39.5847 40.621C40.0896 40.8432 40.6248 41.0552 41.1903 41.2572C41.9375 41.5399 42.6242 41.853 43.2502 42.1963C43.8965 42.5396 44.4115 42.9637 44.7952 43.4686C45.1991 43.9735 45.4011 44.6198 45.4011 45.4074C45.4011 46.6192 44.977 47.6088 44.1288 48.3762C43.3007 49.1235 42.2203 49.4971 40.8873 49.4971C39.9179 49.4971 39.0697 49.3254 38.3426 48.9821C37.6358 48.6388 37.0602 48.1945 36.6159 47.6492C36.1918 47.1039 35.8788 46.5384 35.6768 45.9527L36.9491 45.2257Z" fill="white"/>
<path d="M48.2887 42.2266C48.2887 40.8129 48.6018 39.5607 49.2278 38.4702C49.8539 37.3796 50.7021 36.5213 51.7725 35.8952C52.8631 35.2691 54.0849 34.9561 55.4381 34.9561C56.7912 34.9561 58.0029 35.2691 59.0733 35.8952C60.1639 36.5213 61.0222 37.3796 61.6483 38.4702C62.2744 39.5607 62.5874 40.8129 62.5874 42.2266C62.5874 43.6201 62.2744 44.8722 61.6483 45.983C61.0222 47.0736 60.1639 47.9319 59.0733 48.558C58.0029 49.1841 56.7912 49.4971 55.4381 49.4971C54.0849 49.4971 52.8631 49.1841 51.7725 48.558C50.7021 47.9319 49.8539 47.0736 49.2278 45.983C48.6018 44.8722 48.2887 43.6201 48.2887 42.2266ZM49.8943 42.2266C49.8943 43.3576 50.1366 44.3573 50.6213 45.2257C51.106 46.0941 51.7624 46.7808 52.5904 47.2857C53.4387 47.7704 54.3879 48.0127 55.4381 48.0127C56.4882 48.0127 57.4273 47.7704 58.2554 47.2857C59.1036 46.7808 59.7701 46.0941 60.2548 45.2257C60.7395 44.3573 60.9818 43.3576 60.9818 42.2266C60.9818 41.1158 60.7395 40.1262 60.2548 39.2578C59.7701 38.3692 59.1036 37.6825 58.2554 37.1978C57.4273 36.6929 56.4882 36.4405 55.4381 36.4405C54.3879 36.4405 53.4387 36.6929 52.5904 37.1978C51.7624 37.6825 51.106 38.3591 50.6213 39.2275C50.1366 40.0959 49.8943 41.0956 49.8943 42.2266Z" fill="white"/>
<path d="M65.3988 35.259H71.9423V36.7434H65.3988V35.259ZM72.2452 27.8673C72.023 27.5442 71.7504 27.3018 71.4273 27.1403C71.1041 26.9585 70.7608 26.8676 70.3973 26.8676C69.8924 26.8676 69.4885 26.9989 69.1855 27.2615C68.9028 27.524 68.6907 27.8976 68.5494 28.3823C68.408 28.867 68.3373 29.4224 68.3373 30.0485V49.1942H66.762V29.8667C66.762 28.9175 66.8933 28.1097 67.1558 27.4432C67.4386 26.7566 67.8526 26.2315 68.3979 25.8679C68.9432 25.4842 69.6399 25.2924 70.4882 25.2924C70.9325 25.2924 71.3162 25.363 71.6393 25.5044C71.9826 25.6256 72.2755 25.7872 72.5178 25.9891C72.7804 26.1911 72.9823 26.393 73.1237 26.595L72.2452 27.8673Z" fill="white"/>
<path d="M73.2207 35.259H79.3401V36.7434H73.2207V35.259ZM75.4928 30.412H77.0681V49.1942H75.4928V30.412Z" fill="white"/>
</svg>
