<svg width="24" height="25" viewBox="0 0 24 25" fill="none" xmlns="http://www.w3.org/2000/svg">
<path d="M23.9995 12.1801C23.9995 15.3594 23.4667 17.9384 22.8092 17.9384C22.1517 17.9384 21.6191 15.3601 21.6191 12.1801C21.6191 9.00012 22.152 6.42188 22.8092 6.42188C23.4665 6.42188 23.9995 8.99989 23.9995 12.1801Z" fill="white"/>
<path d="M20.9632 12.1807C20.9632 15.73 19.4479 18.6084 17.5788 18.6084C15.7096 18.6084 14.1943 15.73 14.1943 12.1807C14.1943 8.63136 15.7094 5.75293 17.5785 5.75293C19.4477 5.75293 20.9629 8.63044 20.9629 12.1807" fill="white"/>
<path d="M13.5374 12.1802C13.5374 15.951 10.5069 19.0077 6.76884 19.0077C3.03073 19.0077 0 15.9503 0 12.1802C0 8.41021 3.0305 5.35254 6.76884 5.35254C10.5072 5.35254 13.5374 8.40952 13.5374 12.1802Z" fill="white"/>
</svg>
