<svg width="19" height="21" viewBox="0 0 19 21" fill="none" xmlns="http://www.w3.org/2000/svg">
<path d="M0.46931 20.3525C0.156422 20.1963 0 19.8056 0 19.415C0 19.3368 0 19.1806 0 19.1025C0 13.3209 0 7.53937 0 1.83597C0 1.52345 0.0782109 1.28909 0.156422 0.976571C0.234678 0.820288 0.391099 0.66405 0.547566 0.507812C3.91104 3.86733 7.1963 7.22685 10.4816 10.5864C7.11809 13.7115 3.83283 16.993 0.46931 20.3525Z" fill="white"/>
<path d="M13.7671 7.14876C12.8284 8.08633 11.8115 9.02384 10.8729 10.0395C7.74409 6.83624 4.53704 3.63296 1.4082 0.429681C1.4082 0.429681 1.4082 0.351562 1.48641 0.351562C5.55392 2.61728 9.62137 4.88305 13.7671 7.14876Z" fill="white"/>
<path d="M1.4082 20.353C4.53704 17.2278 7.74409 14.1027 10.8729 10.9775C11.7333 11.8369 12.672 12.6964 13.6889 13.6339C9.62137 15.8997 5.55392 18.1654 1.48641 20.353H1.4082Z" fill="white"/>
<path d="M14.236 13.3216C13.2192 12.384 12.2805 11.4465 11.2637 10.509C12.2805 9.49328 13.2974 8.4776 14.3143 7.46191C14.6271 7.61815 14.94 7.77444 15.2529 8.00879C16.0351 8.4776 16.8956 8.86824 17.6778 9.33699C17.9124 9.41511 18.0689 9.57139 18.2253 9.80575C18.5382 10.1964 18.5382 10.5871 18.2253 10.9777C18.0689 11.134 17.9124 11.2902 17.6778 11.3684C16.5827 12.0715 15.4094 12.6966 14.236 13.3216Z" fill="white"/>
</svg>
