<svg width="24" height="25" viewBox="0 0 24 25" fill="none" xmlns="http://www.w3.org/2000/svg">
<g clip-path="url(#clip0_912_2185)">
<path d="M12 24.3525C18.6274 24.3525 24 18.98 24 12.3525C24 5.72512 18.6274 0.352539 12 0.352539C5.37258 0.352539 0 5.72512 0 12.3525C0 18.98 5.37258 24.3525 12 24.3525Z" fill="white"/>
<path fill-rule="evenodd" clip-rule="evenodd" d="M5.43201 12.2255C8.93026 10.7014 11.263 9.69657 12.4301 9.2111C15.7627 7.82499 16.4551 7.58421 16.9065 7.57626C17.0058 7.57451 17.2277 7.59911 17.3715 7.71577C17.4929 7.81428 17.5263 7.94735 17.5423 8.04075C17.5583 8.13414 17.5782 8.3469 17.5623 8.51315C17.3817 10.4106 16.6003 15.0153 16.2028 17.1405C16.0346 18.0398 15.7034 18.3413 15.3827 18.3708C14.6858 18.4349 14.1567 17.9103 13.4817 17.4678C12.4256 16.7755 11.8289 16.3445 10.8037 15.669C9.61896 14.8882 10.387 14.4591 11.0622 13.7578C11.2389 13.5743 14.3093 10.7815 14.3687 10.5282C14.3762 10.4965 14.3831 10.3784 14.3129 10.316C14.2427 10.2537 14.1392 10.275 14.0644 10.2919C13.9585 10.316 12.2713 11.4312 9.00276 13.6375C8.52385 13.9664 8.09007 14.1266 7.70141 14.1182C7.27295 14.1089 6.44876 13.8759 5.83606 13.6768C5.08456 13.4325 4.48728 13.3033 4.53929 12.8885C4.56638 12.6724 4.86395 12.4514 5.43201 12.2255Z" fill="#0F0F10"/>
</g>
<defs>
<clipPath id="clip0_912_2185">
<rect width="24" height="24" fill="white" transform="translate(0 0.352539)"/>
</clipPath>
</defs>
</svg>
