<svg width="22" height="22" viewBox="0 0 22 22" fill="none" xmlns="http://www.w3.org/2000/svg">
<path opacity="0.4" d="M20.1667 7.79166C20.1667 11.0825 17.4992 13.75 14.2083 13.75C14.0525 13.75 13.8875 13.7408 13.7317 13.7317C13.5025 10.8258 11.1742 8.49748 8.26832 8.26832C8.25916 8.11248 8.25 7.9475 8.25 7.79166C8.25 4.50083 10.9175 1.83333 14.2083 1.83333C17.4992 1.83333 20.1667 4.50083 20.1667 7.79166Z" stroke="#FFD952" stroke-width="1.5" stroke-linecap="round" stroke-linejoin="round"/>
<path d="M13.7499 14.2083C13.7499 17.4992 11.0824 20.1667 7.79159 20.1667C4.50075 20.1667 1.83325 17.4992 1.83325 14.2083C1.83325 10.9175 4.50075 8.25 7.79159 8.25C7.94742 8.25 8.11241 8.25916 8.26824 8.26832C11.1741 8.49749 13.5024 10.8258 13.7316 13.7317C13.7408 13.8875 13.7499 14.0525 13.7499 14.2083Z" stroke="#FFD952" stroke-width="1.5" stroke-linecap="round" stroke-linejoin="round"/>
<path opacity="0.4" d="M6.985 13.4017L7.79167 11.9167L8.59834 13.4017L10.0833 14.2083L8.59834 15.015L7.79167 16.5L6.985 15.015L5.5 14.2083L6.985 13.4017Z" stroke="#FFD952" stroke-width="1.5" stroke-linecap="round" stroke-linejoin="round"/>
</svg>
