<svg width="93" height="37" viewBox="0 0 93 37" fill="none" xmlns="http://www.w3.org/2000/svg">
<path d="M7.89506 9.06875H12.6824L9.11172 30.5454C8.86487 32.009 8.37996 33.2168 7.65702 34.169C6.9429 35.1211 6.01718 35.8309 4.87986 36.2981C3.75137 36.7654 2.43773 36.999 0.938944 36.999C0.789066 36.999 0.639187 36.9946 0.489309 36.9858C0.330614 36.9858 0.167511 36.9814 0 36.9726L0.648004 33.0713C0.771433 33.0801 0.886046 33.0846 0.991842 33.0846C1.09764 33.0934 1.21225 33.0978 1.33568 33.0978C2.25258 33.0978 2.94908 32.873 3.42516 32.4233C3.89243 31.9825 4.201 31.3345 4.35088 30.4793L7.89506 9.06875ZM10.9235 6.18579C10.1653 6.18579 9.5305 5.93012 9.01915 5.41877C8.51662 4.90742 8.29621 4.29909 8.35792 3.59378C8.41964 2.87083 8.74144 2.2581 9.32332 1.75556C9.91401 1.24421 10.5929 0.988539 11.3599 0.988539C12.1181 0.988539 12.7441 1.24421 13.2378 1.75556C13.7403 2.2581 13.9607 2.87083 13.899 3.59378C13.8461 4.29909 13.5243 4.90742 12.9336 5.41877C12.3517 5.93012 11.6817 6.18579 10.9235 6.18579Z" fill="white"/>
<path d="M26.6312 9.06875L26.0097 12.7716H14.3456L14.9539 9.06875H26.6312ZM18.6304 4.20211H23.4177L20.2438 23.2719C20.1468 23.9155 20.1644 24.4092 20.2967 24.7531C20.4377 25.0881 20.6625 25.3173 20.9711 25.4408C21.2885 25.5642 21.6456 25.6259 22.0423 25.6259C22.3332 25.6259 22.6066 25.6039 22.8622 25.5598C23.1179 25.5069 23.3207 25.4672 23.4706 25.4408L23.6821 29.1833C23.3912 29.2715 22.9989 29.3685 22.5052 29.4742C22.0203 29.58 21.4384 29.6418 20.7595 29.6594C19.5429 29.6858 18.4849 29.5007 17.5856 29.104C16.6952 28.6984 16.0428 28.0769 15.6284 27.2393C15.2228 26.3929 15.1303 25.335 15.3507 24.0654L18.6304 4.20211Z" fill="white"/>
<path d="M35.8523 2.29777L31.356 29.3817H26.5687L31.065 2.29777H35.8523Z" fill="white"/>
<path d="M40.7843 24.5032C41.0326 25.1239 41.3677 25.6949 41.7898 26.2162C42.2119 26.7376 42.7456 27.1597 43.3911 27.4824C44.0615 27.8052 44.8435 27.9665 45.7373 27.9665C46.78 27.9665 47.6117 27.7059 48.2324 27.1845C48.8779 26.6383 49.2006 25.8935 49.2006 24.9501C49.2006 24.2549 49.002 23.6839 48.6048 23.237C48.2076 22.7653 47.6862 22.3805 47.0407 22.0826C46.3952 21.7598 45.7 21.4743 44.9552 21.226C44.1608 20.9281 43.3911 20.5929 42.6463 20.2205C41.9015 19.8481 41.2808 19.3516 40.7843 18.7309C40.3126 18.0854 40.0767 17.2537 40.0767 16.2358C40.0767 15.2676 40.3126 14.4607 40.7843 13.8152C41.2808 13.1697 41.9139 12.698 42.6836 12.4001C43.478 12.0773 44.3221 11.9159 45.2159 11.9159C46.1842 11.9159 47.0531 12.0773 47.8227 12.4001C48.5924 12.7228 49.2503 13.1449 49.7965 13.6662C50.3427 14.1876 50.7647 14.771 51.0626 15.4165L49.4613 16.3848C49.0641 15.64 48.5055 14.9945 47.7855 14.4483C47.0655 13.9021 46.1345 13.629 44.9925 13.629C44.1483 13.629 43.4284 13.84 42.8325 14.2621C42.2615 14.6841 41.976 15.3048 41.976 16.1241C41.976 16.7944 42.1622 17.353 42.5346 17.7999C42.907 18.222 43.4035 18.5696 44.0242 18.8426C44.6449 19.1157 45.3028 19.3764 45.998 19.6247C46.9166 19.9723 47.7607 20.3571 48.5303 20.7791C49.3248 21.2012 49.9578 21.7226 50.4296 22.3432C50.9261 22.9639 51.1744 23.7584 51.1744 24.7266C51.1744 26.2162 50.653 27.4328 49.6103 28.3762C48.5924 29.2948 47.2641 29.7541 45.6256 29.7541C44.4339 29.7541 43.3911 29.5431 42.4974 29.121C41.6284 28.6989 40.9209 28.1527 40.3747 27.4824C39.8533 26.8121 39.4685 26.1169 39.2202 25.397L40.7843 24.5032Z" fill="white"/>
<path d="M54.7241 20.8164C54.7241 19.0785 55.1089 17.5392 55.8786 16.1986C56.6482 14.8579 57.6909 13.8028 59.0068 13.0332C60.3474 12.2635 61.8495 11.8787 63.5129 11.8787C65.1763 11.8787 66.6659 12.2635 67.9817 13.0332C69.3224 13.8028 70.3775 14.8579 71.1471 16.1986C71.9168 17.5392 72.3016 19.0785 72.3016 20.8164C72.3016 22.5294 71.9168 24.0687 71.1471 25.4342C70.3775 26.7748 69.3224 27.83 67.9817 28.5996C66.6659 29.3693 65.1763 29.7541 63.5129 29.7541C61.8495 29.7541 60.3474 29.3693 59.0068 28.5996C57.6909 27.83 56.6482 26.7748 55.8786 25.4342C55.1089 24.0687 54.7241 22.5294 54.7241 20.8164ZM56.6979 20.8164C56.6979 22.2067 56.9958 23.4356 57.5916 24.5032C58.1875 25.5707 58.9944 26.4149 60.0123 27.0355C61.055 27.6314 62.2219 27.9293 63.5129 27.9293C64.8039 27.9293 65.9583 27.6314 66.9762 27.0355C68.0189 26.4149 68.8382 25.5707 69.4341 24.5032C70.0299 23.4356 70.3278 22.2067 70.3278 20.8164C70.3278 19.4509 70.0299 18.2344 69.4341 17.1668C68.8382 16.0745 68.0189 15.2303 66.9762 14.6345C65.9583 14.0138 64.8039 13.7035 63.5129 13.7035C62.2219 13.7035 61.055 14.0138 60.0123 14.6345C58.9944 15.2303 58.1875 16.062 57.5916 17.1296C56.9958 18.1971 56.6979 19.4261 56.6979 20.8164Z" fill="white"/>
<path d="M75.7577 12.2511H83.8016V14.0759H75.7577V12.2511ZM84.174 3.16445C83.9009 2.76722 83.5657 2.4693 83.1685 2.27069C82.7713 2.04724 82.3492 1.93552 81.9023 1.93552C81.2817 1.93552 80.7851 2.0969 80.4127 2.41965C80.0651 2.7424 79.8045 3.2017 79.6307 3.79754C79.4569 4.39339 79.37 5.07613 79.37 5.84576V29.3817H77.4335V5.62232C77.4335 4.45545 77.5949 3.46238 77.9176 2.64309C78.2652 1.79897 78.7741 1.15347 79.4445 0.70659C80.1148 0.234879 80.9713 -0.000976562 82.014 -0.000976562C82.5602 -0.000976562 83.0319 0.0859172 83.4292 0.259705C83.8512 0.408667 84.2112 0.607283 84.5092 0.855552C84.8319 1.10382 85.0802 1.35209 85.254 1.60036L84.174 3.16445Z" fill="white"/>
<path d="M85.3732 12.2511H92.8958V14.0759H85.3732V12.2511ZM88.1663 6.29265H90.1028V29.3817H88.1663V6.29265Z" fill="white"/>
</svg>
