<svg width="81" height="24" viewBox="0 0 81 24" fill="none" xmlns="http://www.w3.org/2000/svg">
<path d="M0.430859 23V0.799998H6.45781V9.77539H6.76133L13.4387 0.799998H20.4629L12.9617 10.6859L20.6363 23H13.4387L8.45234 14.675L6.45781 17.2766V23H0.430859ZM23.5089 23V0.799998H31.2702C32.8167 0.799998 34.0922 1.06738 35.0967 1.60215C36.1012 2.12969 36.8491 2.8415 37.3405 3.7376C37.8319 4.62646 38.0776 5.61289 38.0776 6.69687C38.0776 7.65078 37.9078 8.43848 37.5682 9.05996C37.2357 9.68144 36.7949 10.1729 36.2457 10.5342C35.7037 10.8955 35.1147 11.1629 34.4788 11.3363V11.5531C35.1581 11.5965 35.841 11.835 36.5275 12.2686C37.2141 12.7021 37.7886 13.3236 38.2511 14.133C38.7136 14.9424 38.9448 15.9324 38.9448 17.1031C38.9448 18.216 38.6919 19.2169 38.186 20.1058C37.6802 20.9946 36.8816 21.6992 35.7904 22.2195C34.6992 22.7398 33.2792 23 31.5304 23H23.5089ZM26.1972 20.6152H31.5304C33.2864 20.6152 34.533 20.2756 35.2701 19.5963C36.0145 18.9098 36.3866 18.0787 36.3866 17.1031C36.3866 16.3516 36.1951 15.6578 35.8121 15.0219C35.4291 14.3787 34.8835 13.8656 34.1753 13.4826C33.4671 13.0924 32.6288 12.8973 31.6605 12.8973H26.1972V20.6152ZM26.1972 10.5559H31.1835C31.9929 10.5559 32.7228 10.3969 33.3731 10.0789C34.0308 9.76094 34.5511 9.31289 34.9341 8.73476C35.3243 8.15664 35.5194 7.47734 35.5194 6.69687C35.5194 5.72129 35.1798 4.89385 34.5005 4.21455C33.8212 3.52803 32.7444 3.18476 31.2702 3.18476H26.1972V10.5559ZM42.148 3.18476V0.799998H58.798V3.18476H51.8171V23H49.1289V3.18476H42.148ZM77.1986 7.7375C76.9602 7.00762 76.6458 6.35361 76.2556 5.77549C75.8726 5.19014 75.4137 4.6915 74.8789 4.27959C74.3514 3.86767 73.7516 3.55332 73.0795 3.33652C72.4074 3.11972 71.6703 3.01133 70.8682 3.01133C69.5529 3.01133 68.3569 3.35098 67.2802 4.03027C66.2034 4.70957 65.3471 5.71045 64.7111 7.03291C64.0752 8.35537 63.7572 9.97773 63.7572 11.9C63.7572 13.8223 64.0788 15.4446 64.722 16.7671C65.3651 18.0896 66.2359 19.0904 67.3344 19.7697C68.4328 20.449 69.6686 20.7887 71.0416 20.7887C72.3135 20.7887 73.4336 20.5177 74.402 19.9757C75.3775 19.4265 76.1363 18.6532 76.6783 17.656C77.2275 16.6515 77.5022 15.4699 77.5022 14.1113L78.326 14.2848H71.6486V11.9H80.1037V14.2848C80.1037 16.1131 79.7135 17.7029 78.933 19.0543C78.1598 20.4057 77.0902 21.4535 75.7244 22.1979C74.3658 22.935 72.8049 23.3035 71.0416 23.3035C69.076 23.3035 67.3488 22.841 65.8602 21.916C64.3787 20.991 63.2225 19.6758 62.3914 17.9703C61.5676 16.2648 61.1557 14.2414 61.1557 11.9C61.1557 10.1439 61.3905 8.56494 61.8603 7.16299C62.3372 5.75381 63.0093 4.5542 63.8765 3.56416C64.7437 2.57412 65.7698 1.81533 66.955 1.28779C68.1401 0.760252 69.4445 0.496482 70.8682 0.496482C72.0389 0.496482 73.1301 0.673533 74.1418 1.02763C75.1607 1.37451 76.0677 1.86953 76.8626 2.51269C77.6647 3.14863 78.3332 3.91103 78.868 4.7999C79.4027 5.68154 79.7713 6.66074 79.9736 7.7375H77.1986Z" fill="white"/>
</svg>
