<svg width="44" height="44" viewBox="0 0 44 44" fill="none" xmlns="http://www.w3.org/2000/svg">
<g opacity="0.4">
<path d="M14.6667 20.9002C14.6667 22.3119 15.7667 23.4669 17.1051 23.4669H19.8551C21.0284 23.4669 21.9817 22.4585 21.9817 21.2302C21.9817 19.8919 21.3951 19.4152 20.5334 19.1035L16.1334 17.5635C15.2534 17.2519 14.6667 16.7752 14.6667 15.4369C14.6667 14.2085 15.6201 13.2002 16.7934 13.2002H19.5434C20.9001 13.2185 22.0001 14.3552 22.0001 15.7669" stroke="#749BFF" stroke-width="2" stroke-linecap="round" stroke-linejoin="round"/>
<path d="M18.3333 23.5576V24.9143" stroke="#749BFF" stroke-width="2" stroke-linecap="round" stroke-linejoin="round"/>
<path d="M18.3333 11.752V13.182" stroke="#749BFF" stroke-width="2" stroke-linecap="round" stroke-linejoin="round"/>
</g>
<path d="M18.3151 32.9632C26.4051 32.9632 32.9634 26.4049 32.9634 18.3148C32.9634 10.2248 26.4051 3.6665 18.3151 3.6665C10.225 3.6665 3.66675 10.2248 3.66675 18.3148C3.66675 26.4049 10.225 32.9632 18.3151 32.9632Z" stroke="#749BFF" stroke-width="2" stroke-linecap="round" stroke-linejoin="round"/>
<path opacity="0.4" d="M23.7966 36.4468C25.4466 38.7752 28.1416 40.2968 31.2216 40.2968C36.2266 40.2968 40.2966 36.2268 40.2966 31.2218C40.2966 28.1785 38.7933 25.4835 36.5016 23.8335" stroke="#749BFF" stroke-width="2" stroke-linecap="round" stroke-linejoin="round"/>
</svg>
