<svg width="44" height="44" viewBox="0 0 44 44" fill="none" xmlns="http://www.w3.org/2000/svg">
<path opacity="0.4" d="M21.5234 32.5418H32.3768C32.2118 32.6885 32.0467 32.8168 31.8817 32.9635L24.0534 38.8301C21.4684 40.7551 17.2518 40.7551 14.6484 38.8301L6.80176 32.9635C5.07843 31.6802 3.66675 28.8385 3.66675 26.6935V13.1085C3.66675 10.8718 5.37176 8.39681 7.46176 7.60848L16.5918 4.18016C18.0951 3.61182 20.5884 3.61182 22.0918 4.18016L31.2034 7.60848C32.9451 8.26848 34.4301 10.1018 34.8884 11.9718H21.5051C21.1017 11.9718 20.7351 11.9902 20.3867 11.9902C16.9951 12.1918 16.1151 13.4201 16.1151 17.2885V27.2435C16.1334 31.4601 17.2151 32.5418 21.5234 32.5418Z" stroke="#749BFF" stroke-width="2" stroke-linecap="round" stroke-linejoin="round"/>
<path d="M16.1333 20.5698H40.3333" stroke="#749BFF" stroke-width="2" stroke-miterlimit="10" stroke-linecap="round" stroke-linejoin="round"/>
<path d="M40.3333 17.2701V27.445C40.2966 31.515 39.1783 32.5234 34.9433 32.5234H21.5233C17.215 32.5234 16.1333 31.4417 16.1333 27.2067V17.2517C16.1333 13.4017 17.0133 12.1734 20.405 11.9534C20.7533 11.9534 21.12 11.9351 21.5233 11.9351H34.9433C39.2516 11.9534 40.3333 13.0167 40.3333 17.2701Z" stroke="#749BFF" stroke-width="2" stroke-linecap="round" stroke-linejoin="round"/>
<path d="M20.7534 27.9766H23.1917" stroke="#749BFF" stroke-width="2" stroke-miterlimit="10" stroke-linecap="round" stroke-linejoin="round"/>
<path d="M27.0417 27.9766H33.0368" stroke="#749BFF" stroke-width="2" stroke-miterlimit="10" stroke-linecap="round" stroke-linejoin="round"/>
</svg>
