<svg width="48" height="48" viewBox="0 0 48 48" fill="none" xmlns="http://www.w3.org/2000/svg">
<g clip-path="url(#clip0_468_1302)">
<path d="M30.7716 47.4722C31.3898 47.0616 32.214 47.0616 32.4201 46.4458L32.214 46.0352C29.7413 44.393 26.8564 43.5718 25.62 40.9032C27.8867 40.9032 30.1534 40.9032 32.4201 40.4926C34.0686 40.0821 35.7171 39.4662 37.1596 38.6451C40.4566 36.5923 43.1355 33.9236 44.9901 30.6391C47.0507 27.1493 47.6689 23.249 47.4628 19.3487C47.2568 18.117 47.0507 16.8853 46.2265 15.8589H45.6083C43.7537 18.117 43.1355 21.4015 40.2506 22.4279C41.0748 17.9117 39.6324 13.3955 37.1596 9.49516C35.099 6.21066 32.214 4.15785 28.917 2.72088C24.7957 0.873353 19.6441 -0.974177 15.3167 2.10504C14.9046 2.31032 15.5228 2.92616 15.9349 3.13145C18.2016 4.36313 20.8805 5.38954 21.9108 7.85291C17.3774 7.03179 12.844 8.26347 8.92872 10.9321C1.92252 15.6536 -1.58058 24.0701 0.686129 31.8708C0.892194 32.2814 1.09826 32.6919 1.51039 32.8972C1.92252 32.8972 2.33465 32.4867 2.54071 32.0761C3.15891 30.0233 4.60136 28.381 6.04381 26.7388L7.2802 26.1229C6.45594 31.8708 8.51659 37.6187 12.4318 41.7243C17.1713 46.4458 24.1775 49.1144 30.7716 47.4722Z" fill="#749BFF"/>
</g>
<defs>
<clipPath id="clip0_468_1302">
<rect width="47.5" height="47.5" fill="white" transform="translate(0 0.45874)"/>
</clipPath>
</defs>
</svg>
