<svg width="48" height="48" viewBox="0 0 48 48" fill="none" xmlns="http://www.w3.org/2000/svg">
<g clip-path="url(#clip0_468_1286)">
<g clip-path="url(#clip1_468_1286)">
<path d="M26.501 1.81647C28.2498 0.266099 31.0098 0.895234 31.9123 3.05227C32.5789 4.64383 34.3315 5.48642 35.9904 5.01831C38.2411 4.37794 40.4505 6.14177 40.3307 8.47855C40.2408 10.2012 41.4542 11.7216 43.1543 12.0174C45.4574 12.4181 46.6857 14.9684 45.5623 17.0206C44.7347 18.5335 45.1653 20.4321 46.5696 21.4357C48.472 22.7989 48.472 25.6262 46.5696 26.9856C45.1653 27.9892 44.7347 29.8841 45.5623 31.4008C46.6857 33.453 45.4574 35.9995 43.1543 36.4039C41.4542 36.6997 40.2408 38.2201 40.3307 39.9428C40.4543 42.2796 38.2411 44.0434 35.9904 43.403C34.3277 42.9312 32.5789 43.7738 31.9123 45.3691C31.0098 47.5261 28.2498 48.1552 26.501 46.6049C25.209 45.4589 23.2654 45.4589 21.9735 46.6049C20.2246 48.1552 17.4647 47.5261 16.5622 45.3691C15.8956 43.7775 14.143 42.9349 12.484 43.403C10.2334 44.0434 8.0239 42.2796 8.14373 39.9428C8.23361 38.2201 7.02028 36.6997 5.32012 36.4039C3.01703 36.0032 1.78872 33.453 2.91218 31.4008C3.73979 29.8879 3.30913 27.9892 1.90481 26.9856C0.00243154 25.6225 0.00243154 22.7951 1.90481 21.4357C3.30913 20.4321 3.73979 18.5372 2.91218 17.0206C1.78872 14.9684 3.01703 12.4219 5.32012 12.0174C7.02028 11.7216 8.23361 10.2012 8.14373 8.47855C8.02015 6.14177 10.2334 4.37794 12.484 5.01831C14.1467 5.49016 15.8956 4.64757 16.5622 3.05227C17.4647 0.895234 20.2246 0.266099 21.9735 1.81647C23.2654 2.96239 25.209 2.96239 26.501 1.81647Z" fill="#2FE27C"/>
</g>
</g>
<defs>
<clipPath id="clip0_468_1286">
<rect width="48" height="48" fill="white"/>
</clipPath>
<clipPath id="clip1_468_1286">
<rect width="47.5259" height="46.5073" fill="white" transform="translate(0.474121 0.955078)"/>
</clipPath>
</defs>
</svg>
