<svg width="48" height="48" viewBox="0 0 48 48" fill="none" xmlns="http://www.w3.org/2000/svg">
<g clip-path="url(#clip0_469_1405)">
<g clip-path="url(#clip1_469_1405)">
<path d="M43.8337 19.8337H37.599C36.2919 19.8337 35.6377 18.2538 36.5619 17.3296L40.913 12.9785C42.465 11.4264 42.6191 8.91785 41.1829 7.25721C39.5824 5.40587 36.779 5.32958 35.0802 7.02983L30.6719 11.4381C29.7477 12.3623 28.1677 11.7081 28.1677 10.401V4.16626C28.1677 1.86601 26.3032 0 24.0015 0C21.7012 0 19.8352 1.86455 19.8352 4.16626V10.401C19.8352 11.7081 18.2553 12.3623 17.3311 11.4381L12.9227 7.02983C11.2958 5.40293 8.65819 5.40293 7.0313 7.02983C5.4044 8.65672 5.4044 11.2944 7.0313 12.9213L11.4396 17.3296C12.3638 18.2538 11.7095 19.8337 10.4024 19.8337H4.16626C1.86601 19.8337 0 21.6983 0 24C0 26.3002 1.86455 28.1663 4.16626 28.1663H10.401C11.7081 28.1663 12.3623 29.7462 11.4381 30.6704L7.02983 35.0787C5.40293 36.7056 5.40293 39.3433 7.02983 40.9702C8.65672 42.5971 11.2944 42.5971 12.9213 40.9702L17.3296 36.5619C18.2538 35.6377 19.8337 36.2919 19.8337 37.599V43.8337C19.8337 46.134 21.6983 48 24 48C26.3002 48 28.1663 46.1354 28.1663 43.8337V37.599C28.1663 36.2919 29.7462 35.6377 30.6704 36.5619L35.0787 40.9702C36.7056 42.5971 39.3433 42.5971 40.9702 40.9702C42.5971 39.3433 42.5971 36.7056 40.9702 35.0787L36.5619 30.6704C35.6377 29.7462 36.2919 28.1663 37.599 28.1663H43.8337C46.134 28.1663 48 26.3017 48 24C48 21.6998 46.1354 19.8337 43.8337 19.8337Z" fill="#0F0F10"/>
</g>
</g>
<defs>
<clipPath id="clip0_469_1405">
<rect width="48" height="48" fill="white"/>
</clipPath>
<clipPath id="clip1_469_1405">
<rect width="48" height="48" fill="white"/>
</clipPath>
</defs>
</svg>
