<svg width="48" height="48" viewBox="0 0 48 48" fill="none" xmlns="http://www.w3.org/2000/svg">
<g clip-path="url(#clip0_469_1421)">
<path d="M35.7774 23.9776C34.9904 23.9776 34.2233 24.0573 33.4787 24.2018V23.4696C34.2233 23.6165 34.9904 23.6937 35.7774 23.6937C42.3197 23.6937 47.6243 18.3891 47.6243 11.8468C47.6243 5.30447 42.3197 -0.00012207 35.7774 -0.00012207C29.235 -0.00012207 23.9304 5.30447 23.9304 11.8468C23.9304 12.6412 24.0101 13.4183 24.1595 14.1704H23.4672C23.6166 13.4183 23.6963 12.6437 23.6963 11.8468C23.6938 5.30447 18.3892 -0.00012207 11.8469 -0.00012207C5.30459 -0.00012207 0 5.30447 0 11.8468C0 18.3891 5.30459 23.6937 11.8469 23.6937C12.6339 23.6937 13.4009 23.614 14.1456 23.4696V24.2018C13.4009 24.0548 12.6339 23.9776 11.8469 23.9776C5.30459 23.9776 0 29.2797 0 35.8245C0 42.3694 5.30459 47.6715 11.8469 47.6715C18.3892 47.6715 23.6938 42.3669 23.6938 35.8245C23.6938 35.0301 23.6141 34.2531 23.4647 33.501H24.1571C24.0076 34.2531 23.9279 35.0276 23.9279 35.8245C23.9279 42.3669 29.2325 47.6715 35.7749 47.6715C42.3172 47.6715 47.6218 42.3669 47.6218 35.8245C47.6218 29.2822 42.3172 23.9776 35.7749 23.9776H35.7774Z" fill="#231F20"/>
</g>
<defs>
<clipPath id="clip0_469_1421">
<rect width="48" height="48" fill="white"/>
</clipPath>
</defs>
</svg>
