<svg width="48" height="48" viewBox="0 0 48 48" fill="none" xmlns="http://www.w3.org/2000/svg">
<g clip-path="url(#clip0_469_1451)">
<path d="M24.0735 9.44804L27.8907 0L28.5928 10.1647L35.1401 2.3547L32.6733 12.2415L41.312 6.83984L35.9055 15.4786L45.7923 13.0069L37.9872 19.5542L48.1519 20.2611L38.6989 24.0735L48.1519 27.8907L37.9872 28.5928L45.7923 35.1401L35.9055 32.6733L41.312 41.312L32.6733 35.9055L35.1401 45.7923L28.5928 37.9872L27.8907 48.1519L24.0735 38.6989L20.2611 48.1519L19.5542 37.9872L13.0069 45.7923L15.4786 35.9055L6.83984 41.312L12.2415 32.6733L2.3547 35.1401L10.1647 28.5928L0 27.8907L9.44804 24.0735L0 20.2611L10.1647 19.5542L2.3547 13.0069L12.2415 15.4786L6.83984 6.83984L15.4786 12.2415L13.0069 2.3547L19.5542 10.1647L20.2611 0L24.0735 9.44804Z" fill="#231F20"/>
</g>
<defs>
<clipPath id="clip0_469_1451">
<rect width="48" height="48" fill="white"/>
</clipPath>
</defs>
</svg>
