<svg width="48" height="48" viewBox="0 0 48 48" fill="none" xmlns="http://www.w3.org/2000/svg">
<g clip-path="url(#clip0_469_1468)">
<path d="M45.4589 48.3494C43.3302 48.3494 43.3302 46.6635 41.2014 46.6635C39.0726 46.6635 39.0726 48.3494 36.9439 48.3494C34.8151 48.3494 34.8151 46.6635 32.6863 46.6635C30.5576 46.6635 30.5576 48.3494 28.4288 48.3494C26.3 48.3494 26.3 46.6635 24.1712 46.6635C22.0425 46.6635 22.0425 48.3494 19.9137 48.3494C17.7849 48.3494 17.7849 46.6635 15.6562 46.6635C13.5274 46.6635 13.5274 48.3494 11.3986 48.3494C9.26987 48.3494 9.26987 46.6635 7.14034 46.6635C5.0108 46.6635 5.01157 48.3494 2.88204 48.3494C1.29121 48.3494 0.00153259 46.8735 0.00153259 45.2827C0.00153259 43.1539 1.68738 43.1539 1.68738 41.0251C1.68738 38.8964 0 38.8964 0 36.7676C0 34.6388 1.68585 34.6388 1.68585 32.5101C1.68585 30.3813 0 30.3813 0 28.2525C0 26.1238 1.68585 26.1238 1.68585 23.995C1.68585 21.8662 0 21.8662 0 19.7375C0 17.6087 1.68585 17.6087 1.68585 15.4799C1.68585 13.3512 0 13.3496 0 11.2209C0 9.09209 1.68585 9.09209 1.68585 6.96256C1.68585 4.83302 0 5.01157 0 2.88204C0 1.29121 1.28967 0.00153259 2.8805 0.00153259V0C5.00927 0 5.00927 1.68585 7.13804 1.68585C9.26681 1.68585 9.26681 0 11.3963 0C13.5259 0 13.5251 1.68585 15.6539 1.68585C17.7826 1.68585 17.7826 0 19.9114 0C22.0402 0 22.0402 1.68585 24.1689 1.68585C26.2977 1.68585 26.2977 0 28.4265 0C30.5553 0 30.5553 1.68585 32.684 1.68585C34.8128 1.68585 34.8136 0 36.9423 0C39.0711 0 39.0711 1.68585 41.2006 1.68585C43.3302 1.68585 43.1164 0.00153259 45.2451 0.00153259C46.836 0.00153259 48.1256 1.29121 48.1256 2.88204H48.1333C48.1333 5.0108 46.4475 5.0108 46.4475 7.13957C46.4475 9.26834 48.1333 9.26834 48.1333 11.3971C48.1333 13.5259 46.4475 13.5259 46.4475 15.6546C46.4475 17.7834 48.1333 17.7834 48.1333 19.9122C48.1333 22.0409 46.4475 22.0409 46.4475 24.1697C46.4475 26.2985 48.1333 26.2985 48.1333 28.4273C48.1333 30.556 46.4475 30.556 46.4475 32.6848C46.4475 34.8136 48.1333 34.8136 48.1333 36.9423C48.1333 39.0711 46.4475 39.0711 46.4475 41.2006C46.4475 43.3302 48.1333 43.3294 48.1333 45.4589H48.1256C48.1256 47.0498 47.0498 48.3479 45.4589 48.3479V48.3494Z" fill="#231F20"/>
</g>
<defs>
<clipPath id="clip0_469_1468">
<rect width="48" height="48" fill="white"/>
</clipPath>
</defs>
</svg>
