<svg width="48" height="47" viewBox="0 0 48 47" fill="none" xmlns="http://www.w3.org/2000/svg">
<g clip-path="url(#clip0_470_1625)">
<path d="M26.0269 0.861266C27.7757 -0.689101 30.5357 -0.0599666 31.4382 2.09707C32.1047 3.68863 33.8573 4.53122 35.5163 4.06311C37.767 3.42274 39.9764 5.18657 39.8566 7.52335C39.7667 9.24598 40.98 10.7664 42.6802 11.0622C44.9833 11.4629 46.2116 14.0132 45.0881 16.0654C44.2605 17.5783 44.6912 19.4769 46.0955 20.4805C47.9979 21.8437 47.9979 24.671 46.0955 26.0304C44.6912 27.034 44.2605 28.9289 45.0881 30.4456C46.2116 32.4978 44.9833 35.0443 42.6802 35.4487C40.98 35.7445 39.7667 37.2649 39.8566 38.9876C39.9802 41.3244 37.767 43.0882 35.5163 42.4478C33.8536 41.976 32.1047 42.8186 31.4382 44.4139C30.5357 46.5709 27.7757 47.2 26.0269 45.6497C24.7349 44.5037 22.7913 44.5037 21.4993 45.6497C19.7505 47.2 16.9905 46.5709 16.088 44.4139C15.4214 42.8223 13.6689 41.9797 12.0099 42.4478C9.75924 43.0882 7.54978 41.3244 7.66961 38.9876C7.75949 37.2649 6.54616 35.7445 4.846 35.4487C2.54291 35.048 1.3146 32.4978 2.43806 30.4456C3.26567 28.9327 2.83501 27.034 1.43069 26.0304C-0.47169 24.6673 -0.47169 21.8399 1.43069 20.4805C2.83501 19.4769 3.26567 17.582 2.43806 16.0654C1.3146 14.0132 2.54291 11.4667 4.846 11.0622C6.54616 10.7664 7.75949 9.24598 7.66961 7.52335C7.54603 5.18657 9.75924 3.42274 12.0099 4.06311C13.6726 4.53496 15.4214 3.69237 16.088 2.09707C16.9905 -0.0599666 19.7505 -0.689101 21.4993 0.861266C22.7913 2.00719 24.7349 2.00719 26.0269 0.861266Z" fill="#0F0F10"/>
</g>
<defs>
<clipPath id="clip0_470_1625">
<rect width="47.5259" height="46.5073" fill="white"/>
</clipPath>
</defs>
</svg>
